<svg height="512" viewBox="0 0 152 152" width="512" xmlns="http://www.w3.org/2000/svg" xmlns:xlink="http://www.w3.org/1999/xlink"><linearGradient id="linear-gradient" gradientUnits="userSpaceOnUse" x1="55.59" x2="141.69" y1="55.35" y2="141.45"><stop offset="0" stop-color="#b71c1c"/><stop offset="1" stop-color="#b71c1c" stop-opacity="0"/></linearGradient><g id="Layer_2" data-name="Layer 2"><g id="_01.Add" data-name="01.Add"><rect fill="#f44336" height="152" rx="35" width="152"/><path d="m152 111v5.54a35.61 35.61 0 0 1 -35.5 35.46h-4.76l-39.18-39.18a6.6 6.6 0 0 1 -2.39-2.39l-28.84-28.84a6.78 6.78 0 0 1 3.46-12.59h23.07a1.34 1.34 0 0 0 1.35-1.35v-23.1a6.78 6.78 0 0 1 11.79-4.55l30.55 30.56-.22-.16c.14.11.29.23.42.35a3.33 3.33 0 0 1 .46.46z" fill="url(#linear-gradient)"/><path id="_Path_" d="m114 75.76a6.79 6.79 0 0 1 -6.79 6.79h-23.07a1.34 1.34 0 0 0 -1.35 1.35v23.1a6.79 6.79 0 0 1 -13.58 0v-23.1a1.34 1.34 0 0 0 -1.35-1.35h-23.07a6.79 6.79 0 1 1 0-13.58h23.07a1.34 1.34 0 0 0 1.35-1.35v-23.07a6.79 6.79 0 0 1 13.58 0v23.07a1.34 1.34 0 0 0 1.35 1.38h23.07a6.79 6.79 0 0 1 6.79 6.76z" fill="#fff"/></g></g></svg>