<svg height="512" viewBox="0 0 64 64" width="512" xmlns="http://www.w3.org/2000/svg"><g fill-rule="evenodd"><path d="m48 64h-32a16.0007 16.0007 0 0 1 -16-16v-32a16.0007 16.0007 0 0 1 16-16h32a16 16 0 0 1 16 16v32a16 16 0 0 1 -16 16" fill="#2d2d2d"/><path d="m30 18h18a9.0006 9.0006 0 0 0 .92-17.954c-.306-.017-.609-.046-.92-.046h-32a16.0007 16.0007 0 0 0 -16 16v32a30.0007 30.0007 0 0 1 30-30" fill="#464646"/><path d="m48 32a16 16 0 1 0 16 16v-32a16 16 0 0 1 -16 16" fill="#141414"/></g><path d="m39.0692 12.212a7.7923 7.7923 0 0 1 -1.9972 5.11 7.1324 7.1324 0 0 1 -4.9647 2.801.7042.7042 0 0 1 -.7187-.704h-.01a8.007 8.007 0 0 1 2.1187-5.164 8.1641 8.1641 0 0 1 2.581-1.937 8.4276 8.4276 0 0 1 2.2322-.755.6568.6568 0 0 1 .7558.649zm7.0466 27.728a19.825 19.825 0 0 1 -1.9634 3.53 17.9452 17.9452 0 0 1 -2.5292 3.057 4.91 4.91 0 0 1 -3.25 1.432 8.151 8.151 0 0 1 -3.0026-.717 8.6145 8.6145 0 0 0 -3.2325-.715 8.9067 8.9067 0 0 0 -3.324.715 8.9516 8.9516 0 0 1 -2.8722.755 4.6207 4.6207 0 0 1 -3.324-1.47 18.7961 18.7961 0 0 1 -2.6453-3.165 21.8812 21.8812 0 0 1 -2.7974-5.556 20.3459 20.3459 0 0 1 -1.1752-6.623 12.0941 12.0941 0 0 1 1.5881-6.327 9.3222 9.3222 0 0 1 3.326-3.364 8.9471 8.9471 0 0 1 4.4966-1.269 10.5783 10.5783 0 0 1 3.478.81 11.188 11.188 0 0 0 2.7587.811 16.4734 16.4734 0 0 0 3.0589-.956 10.1168 10.1168 0 0 1 4.1578-.738 9.5686 9.5686 0 0 1 5.265 1.891 1.9333 1.9333 0 0 1 .0585 2.919 7.4515 7.4515 0 0 0 -2.4876 5.82 7.7071 7.7071 0 0 0 2.5314 5.808 8.524 8.524 0 0 0 1.1449.917 1.9862 1.9862 0 0 1 .73 2.423c.0116.007.0105.01.0095.012z" fill="#fff"/></svg>