<svg id="Layer_1" enable-background="new 0 0 464.094 464.094" height="512" viewBox="0 0 464.094 464.094" width="512" xmlns="http://www.w3.org/2000/svg"><path d="m450.319 410.094h-19.27v-122c0-13.25-10.75-24-24-24h-15v-102c0-13.25-10.75-24-24-24h-272c-13.25 0-24 10.75-24 24v102h-15c-13.25 0-24 10.75-24 24v122h-19.27c-8.633 0-15.072 7.775-13.5 16.03 4.13 22.01 23.55 37.97 46.19 37.97h371.16c22.614 0 42.043-15.913 46.19-37.97 1.56-8.34-4.92-16.03-13.5-16.03z" fill="#ffebd2"/><path d="m450.319 410.094c8.58 0 15.06 7.69 13.5 16.03-4.146 22.051-23.569 37.97-46.19 37.97h-371.16c-22.64 0-42.03-15.966-46.19-37.97-1.564-8.273 4.873-16.03 13.5-16.03z" fill="#cbe3fa"/><path d="m250.469 40.834c26.94 4.12 42.39 33.07 31 57.82-7.95 17.3-20.26 32.6-36.4 44.24-7.75 5.6-18.28 5.6-26.03 0-16.13-11.64-28.44-26.93-36.4-44.23-11.46-24.91 4.29-53.83 31.41-57.89 12.05-1.8 24.34-1.79 36.42.06z" fill="#ff6d7a"/><path d="m263.654 45.219c4.697 2.524 2.722 9.68-2.603 9.406-7.488-.386-16.264-.155-25.002 1.15-24.095 3.607-45.026 28.53-29.584 61.993 2.463 5.338-4.767 9.827-8.428 5.226-6.444-8.098-12.002-16.949-15.398-24.33-11.46-24.91 4.29-53.83 31.41-57.89 12.05-1.8 24.34-1.79 36.42.06 4.788.734 9.211 2.249 13.185 4.385z" fill="#ff8c95"/><path d="m281.789 1.134c3.77.87 6.31 4.39 5.93 8.25-1.81 18.87-14.83 28.62-16.4 29.76-12.84 9.22-27.32 7.48-34.76 5.65-2.92-.72-4.89-3.45-4.64-6.46.64-7.62 3.61-21.91 16.44-31.13 1.58-1.14 14.96-10.37 33.43-6.07z" fill="#befa91"/><path d="m353.335 320.48c.777 1.301 2.651 1.301 3.427 0 9.767-16.372 37.079-8.965 35.467 11.775-1.92 24.46-22.64 41.79-37.13 41.79-14.71 0-35.32-17.44-37.23-41.79-1.612-20.775 25.709-28.106 35.466-11.775z" fill="#ff6d7a"/><path d="m230.336 320.479c.777 1.302 2.65 1.302 3.427 0 9.757-16.331 37.077-9 35.466 11.774-1.91 24.35-22.52 41.79-37.23 41.79-14.49 0-35.21-17.33-37.13-41.79-1.612-20.739 25.7-28.146 35.467-11.774z" fill="#ff6d7a"/><path d="m107.336 320.479c.777 1.302 2.65 1.302 3.427 0 9.757-16.331 37.077-9 35.466 11.774-1.91 24.35-22.52 41.79-37.23 41.79-14.49 0-35.21-17.33-37.13-41.79-1.612-20.739 25.7-28.146 35.467-11.774z" fill="#ff6d7a"/><path d="m392.049 162.094v50c-13.66-9.56-32.06-9.56-45.71 0-13.658 9.559-32.06 9.56-45.72 0-13.646-9.55-32.056-9.57-45.71 0-13.661 9.561-32.06 9.56-45.72 0-13.64-9.56-32.05-9.56-45.71 0-13.658 9.559-32.06 9.56-45.72 0-13.661-9.561-32.05-9.56-45.71 0v-50c0-13.25 10.75-24 24-24h272c13.25 0 24 10.75 24 24z" fill="#ff6d7a"/><path d="m281.411 8.48c-17.555 2.579-30.24 15.447-33.083 34.366-.295 1.961-2.028 3.396-4.004 3.229-3.02-.255-5.672-.76-7.764-1.281-2.92-.72-4.89-3.45-4.64-6.46.64-7.62 3.61-21.91 16.44-31.13 1.58-1.14 14.96-10.37 33.43-6.07 4.082.938 3.635 6.756-.379 7.346z" fill="#daffbf"/><path d="m102.049 212.94v43.154c0 4.418-3.582 8-8 8h-22v-52c6.604-4.622 14.272-6.975 21.89-7.16 4.46-.109 8.11 3.545 8.11 8.006z" fill="#fff3e4"/><path d="m368.536 158.094h-242.487c-13.255 0-24 10.745-24 24v14.844c0 4.376-3.515 7.908-7.89 7.991-7.686.144-15.438 2.496-22.11 7.165v-50c0-13.255 10.745-24 24-24 284.654.006 272.068-.029 273.265.033 12.805.666 12.045 19.967-.778 19.967z" fill="#ff8c95"/><path d="m407.536 284.094h-320.487c-13.255 0-24 10.745-24 24v92.001c0 5.522-4.477 9.999-9.999 9.999h-20.001v-122c0-13.255 10.745-24 24-24 0 0 350.846.011 351.265.033 12.805.666 12.045 19.967-.778 19.967z" fill="#fff3e4"/><g fill="#ff8c95"><path d="m136.527 321.358c-1.623.768-3.153 1.79-4.528 3.079-2.661 2.495-7.259 2.469-9.921-.024-5.317-4.979-1.755-12.876 4.689-12.862 3.568.008 7.141.956 10.235 2.74 2.802 1.614 2.449 5.684-.475 7.067z"/><path d="m92.489 352.44c2.305 6.43-6.102 11.197-10.324 5.826-5.472-6.962-9.498-15.875-10.296-26.012-1.163-15.017 12.834-23.049 24.348-20.116 5.015 1.277 6.154 7.936 1.838 10.793-5.213 3.452-8.798 9.418-8.186 17.323.337 4.301 1.256 8.381 2.62 12.186z"/><path d="m259.527 321.358c-1.623.768-3.153 1.79-4.528 3.079-2.661 2.495-7.259 2.469-9.921-.024-5.317-4.979-1.755-12.876 4.689-12.862 3.568.008 7.141.956 10.235 2.74 2.802 1.614 2.449 5.684-.475 7.067z"/><path d="m215.489 352.44c2.305 6.43-6.102 11.197-10.324 5.826-5.472-6.962-9.498-15.875-10.296-26.012-1.163-15.017 12.834-23.049 24.348-20.116 5.015 1.277 6.154 7.936 1.838 10.793-5.213 3.452-8.798 9.418-8.186 17.323.337 4.301 1.256 8.381 2.62 12.186z"/><path d="m382.526 321.358c-1.623.768-3.153 1.79-4.528 3.079-2.661 2.495-7.259 2.469-9.921-.024-5.317-4.979-1.755-12.876 4.689-12.862 3.568.008 7.141.956 10.235 2.74 2.802 1.614 2.449 5.684-.475 7.067z"/><path d="m338.488 352.44c2.305 6.43-6.102 11.197-10.324 5.826-5.472-6.962-9.498-15.875-10.296-26.012-1.163-15.017 12.834-23.049 24.347-20.116 5.015 1.277 6.154 7.936 1.838 10.793-5.213 3.452-8.798 9.418-8.186 17.323.339 4.301 1.257 8.381 2.621 12.186z"/></g><path d="m451.229 410.123c10.151.65 9.406 15.971-.766 15.971h-409.684c-8.64 0-15.07 7.79-13.5 16.03.107.57.225 1.137.353 1.699 1.741 7.67-7.298 13.205-13.099 7.894-7.209-6.601-12.353-15.453-14.254-25.592-1.57-8.244 4.855-16.03 13.5-16.03 0-.001 437.15.009 437.45.028z" fill="#eef7ff"/></svg>