<svg height="512" viewBox="0 0 64 64" width="512" xmlns="http://www.w3.org/2000/svg"><g id="Layer_71" data-name="Layer 71"><path d="m18 28 4 4h-15v-4z" fill="#ad6327"/><path d="m57 28v4h-15l4-4z" fill="#ad6327"/><path d="m4 27h56v2h-56z" fill="#e5870a"/><path d="m46 27h14v2h-14z" fill="#e5870a"/><path d="m7 32h2v23h-2z" fill="#99501a"/><path d="m55 32h2v23h-2z" fill="#99501a"/><path d="m46 28-14 14-14-14z" fill="#f49e21"/><g fill="#cfdfe8"><path d="m9 23h2v4h-2z"/><path d="m7 18h6a0 0 0 0 1 0 0v3.55a2.45 2.45 0 0 1 -2.45 2.45h-1.1a2.45 2.45 0 0 1 -2.45-2.45v-3.55a0 0 0 0 1 0 0z"/><path d="m53 23h2v4h-2z"/><path d="m51 18h6a0 0 0 0 1 0 0v3.55a2.45 2.45 0 0 1 -2.45 2.45h-1.1a2.45 2.45 0 0 1 -2.45-2.45v-3.55a0 0 0 0 1 0 0z"/></g><path d="m34 22h-4a3 3 0 0 1 -3-3v-4h2v4a1 1 0 0 0 1 1h4a1 1 0 0 0 1-1v-4h2v4a3 3 0 0 1 -3 3z" fill="#aabece"/><path d="m31 14h2v14h-2z" fill="#aabece"/><path d="m28.5 12 .5 1a1.12 1.12 0 0 1 -2 1 1.13 1.13 0 0 1 0-1l.5-1a.55.55 0 0 1 .75-.25.6.6 0 0 1 .25.25z" fill="#e5870a"/><path d="m32.5 11 .5 1a1.12 1.12 0 1 1 -2 1 1.13 1.13 0 0 1 0-1l.5-1a.55.55 0 0 1 .75-.25.6.6 0 0 1 .25.25z" fill="#e5870a"/><path d="m36.5 12 .5 1a1.12 1.12 0 0 1 -2 1 1.13 1.13 0 0 1 0-1l.5-1a.55.55 0 0 1 .75-.25.6.6 0 0 1 .25.25z" fill="#e5870a"/><path d="m19 27h26v2h-26z" fill="#f49e21"/><path d="m19.5 28a7 7 0 0 1 -5.6-2.8l-.9-1.2h13l-.9 1.2a7 7 0 0 1 -5.6 2.8z" fill="#cfdfe8"/><path d="m44.5 28a7 7 0 0 1 -5.6-2.8l-.9-1.2h13l-.9 1.2a7 7 0 0 1 -5.6 2.8z" fill="#cfdfe8"/></g></svg>