<?xml version="1.0" encoding="UTF-8"?>
<svg xmlns="http://www.w3.org/2000/svg" xmlns:xlink="http://www.w3.org/1999/xlink" version="1.1" id="Layer_1" x="0px" y="0px" viewBox="0 0 74 74" style="enable-background:new 0 0 74 74;" xml:space="preserve" width="512" height="512">
<style type="text/css">
	.st0{fill:#FFB133;}
	.st1{opacity:0.1;}
	.st2{fill:#FFFFFF;}
	.st3{fill:#AA3B0B;}
	.st4{opacity:0.07;}
	.st5{fill:#FFED4A;}
	.st6{fill:#FE2C02;}
	.st7{fill:#FF5E43;}
	.st8{fill:#CC6699;}
	.st9{fill:#E288B9;}
	.st10{fill:#3DA802;}
	.st11{fill:#59BC19;}
	.st12{fill:#FFC533;}
	.st13{fill:#F4E7CE;}
	.st14{fill:#E5D6BE;}
	.st15{fill:#5DC917;}
	.st16{fill:#CC6633;}
	.st17{fill:#D87448;}
	.st18{fill:#D87CAE;}
	.st19{fill:#E895C6;}
	.st20{opacity:0.15;fill:#FFFFFF;}
	.st21{fill:#FF7461;}
	.st22{fill:#E52000;}
	.st23{fill:#FFD44D;}
	.st24{fill:#74E22D;}
	.st25{fill:#F2D9B8;}
	.st26{fill:#E5CAAA;}
	.st27{fill:#FFEBD4;}
	.st28{opacity:0.1;fill:#FFFFFF;}
	.st29{opacity:0.05;}
	.st30{fill:#EFCE8E;}
	.st31{fill:#E87E2E;}
	.st32{fill:#2FBE54;}
	.st33{fill:#BE360B;}
	.st34{fill:#A02200;}
	.st35{fill:#FC6667;}
	.st36{fill:#FE4241;}
	.st37{fill:#EF282B;}
	.st38{fill:#F4C4F0;}
	.st39{fill:#FDE7FD;}
	.st40{fill:#D22D97;}
	.st41{fill:#BC198A;}
	.st42{opacity:0.15;}
	.st43{fill:#FA9843;}
	.st44{fill:#FFE19E;}
	.st45{opacity:0.3;fill:#FFFFFF;}
	.st46{fill:#EF6C00;}
	.st47{fill:#F78631;}
	.st48{fill:#FF9D5A;}
	.st49{fill:#BF5E21;}
	.st50{fill:#EAD9B0;}
	.st51{fill:#F7EAC6;}
	.st52{fill:#F48769;}
	.st53{fill:#E57A61;}
</style>
<g>
	<g>
		<g>
			<path class="st0" d="M19.56,45.31c-2.78-0.33-5.63-0.66-8.35,0.01s-5.32,2.55-6.02,5.26c-0.51,1.99,0.07,4.15,1.23,5.85     s2.83,2.98,4.6,4.02c4.62,2.71,9.99,3.92,15.33,4.36s10.71,0.12,16.06,0c5.2-0.12,10.51-0.07,15.46-1.68s9.59-5.22,10.87-10.27     c0.44-1.72,0.41-3.69-0.69-5.07c-1.13-1.41-3.07-1.84-4.87-2.04c-10.5-1.16-21.06,2.52-31.58,1.62L19.56,45.31z"/>
			<g class="st1">
				<path class="st2" d="M68.5,48.5c-0.72,0.6-1.41,1.21-2.09,1.86c-1.48,1.41-3.07,2.97-5.11,3.12c-2.81,0.22-5.49-2.34-8.16-1.49      c-2.29,0.74-3.28,3.61-5.5,4.49c-2.51,1-5.46-0.92-7.98,0.04c-1.64,0.61-2.61,2.29-3.96,3.39c-2.05,1.68-4.9,1.97-7.55,1.97      c-2.65-0.01-5.38-0.25-7.88,0.6c-0.67,0.23-1.34,0.56-1.94,0.98c-2.55-0.69-5.03-1.68-7.32-3.01c-1.78-1.04-3.45-2.32-4.61-4.01      c-1.15-1.7-1.73-3.87-1.22-5.85c0.7-2.72,3.29-4.6,6.02-5.26c2.72-0.66,5.57-0.34,8.35-0.01l12.04,2.07      c10.52,0.9,21.08-2.78,31.58-1.62c1.8,0.2,3.73,0.62,4.87,2.04C68.23,48,68.37,48.25,68.5,48.5z"/>
			</g>
			<g class="st1">
				<path class="st2" d="M54.53,45.71c-6.22,2.22-12.11,5.93-18.65,5.54c-2.3-0.14-4.67-0.79-6.87-0.07      c-2.07,0.67-3.58,2.45-5.45,3.54c-2.53,1.46-5.57,1.62-8.49,1.54c-2.87-0.09-5.78-0.38-8.59,0.25      c-0.02-0.03-0.05-0.06-0.06-0.09c-1.15-1.7-1.73-3.87-1.22-5.85c0.7-2.72,3.29-4.6,6.02-5.26c2.72-0.66,5.57-0.34,8.35-0.01      l12.04,2.07C39.24,48.02,46.88,46.27,54.53,45.71z"/>
			</g>
			<g class="st1">
				<path d="M66.74,53.39c-1.51,4.87-6.23,8.15-11.15,9.46c-4.91,1.31-10.1,0.99-15.19,0.83c-5.23-0.15-10.49-0.14-15.69-0.84      c-5.18-0.7-10.37-2.17-14.74-5.06c-0.06-0.05-0.12-0.08-0.19-0.13c3.74,1.91,7.92,2.97,12.1,3.53      c5.18,0.7,10.45,0.69,15.69,0.86c5.09,0.15,10.26,0.47,15.17-0.84c4.91-1.31,9.63-4.59,11.16-9.45c0.51-1.64,0.6-3.58-0.41-4.99      c-0.06-0.08-0.12-0.16-0.21-0.24c1.21,0.34,2.33,0.89,3.05,1.9C67.34,49.82,67.26,51.75,66.74,53.39z"/>
			</g>
		</g>
		<g>
			<path class="st3" d="M7.68,42.19c1.05-2.14,3.64-3.12,6.02-3.08s4.66,0.88,6.97,1.48c4.86,1.25,9.93,1.41,14.95,1.56     c7.31,0.22,14.66,0.43,21.92-0.51c1.9-0.25,3.84-0.57,5.69-0.09s3.58,2.03,3.57,3.95c-0.01,2.35-2.42,3.88-4.56,4.84     c-8.07,3.63-16.81,5.89-25.65,6.14C31.13,56.62,25.65,56,20.4,54.54c-3.74-1.04-7.93-2.21-10.65-5.12     C7.93,47.48,6.36,44.88,7.68,42.19z"/>
			<g class="st4">
				<path class="st2" d="M66.77,45.01c-1.69,0.81-3.45,1.38-5.34,1.48c-2.38,0.13-4.84-0.47-7.11,0.24      c-1.99,0.62-3.75,2.22-5.84,2.18c-1.54-0.04-2.92-0.99-4.45-1.12c-2.48-0.23-4.66,1.63-7.12,2c-3.68,0.54-7.3-2.35-10.97-1.63      c-1.44,0.28-2.76,1.11-4.23,1.18c-1.37,0.06-2.67-0.55-3.94-1.05c-1.78-0.7-3.78-1.17-5.57-0.52c-0.92,0.34-1.71,1.09-2.13,1.98      c-0.12-0.11-0.24-0.23-0.35-0.34c-1.81-1.94-3.37-4.54-2.06-7.22c1.06-2.13,3.65-3.12,6.03-3.09c2.37,0.04,4.66,0.89,6.96,1.48      c4.86,1.24,9.93,1.41,14.95,1.55c7.3,0.22,14.67,0.43,21.92-0.51c1.89-0.25,3.84-0.58,5.7-0.09      C64.93,41.98,66.51,43.32,66.77,45.01z"/>
			</g>
			<g class="st4">
				<path class="st2" d="M50.59,42.2c-3.16,1.16-6.56,1.82-9.92,1.38c-2.7-0.34-5.42-1.41-8.11-0.9c-1.94,0.36-3.83,1.53-5.75,1.11      c-1.82-0.39-3.28-2.12-5.12-1.97c-1.64,0.13-2.77,1.7-4.28,2.41c-1.94,0.92-4.22,0.32-6.37,0.42c-1.27,0.05-2.52,0.39-3.66,0.96      c-0.32-1.09-0.29-2.24,0.28-3.41c1.06-2.13,3.65-3.12,6.03-3.09c2.37,0.04,4.66,0.89,6.96,1.48c4.86,1.24,9.93,1.41,14.95,1.55      C40.59,42.28,45.6,42.43,50.59,42.2z"/>
			</g>
			<g class="st1">
				<path d="M66.06,45.48c-0.01,1.54-1.4,2.94-4.13,4.17c-8.38,3.77-16.85,5.81-25.19,6.07l-0.18,0.01      c-5.5,0.16-10.86-0.49-15.97-1.9c-3.61-1.01-7.73-2.16-10.31-4.92c-1.07-1.14-1.79-2.24-2.12-3.28      c0.36,0.54,0.79,1.09,1.32,1.66c2.57,2.76,6.68,3.91,10.31,4.92c5.09,1.41,10.47,2.06,15.97,1.9l0.16-0.01      c8.35-0.26,16.83-2.3,25.21-6.07c2.73-1.22,4.12-2.63,4.12-4.17c0-0.1-0.01-0.21-0.02-0.31C65.73,44.08,66.07,44.75,66.06,45.48      z"/>
			</g>
		</g>
		<g>
			<path class="st5" d="M18.56,51.01c1.1,0.97,2.28,1.98,3.73,2.2c2.05,0.31,3.93-1.04,5.7-2.12c2.39-1.47,5.07-2.58,7.88-2.72     c2.83-0.14,5.6,0.69,8.41,1.05c7.2,0.93,14.75-1.45,20.12-6.33c0.74-0.67,1.46-1.43,1.79-2.37c0.33-0.94,0.17-2.13-0.62-2.75     c-0.6-0.47-1.41-0.52-2.17-0.52c-4.44,0-8.84,1.27-13.27,1c-4.7-0.28-9.14-2.28-13.82-2.79c-4.98-0.54-9.95,0.63-14.92,1.25     c-2.31,0.29-4.65,0.44-6.97,0.27c-1.19-0.09-2.37-0.26-3.53-0.56c-0.78-0.2-2.45-1.25-3.17-1.16c-2.62,0.34,4.34,9.3,5.32,10.33     C14.78,47.64,16.67,49.34,18.56,51.01z"/>
			<g class="st1">
				<path d="M66.19,40.72c-0.34,0.95-1.05,1.69-1.79,2.37c-5.37,4.88-12.93,7.26-20.12,6.33c-2.81-0.36-5.59-1.2-8.42-1.05      c-2.8,0.15-5.49,1.26-7.87,2.72c-1.78,1.08-3.65,2.43-5.71,2.12c-1.45-0.21-2.63-1.23-3.73-2.2c-1.89-1.67-3.77-3.36-5.52-5.21      c-0.25-0.25-0.87-1.01-1.61-2.01c1.55,1.61,3.22,3.12,4.91,4.6c1.11,0.98,2.29,1.98,3.73,2.2c2.06,0.31,3.93-1.04,5.71-2.12      c2.4-1.48,5.07-2.59,7.87-2.74c2.83-0.13,5.61,0.7,8.42,1.07c7.19,0.92,14.75-1.45,20.12-6.33c0.74-0.68,1.46-1.43,1.79-2.38      c0.06-0.19,0.12-0.4,0.13-0.61c0.53,0.04,1.05,0.16,1.46,0.49C66.37,38.59,66.52,39.78,66.19,40.72z"/>
			</g>
		</g>
		<g>
			<g>
				<path class="st6" d="M22.79,39.54c-0.74,1.15-1.07,2.66-0.48,3.89c0.65,1.38,2.21,2.05,3.67,2.51      c4.88,1.53,10.21,1.95,15.13,0.54c1.91-0.55,3.91-1.52,4.72-3.33c0.84-1.89,0.07-4.24-1.48-5.62c-1.54-1.38-3.7-1.92-5.77-1.93      c-2.07-0.01-4.11,0.46-6.15,0.84c-2.06,0.39-4.01,0.3-6.07,0.44C24.83,36.99,23.58,38.32,22.79,39.54z"/>
			</g>
			<g>
				<path class="st7" d="M23.52,38.9c-0.69,1.07-1,2.49-0.45,3.64c0.61,1.29,2.07,1.92,3.43,2.34c4.57,1.43,9.55,1.82,14.15,0.5      c1.79-0.51,3.66-1.42,4.41-3.12c0.79-1.77,0.06-3.97-1.38-5.26s-3.46-1.79-5.4-1.8c-1.94-0.01-3.85,0.43-5.75,0.79      c-1.93,0.37-3.75,0.28-5.68,0.41C25.43,36.51,24.26,37.76,23.52,38.9z"/>
			</g>
		</g>
		<g>
			<path class="st8" d="M40.16,36.64c-0.74,1.15-1.07,2.66-0.48,3.89c0.65,1.38,2.21,2.05,3.67,2.51     c4.88,1.53,10.21,1.95,15.13,0.54c1.91-0.55,3.91-1.52,4.72-3.33c0.84-1.89,0.07-4.24-1.48-5.62c-1.54-1.38-3.7-1.92-5.77-1.93     c-2.07-0.01-4.11,0.46-6.15,0.84c-2.06,0.39-4.01,0.3-6.07,0.44C42.21,34.08,40.96,35.41,40.16,36.64z"/>
			<path class="st9" d="M40.89,36c-0.69,1.07-1,2.49-0.45,3.64c0.61,1.29,2.07,1.92,3.43,2.34c4.57,1.43,9.55,1.82,14.15,0.5     c1.79-0.51,3.66-1.42,4.41-3.12c0.79-1.77,0.06-3.97-1.38-5.26c-1.44-1.29-3.46-1.79-5.4-1.8c-1.94-0.01-3.85,0.43-5.75,0.79     c-1.93,0.37-3.75,0.28-5.68,0.41C42.81,33.61,41.63,34.85,40.89,36z"/>
		</g>
		<g>
			<path class="st8" d="M8.95,33.86c-0.74,1.15-1.07,2.66-0.48,3.89c0.65,1.38,2.21,2.05,3.67,2.51c4.88,1.53,10.21,1.95,15.13,0.54     c1.91-0.55,3.91-1.52,4.72-3.33c0.84-1.89,0.07-4.24-1.48-5.62s-3.7-1.92-5.77-1.93s-4.11,0.46-6.15,0.84     c-2.06,0.39-4.01,0.3-6.07,0.44C10.99,31.31,9.74,32.64,8.95,33.86z"/>
			<path class="st9" d="M9.68,33.22c-0.69,1.07-1,2.49-0.45,3.64c0.61,1.29,2.07,1.92,3.43,2.34c4.57,1.43,9.55,1.82,14.15,0.5     c1.79-0.51,3.66-1.42,4.41-3.12c0.79-1.77,0.06-3.97-1.38-5.26c-1.44-1.29-3.46-1.79-5.4-1.8s-3.85,0.43-5.75,0.79     c-1.93,0.37-3.75,0.28-5.68,0.41C11.59,30.83,10.42,32.07,9.68,33.22z"/>
		</g>
		<g>
			<path class="st10" d="M10.31,27.53c-1.15,0.56-2.35,1.14-3.15,2.22c-0.81,1.09-1.07,2.85-0.23,3.9c0.79,0.99,2.17,0.96,3.31,0.61     s2.26-0.95,3.43-0.82c1.54,0.17,2.74,1.53,3.9,2.71s2.64,2.31,4.14,1.9c2.41-0.66,3.6-3.97,6.51-2.93     c1.94,0.69,1.13,2.63,1.18,4.26c0.03,1.09,0.62,2.24,1.56,2.47c1.48,0.36,2.53-1.54,3.14-3.12c0.6-1.58,1.75-3.44,3.2-2.96     c1.03,0.34,1.47,1.69,1.85,2.84s1.09,2.44,2.16,2.37c1.15-0.07,1.73-1.64,2.75-2.27c0.98-0.61,2.2-0.24,3.24,0.23     c0.81,0.37,2.67,1.44,3.51,0.65c0.65-0.62,0.1-1.87,0.62-2.44c0.56-0.62,1.97,0.02,2.67,0.14c2.57,0.44,5.19,0.72,7.77,0.26     c1.61-0.29,3.28-0.94,4.29-2.4s1.04-3.9-0.29-4.98c-0.92-0.75-2.15-0.66-3.27-0.84c-2.1-0.34-3.95-1.7-5.85-2.78     c-5.72-3.27-12.39-4.18-18.71-3.03c-3.75,0.68-7.48,2.07-11.27,1.68c-2.39-0.25-4.69-1.2-7.06-1.58     c-1.74-0.28-3.94-0.29-5.5,0.79C12.77,25.4,11.95,26.73,10.31,27.53z"/>
			<path class="st11" d="M12.41,25.89c-1.06,0.51-2.16,1.05-2.9,2.05s-0.98,2.62-0.21,3.59c0.73,0.91,2,0.88,3.05,0.56     c1.05-0.32,2.08-0.87,3.16-0.75c1.42,0.16,2.53,1.41,3.59,2.49c1.06,1.08,2.43,2.13,3.81,1.75c2.22-0.61,3.31-3.65,5.99-2.69     c1.79,0.64,1.04,2.42,1.08,3.92c0.03,1.01,0.57,2.07,1.43,2.27c1.36,0.33,2.33-1.42,2.89-2.87s1.61-3.17,2.95-2.73     c0.95,0.31,1.35,1.56,1.7,2.61c0.35,1.05,1,2.25,1.99,2.18c1.06-0.07,1.59-1.51,2.53-2.09c0.91-0.56,2.03-0.22,2.98,0.21     c0.75,0.34,2.46,1.33,3.23,0.6c0.6-0.57,0.09-1.72,0.57-2.24c0.52-0.57,1.81,0.02,2.45,0.13c2.36,0.4,4.78,0.67,7.15,0.24     c1.48-0.27,3.02-0.86,3.95-2.21c0.93-1.34,0.96-3.59-0.27-4.58c-0.85-0.69-1.98-0.6-3.01-0.77c-1.93-0.31-3.63-1.56-5.38-2.56     c-5.27-3.01-11.4-3.85-17.22-2.79c-3.46,0.63-6.89,1.91-10.37,1.54c-2.2-0.23-4.31-1.11-6.5-1.45c-1.61-0.26-3.62-0.27-5.06,0.73     C14.68,23.93,13.92,25.16,12.41,25.89z"/>
		</g>
		<g>
			<path class="st12" d="M8.47,28.48c1.49-6.11,4.61-12.09,9.84-15.57c4.41-2.94,9.89-3.82,15.19-3.92     c4.38-0.08,8.77,0.33,13.06,1.22c3.25,0.68,6.48,1.64,9.35,3.31c5.97,3.47,10.01,10.04,10.42,16.93     C48.12,37.82,28.83,37.16,8.47,28.48z"/>
			<path class="st0" d="M65.36,25.39c-0.3,0.19-0.62,0.34-0.96,0.41c-1.11,0.25-2.46-0.15-3.28,0.64c-0.55,0.52-0.62,1.35-0.98,2.01     c-0.84,1.57-3.02,1.79-4.78,1.51c-1.76-0.28-3.62-0.84-5.27-0.16c-1.85,0.75-3.18,2.99-5.15,2.75c-1.14-0.13-2.03-1.09-3.12-1.42     c-1.42-0.41-2.87,0.28-4.23,0.81c-1.36,0.55-3.03,0.93-4.2,0.04c-1.17-0.9-1.51-2.85-2.96-3.12c-1.48-0.27-2.9,1.61-4.26,0.96     c-0.95-0.44-1.15-1.88-2.16-2.19c-0.8-0.27-1.58,0.37-2.28,0.86c-0.68,0.49-1.76,0.81-2.28,0.15c-0.33-0.41-0.24-0.99-0.25-1.51     c-0.01-0.52-0.25-1.15-0.78-1.2c-0.56-0.04-0.89,0.64-1.35,0.98c-0.52,0.38-1.27,0.31-1.83,0c-0.58-0.31-0.99-0.83-1.39-1.35     c-1.08-1.39-2.07-2.97-2.56-4.63c1.7-3.21,4.01-6.04,7.01-8.03c4.42-2.94,9.9-3.83,15.19-3.92c4.38-0.07,8.77,0.33,13.06,1.23     c3.25,0.67,6.48,1.64,9.35,3.3C60.38,16.12,63.78,20.47,65.36,25.39z"/>
			<g>
				<path class="st2" d="M49.47,13.23c-0.82-0.05-1.66,0.15-2.37,0.57c-0.29,0.17-0.57,0.38-0.72,0.68      C45.14,16.93,49.73,13.25,49.47,13.23z"/>
				<path class="st2" d="M53.52,19.51c-0.82-0.05-1.66,0.15-2.37,0.57c-0.29,0.17-0.69,0.35-0.72,0.68      C50.21,23.44,53.78,19.52,53.52,19.51z"/>
				<path class="st2" d="M41.99,23.77c-0.82-0.05-1.66,0.15-2.37,0.57c-0.29,0.17-0.69,0.35-0.72,0.68      C38.69,27.7,42.25,23.78,41.99,23.77z"/>
				<path class="st2" d="M51.96,25.3c-0.82-0.05-1.66,0.15-2.37,0.57c-0.29,0.17-0.69,0.35-0.72,0.68      C48.66,29.23,52.22,25.31,51.96,25.3z"/>
				<path class="st2" d="M45.96,18.41c-0.82-0.05-1.66,0.15-2.37,0.57c-0.29,0.17-0.69,0.35-0.72,0.68      C42.65,22.35,46.22,18.43,45.96,18.41z"/>
				<path class="st2" d="M36.99,19.03c-0.82-0.05-1.66,0.15-2.37,0.57c-0.29,0.17-0.69,0.35-0.72,0.68      C33.68,22.96,37.25,19.05,36.99,19.03z"/>
				<path class="st2" d="M21.8,17.31c-0.82-0.05-1.66,0.15-2.37,0.57c-0.29,0.17-0.69,0.35-0.72,0.68      C18.49,21.25,22.06,17.33,21.8,17.31z"/>
				<path class="st2" d="M29.27,21.96c-0.82-0.05-1.66,0.15-2.37,0.57c-0.29,0.17-0.69,0.35-0.72,0.68      C25.97,25.89,29.53,21.97,29.27,21.96z"/>
				<path class="st2" d="M29.78,13.18c-0.82-0.05-1.66,0.15-2.37,0.57c-0.29,0.17-0.69,0.35-0.72,0.68      C26.48,17.12,30.04,13.2,29.78,13.18z"/>
				<path class="st2" d="M40.44,13.13c-0.82-0.05-1.66,0.15-2.37,0.57c-0.29,0.17-0.69,0.35-0.72,0.68      C37.13,17.07,40.7,13.15,40.44,13.13z"/>
			</g>
			<g class="st1">
				<path d="M64.76,29.49c-7.83,3.02-15.96,4.56-24.19,4.56c-9.76,0-19.97-2.17-30.34-6.43c0.07-0.25,0.15-0.5,0.24-0.75      c9.39,3.54,18.62,5.33,27.5,5.33c5.03,0,10.03-0.58,14.94-1.71c6.09-1.41,8.55-8.83,4.44-13.55c-0.65-0.74-1.34-1.43-2.09-2.06      C60.42,17.88,64.05,23.53,64.76,29.49z"/>
			</g>
			<g class="st1">
				<path class="st2" d="M64.85,23.99c-0.38-0.09-0.78-0.16-1.18-0.24c-4.66-0.83-9.85-0.78-13.68,2c-1.32,0.96-2.49,2.23-4.04,2.68      c-1.11,0.31-2.28,0.18-3.42,0.04c-4.32-0.52-9.1-0.78-12.63,1.78c-0.98,0.72-1.86,1.66-3.05,1.91      c-1.33,0.28-2.65-0.36-3.92-0.83c-2.84-1.05-5.96-1.26-8.93-0.68c-1.83-0.65-3.67-1.38-5.52-2.16      c1.49-6.11,4.62-12.1,9.84-15.58c4.42-2.94,9.9-3.83,15.19-3.92c4.38-0.07,8.77,0.33,13.06,1.23c3.25,0.67,6.48,1.64,9.35,3.3      C59.95,15.87,63.11,19.65,64.85,23.99z"/>
			</g>
			<g class="st1">
				<path class="st2" d="M57.24,14.36c-3.18,1.46-6.42,2.93-9.88,2.77c-2.44-0.1-4.76-1.02-7.16-1.51c-2.4-0.47-5.09-0.47-7.01,1.04      c-1.66,1.3-2.49,3.54-4.33,4.56c-1.82,1.01-4.05,0.53-6.09,0.19c-3.96-0.62-8.11-0.61-11.88,0.8c-0.09,0.03-0.18,0.07-0.27,0.1      c1.76-3.76,4.28-7.12,7.69-9.39c4.42-2.94,9.9-3.83,15.19-3.92c4.38-0.07,8.77,0.33,13.06,1.23c3.25,0.67,6.48,1.64,9.35,3.3      C56.37,13.78,56.81,14.06,57.24,14.36z"/>
			</g>
		</g>
	</g>
</g>
</svg>
