<svg id="flat" height="512" viewBox="0 0 512 512" width="512" xmlns="http://www.w3.org/2000/svg"><path d="m256 503.818c-192 0-192-151.818-192-151.818v-52h384v52s-7.111 151.818-192 151.818z" fill="#eaaa1b"/><g opacity=".2"><path d="m287.43 502.23a299.566 299.566 0 0 1 -31.43 1.59c-192 0-192-151.82-192-151.82v-52h64v52s0 134.12 159.43 150.23z" fill="#fcfcfc"/></g><path d="m192 72h320v16h-320z" fill="#efc335"/><path d="m190.525 21.5h314.949v16h-314.949z" fill="#efc335" transform="matrix(.991 -.136 .136 .991 -.77 47.768)"/><path d="m216 72v80a16 16 0 0 0 16 16h24a16 16 0 0 0 16-16 16 16 0 0 1 16-16 16 16 0 0 0 16-16v-48z" fill="#ea9378"/><g fill="#e0dfde"><path d="m176 200h-16v-24a8.009 8.009 0 0 0 -8-8 24.027 24.027 0 0 1 -24-24v-32h16v32a8.009 8.009 0 0 0 8 8 24.027 24.027 0 0 1 24 24z"/><path d="m136 232h-16v-24a8.009 8.009 0 0 0 -8-8 24.027 24.027 0 0 1 -24-24v-32h16v32a8.009 8.009 0 0 0 8 8 24.027 24.027 0 0 1 24 24z"/><path d="m352 200h-16v-24a24.027 24.027 0 0 1 24-24 8.009 8.009 0 0 0 8-8v-32h16v32a24.027 24.027 0 0 1 -24 24 8.009 8.009 0 0 0 -8 8z"/><path d="m392 232h-16v-24a24.027 24.027 0 0 1 24-24 8.009 8.009 0 0 0 8-8v-32h16v32a24.027 24.027 0 0 1 -24 24 8.009 8.009 0 0 0 -8 8z"/><path d="m128 72h16v16h-16z"/><path d="m88 24h16v16h-16z"/><path d="m408 104h16v16h-16z"/></g><path d="m254.822 99.676a86.817 86.817 0 0 0 1.257-27.676h-16.173l.2 1.294a70.065 70.065 0 0 1 -1.027 23.484c-3.206 14.422-10.97 24.649-23.079 30.476v17.5l3.116-1.385c18.863-7.596 31.208-22.702 35.706-43.693z" fill="#dd6c4e"/><path d="m287.795 73.8.415-1.8h-16.487c-2.922 10.7-18.259 63.091-45.239 90.2-.765.692-1.951 1.792-3.315 3.136a15.918 15.918 0 0 0 8.831 2.664h10.9c29.653-34.273 44.221-91.505 44.859-94.06.013-.047.025-.094.036-.14z" fill="#dd6c4e"/><path d="m72 336h-64a8 8 0 0 1 -8-8v-48a8 8 0 0 1 8-8h73a8 8 0 0 1 0 16h-65v32h56a8 8 0 0 1 0 16z" fill="#eaaa1b"/><path d="m504 336h-64a8 8 0 0 1 0-16h56v-32h-72a8 8 0 0 1 0-16h80a8 8 0 0 1 8 8v48a8 8 0 0 1 -8 8z" fill="#eaaa1b"/><path d="m64 300c0 50.81 85.961 92 192 92a393.4 393.4 0 0 0 46.687-2.745l-85.773-179.345c-87.295 8.651-152.914 45.698-152.914 90.09z" fill="#f23f00"/><path d="m448 300c0-50.81-85.961-92-192-92-13.394 0-26.466.659-39.086 1.91l85.774 179.345c83.473-9.993 145.312-46.161 145.312-89.255z" fill="#a55f13"/><path d="m200 280h-16a16 16 0 0 0 -32 0h-16a32 32 0 0 1 64 0z" fill="#79c143"/><path d="m336 272h-16a16 16 0 0 0 -32 0h-16a32 32 0 0 1 64 0z" fill="#79c143"/><path d="m176 328h-16a16 16 0 0 0 -32 0h-16a32 32 0 0 1 64 0z" fill="#ea9378"/><path d="m408 312h-16a16 16 0 0 0 -32 0h-16a32 32 0 0 1 64 0z" fill="#ea9378"/><path d="m256 352h-16a16 16 0 0 0 -32 0h-16a32 32 0 0 1 64 0z" fill="#eab624"/><path d="m360 352h-16a16 16 0 0 0 -32 0h-16a32 32 0 0 1 64 0z" fill="#eab624"/><path d="m208 288h16v16h-16z" fill="#eab624"/><path d="m256 224h16v16h-16z" fill="#eab624"/><path d="m296 288h16v16h-16z" fill="#eab624"/><path d="m96 272h16v16h-16z" fill="#eab624"/><path d="m352 248h16v16h-16z" fill="#eab624"/><path d="m376 328h16v16h-16z" fill="#79c143"/><path d="m152 344h16v16h-16z" fill="#79c143"/><g opacity=".2"><path d="m447.46 293.075c-7.388-47.575-90.283-85.075-191.46-85.075-13.394 0-26.466.659-39.086 1.91-87.295 8.651-152.914 45.698-152.914 90.09a45.034 45.034 0 0 0 .363 5.593c42.522-35.265 116.269-58.593 200.137-58.593 73.492 0 139.21 17.915 182.96 46.075z" fill="#fcfcfc"/></g></svg>