<svg id="svg8" height="512" viewBox="0 0 16.933333 16.933333" width="512" xmlns="http://www.w3.org/2000/svg" xmlns:svg="http://www.w3.org/2000/svg"><g id="layer2"><path id="path6529" d="m2.38123 15.08724v-8.47266c0-1.85208 1.32292-2.64583 1.32292-5.82083h9.525c0 3.175 1.322912 3.96875 1.322912 5.82083v8.46667z" fill="#ff9751"/><path id="rect6714" d="m7.5406 14.02292c-.36644 0-.66145.29501-.66145.66145v.40101l1.32291-.001v-.39998c0-.36644-.29501-.66145-.66146-.66145z" fill="#ff7f29"/><path id="rect6540" d="m7.4083156 1.8520808h2.1166669c.2931583 0 .5291665.2360083.5291665.5291667 0 .2931583-.2360082.5291666-.5291665.5291666h-2.1166669c-.2931583 0-.5291666-.2360083-.5291666-.5291666 0-.2931584.2360083-.5291667.5291666-.5291667z" fill="#e4eff8"/><path id="path6538" d="m2.38123 15.08125v-8.46667c0-1.85208 1.32292-2.64583 1.32292-5.82083h.52916c0 3.175-1.32291 3.96875-1.32291 5.82083v8.46667z" fill="#f8f8f8"/><path id="path6651" d="m1.92131 13.15682.90485.90485c-.25888.0896-.44493.33258-.44493.6227v.7581l-.0109.0243c-.0262-.0194-.0512-.0413-.0749-.0651l-1.30948-1.30949c-.25912-.25911-.25912-.67622 0-.93534.12955-.12956.29859-.1943.46768-.19431s.33812.06469.46768.19429z" fill="#ffc6a0"/><path id="rect6653" d="m3.0426903 14.022919c.3664479 0 .6614584.29501.6614584.661458v.79375c0 .366448-.2950105.661458-.6614584.661458s-.6614583-.29501-.6614583-.661458v-.79375c0-.366448.2950104-.661458.6614583-.661458z" fill="#ffc6a0"/><path id="path6655" d="m3.1749855 15.478121c0 .272107-.163084.504375-.396875.606164.08106.03529.170243.05529.264583.05529.366448 0 .661458-.29501.661458-.661458v-.79375c0-.366448-.29501-.661459-.661458-.661455-.09434.000004-.183527.02-.264583.05529.233791.101792.396875.334059.396875.606168z" fill="#ffaf7a"/><path id="path6657" d="m2.3812355 15.478125c0 .366448.29501.661458.661458.661458.06847 0 .132914-.0138.19482-.03307-.2689-.08391-.464571-.331134-.464571-.628385v-.79375c0-.297252.195671-.544477.464571-.628386-.06191-.01927-.126346-.03307-.19482-.03307-.366448-.000003-.661458.295008-.661458.661454z" fill="#f8f8f8"/><path id="path6661" d="m2.78276 14.08082c-.23552.10085-.40153.33031-.40153.60358v.75809l-.0109.0243c-.0262-.0194-.0512-.0413-.0749-.0651l-.44339-.44339v-.27389c0-.36644.29501-.66145.66147-.66147.09621-.00002.18691.02118.26925.05788z" fill="#ffaf7a"/><path id="path6665" d="m1.40766 13.80691.97358.97358v.66198l-.0109.0243c-.0262-.0194-.0512-.0413-.0749-.0651l-1.30948-1.30949c-.25912-.25911-.25912-.67622 0-.93534.0957-.0957.21304-.15586.335895-.18088-.169605.2569-.140765.60439.085805.83095z" fill="#ffaf7a"/><path id="path6663" d="m1.92131 13.15682.90485.90485c-.14185.0491-.26002.14552-.33951.26924l-.89245-.89245c-.12956-.12957-.29859-.19431-.46767-.19431-.0818 0-.16399.0151-.24133.0455.0279-.0471.0602-.0923.10077-.13281.12956-.12955.29859-.19429.46767-.194305s.33811.06468.46767.194285z" fill="#f8f8f8"/><path id="rect6667" d="m-4.3656093 14.022919c.3664479 0 .6614583.29501.6614583.661458v.79375c0 .366448-.2950104.661458-.6614583.661458-.366448 0-.6614584-.29501-.6614584-.661458v-.79375c0-.366448.2950104-.661458.6614584-.661458z" fill="#ffc6a0" transform="scale(-1 1)"/><path id="path6669" d="m4.4978955 15.478121c0 .272107-.163084.504375-.396875.606164.08106.03529.170243.05529.264583.05529.366448 0 .661458-.29501.661458-.661458v-.79375c0-.366448-.29501-.661459-.661458-.661455-.09434.000004-.183527.02-.264583.05529.233791.101792.396875.334059.396875.606168z" fill="#ffaf7a"/><path id="path6671" d="m3.7041455 15.478125c0 .366448.29501.661458.661458.661458.06847 0 .132914-.0138.19482-.03307-.2689-.08391-.464571-.331134-.464571-.628385v-.79375c0-.297252.195671-.544477.464571-.628386-.06191-.01927-.126346-.03307-.19482-.03307-.366448-.000003-.661458.295008-.661458.661454z" fill="#f8f8f8"/><path id="rect6675" d="m5.688526 14.022919c.3664479 0 .6614583.29501.6614583.661458v.79375c0 .366448-.2950104.661458-.6614583.661458s-.6614583-.29501-.6614583-.661458v-.79375c0-.366448.2950104-.661458.6614583-.661458z" fill="#ffc6a0"/><path id="path6677" d="m5.8208155 15.478121c0 .272107-.163084.504375-.396875.606164.08106.03529.170243.05529.264583.05529.366448 0 .661458-.29501.661458-.661458v-.79375c0-.366448-.29501-.661459-.661458-.661455-.09434.000004-.183527.02-.264583.05529.233791.101792.396875.334059.396875.606168z" fill="#ffaf7a"/><path id="path6679" d="m5.0270655 15.478125c0 .366448.29501.661458.661458.661458.06847 0 .132914-.0138.19482-.03307-.2689-.08391-.464571-.331134-.464571-.628385v-.79375c0-.297252.195671-.544477.464571-.628386-.06191-.01927-.126346-.03307-.19482-.03307-.366448-.000003-.661458.295008-.661458.661454z" fill="#f8f8f8"/><path id="rect6683" d="m7.0114401 14.022919c.3664479 0 .6614583.29501.6614583.661458v.79375c0 .366448-.2950104.661458-.6614583.661458s-.6614583-.29501-.6614583-.661458v-.79375c0-.366448.2950104-.661458.6614583-.661458z" fill="#ffc6a0"/><path id="path6685" d="m7.1437345 15.47812c0 .272107-.1630836.504375-.396875.606164.081056.03529.170243.05529.2645834.05529.3664479 0 .6614583-.29501.6614583-.661458v-.79375c0-.366448-.2950104-.661459-.6614583-.661455-.09434.000004-.1835275.02-.2645834.05529.2337914.101792.396875.334059.396875.606168z" fill="#ffaf7a"/><path id="path6687" d="m6.3499845 15.478124c0 .366448.2950105.661458.6614584.661458.068474 0 .1329145-.0138.1948201-.03307-.2689-.08391-.464571-.331134-.464571-.628385v-.79375c0-.297252.195671-.544477.464571-.628386-.061906-.01927-.1263462-.03307-.1948201-.03307-.3664479-.000003-.6614584.295008-.6614584.661454z" fill="#f8f8f8"/><path id="path6533" d="m14.552063 15.08125v-8.46667c0-1.85208-1.322913-2.64583-1.322913-5.82083h-.52917c0 3.175 1.32292 3.96875 1.32292 5.82083v8.46667z" fill="#ff7f29"/><path id="rect6544" d="m7.40831 1.85208c-.29316 0-.52916.23601-.52916.52917s.236.52917.52916.52917c0-.29316.23601-.52917.52917-.52917h2.11667c0-.29316-.23601-.52917-.52917-.52917z" fill="#c4dcf0"/><path id="path6520" d="m5.02706 11.37708v.52917c0 .58632.47202 1.05833 1.05834 1.05833h4.7625c.58631 0 1.05833-.47201 1.05833-1.05833v-.52917z" fill="#ffc6a0"/><path id="path6511" d="m5.02706 8.99583c0-1.75895 1.41605-3.175 3.175-3.175h.52917c1.75895 0 3.175 1.41605 3.175 3.175z" fill="#ffc6a0"/><path id="rect6502" d="m5.2916469 8.9958344h6.3500001c.293158 0 .529167.2360083.529167.5291666s-.236009.529167-.529167.529167h-6.3500001c-.2931583 0-.5291666-.2360087-.5291666-.529167s.2360083-.5291666.5291666-.5291666z" fill="#e4eff8"/><path id="path6485" d="m9.41159 11.37708h-4.11994c-.29316 0-.52917-.23601-.52917-.52916v-.26459c0-.29316.23601-.52916.52917-.52916h6.35c.29316 0 .52916.236.52916.52916v.26459c0 .29315-.236.52916-.52916.52916h-1.47411" fill="#ff9751"/><path id="path6492" d="m8.99581 10.05417.94517 1.32291h.22634.52916l.94517-1.32291z" fill="#ff7f29"/><path id="path6489" d="m11.11248 10.05417c.29316 0 .52917.23601.52917.52916v.26459c0 .29315-.23601.52916-.52917.52916h.52917c.29316 0 .52916-.23601.52916-.52916v-.26459c0-.29315-.236-.52916-.52916-.52916z" fill="#ff7f29"/><path id="path6524" d="m11.37706 11.37708v.52917c0 .58632-.47202 1.05833-1.05833 1.05833h.52917c.58631 0 1.05833-.47201 1.05833-1.05833v-.52917z" fill="#ffaf7a"/><path id="path6527" d="m5.55623 11.37708v.52917c0 .58632.47202 1.05833 1.05833 1.05833h-.52916c-.58631 0-1.05834-.47201-1.05834-1.05833v-.52917z" fill="#f8f8f8"/><path id="path6499" d="m5.29165 10.05417c-.29316 0-.52917.23601-.52917.52916v.26459c0 .29315.23601.52916.52917.52916h.52916c-.29316 0-.52916-.23601-.52916-.52916v-.26459c0-.29315.236-.52916.52916-.52916z" fill="#f8f8f8"/><path id="path6471" d="m8.46665 10.05417 1.32291 1.85208 1.32292-1.85208z" fill="#ffc6a0"/><path id="path6475" d="m10.58331 10.05417-1.05833 1.48156.26458.37052 1.32292-1.85208z" fill="#ffaf7a"/><path id="path6481" d="m8.46665 10.05417 1.32291 1.85208.26459-.37052-1.05834-1.48156z" fill="#f8f8f8"/><path id="rect6506" d="m11.11248 8.99583c.29316 0 .52917.23601.52917.52917s-.23601.52917-.52917.52917h.52917c.29315 0 .52916-.23601.52916-.52917s-.23601-.52917-.52916-.52917z" fill="#c4dcf0"/><path id="path6509" d="m5.82081 8.99583c-.29316 0-.52916.23601-.52916.52917s.236.52917.52916.52917h-.52916c-.29316 0-.52917-.23601-.52917-.52917s.23601-.52917.52917-.52917z" fill="#f8f8f8"/><path id="path6515" d="m8.20206 5.82083c1.75895 0 3.175 1.41605 3.175 3.175h.52917c0-1.75895-1.41605-3.175-3.175-3.175z" fill="#ffaf7a"/><path id="path6518" d="m8.73123 5.82083c-1.75895 0-3.175 1.41605-3.175 3.175h-.52917c0-1.75895 1.41605-3.175 3.175-3.175z" fill="#f8f8f8"/><path id="path6588" d="m15.011983 13.15682-.904853.90485c.25888.0896.444933.33258.444933.6227v.7581l.01085.0243c.02618-.0194.05117-.0414.07493-.0651l1.309481-1.30948c.259118-.25911.259118-.67622 0-.93534-.129559-.12956-.29859-.1943-.467671-.194315-.169079-.000015-.338111.06468-.46767.194285z" fill="#ffc6a0"/><path id="rect6547" d="m-13.890604 14.022919c.366448 0 .661459.29501.661459.661458v.79375c0 .366448-.295011.661458-.661459.661458s-.661458-.29501-.661458-.661458v-.79375c0-.366448.29501-.661458.661458-.661458z" fill="#ffc6a0" transform="scale(-1 1)"/><path id="path6582" d="m14.0229 15.47813c0 .27211-.16309.50438-.39688.60616.0811.0353.17024.0553.26458.0553.36645 0 .661461-.29501.661461-.66145v-.79375c0-.36645-.295011-.66146-.661461-.661465-.0943-.000005-.18352.01999-.26458.05529.23379.101793.39688.334053.39688.606164z" fill="#ffaf7a"/><path id="path6584" d="m13.22915 14.68437v.79375c0 .36645.29501.66146.66145.66146.0685 0 .13292-.0138.19482-.0331-.2689-.0839-.46457-.33113-.46457-.62838v-.79375c0-.29725.19567-.54448.46457-.62839-.0619-.0193-.12634-.0331-.19482-.03307-.36644.00003-.66145.29504-.66145.66148z" fill="#f8f8f8"/><path id="rect6598" d="m14.15054 14.08082c.23551.10086.401523.33032.401523.60358v.7581l.01085.0243c.02618-.0194.05117-.0414.07493-.0651l.443383-.44338v-.27389c0-.36644-.295011-.66145-.661456-.66148-.0962-.00003-.1869.02117-.26923.05787z" fill="#ffaf7a"/><path id="path6605" d="m15.52565 13.80691-.973584.97358v.66198l.01085.0243c.02618-.0194.05117-.0414.07493-.0651l1.309481-1.30948c.259118-.25911.259118-.67622 0-.93534-.09568-.0957-.213044-.15586-.335897-.180885.169612.256895.140772.604395-.08578.830945z" fill="#ffaf7a"/><path id="path6595" d="m15.011983 13.15682-.904853.90485c.14185.0491.26002.14552.339513.26924l.892452-.89245c.129559-.12957.298591-.19431.467672-.19431.08184 0 .163985.0151.241329.0455-.02786-.0471-.06021-.0923-.100769-.13281-.129559-.12956-.29859-.1943-.467672-.19431-.169081-.00001-.338113.06469-.467672.19429z" fill="#f8f8f8"/><path id="rect6549" d="m-12.56769 14.022919c.366448 0 .661459.29501.661459.661458v.79375c0 .366448-.295011.661458-.661459.661458s-.661458-.29501-.661458-.661458v-.79375c0-.366448.29501-.661458.661458-.661458z" fill="#ffc6a0" transform="scale(-1 1)"/><path id="path6576" d="m12.69997 15.47813c0 .27211-.16308.50438-.39687.60616.0811.0353.17024.0553.26458.0553.36645 0 .66146-.29501.66146-.66145v-.79375c0-.36645-.29501-.66146-.66146-.661465-.0943-.000005-.18352.01999-.26458.05529.23379.101793.39687.334053.39687.606164z" fill="#ffaf7a"/><path id="path6578" d="m11.90622 14.68437v.79375c0 .36645.29501.66146.66146.66146.0685 0 .13292-.0138.19482-.0331-.2689-.0839-.46457-.33113-.46457-.62838v-.79375c0-.29725.19567-.54448.46457-.62839-.0619-.0193-.12634-.0331-.19482-.03307-.36645.00003-.66146.29504-.66146.66148z" fill="#f8f8f8"/><path id="rect6551" d="m-11.244775 14.022919c.366447 0 .661458.29501.661458.661458v.79375c0 .366448-.295011.661458-.661458.661458-.366448 0-.661459-.29501-.661459-.661458v-.79375c0-.366448.295011-.661458.661459-.661458z" fill="#ffc6a0" transform="scale(-1 1)"/><path id="path6568" d="m11.37707 15.47813c0 .27211-.16309.50438-.39688.60616.0811.0353.17024.0553.26458.0553.36645 0 .66146-.29501.66146-.66145v-.79375c0-.36645-.29501-.66146-.66146-.661465-.0943-.000005-.18352.01999-.26458.05529.23379.101793.39688.334053.39688.606164z" fill="#ffaf7a"/><path id="path6570" d="m10.58331 14.68437v.79375c0 .36645.29502.66146.66146.66146.0685 0 .13292-.0138.19482-.0331-.2689-.0839-.46457-.33113-.46457-.62838v-.79375c0-.29725.19567-.54448.46457-.62839-.0619-.0193-.12634-.0331-.19482-.03307-.36644.00003-.66146.29504-.66146.66148z" fill="#f8f8f8"/><path id="rect6553" d="m-9.9218537 14.022919c.3664479 0 .6614583.29501.6614583.661458v.79375c0 .366448-.2950104.661458-.6614583.661458-.3664483 0-.6614583-.29501-.6614583-.661458v-.79375c0-.366448.29501-.661458.6614583-.661458z" fill="#ffc6a0" transform="scale(-1 1)"/><path id="rect6557" d="m9.65727 14.07822c.23379.10179.39688.33406.39688.60616v.79375c0 .27211-.16309.50438-.39688.60617.0811.0353.17024.0553.26458.0553.36645 0 .66146-.29501.66146-.66146v-.79375c0-.36644-.29501-.66145-.66146-.66146-.0943-.00001-.18352.01999-.26458.05529z" fill="#ffaf7a"/><path id="rect6562" d="m9.2604 14.68437v.79375c0 .36645.29501.66146.66145.66146.0685 0 .13292-.0138.19482-.0331-.2689-.0839-.46457-.33113-.46457-.62839v-.79375c0-.29725.19567-.54447.46457-.62838-.0619-.0193-.12634-.0331-.19482-.03307-.36644.00003-.66145.29504-.66145.66148z" fill="#f8f8f8"/><path id="rect4294" d="m3.7042374.52916866c-.1461693-.000561-.2656184.11737899-.2661386.26354999 0 1.55075195-.3161282 2.49331275-.6423465 3.30884085-.3262182.8155289-.6795562 1.5245049-.6795562 2.5135418v6.3629187c-.1617893-.164218-.3832381-.276927-.6614766-.280086-.2368887-.000265-.47417734.0897-.65578639.271301-.369908.36991-.34971811.960803.00051064 1.311031l1.25266325 1.252637c.0242.02419.0488.05166.0729.07131.0594.451791.4451376.799951.9172751.799951.2599984 0 .493707-.106136.6614763-.277502.167769.171366.4014679.277502.6614665.277502.2600086 0 .4937071-.106136.6614764-.277502.167769.171366.4014679.277502.6614765.277502.2599986 0 .4936974-.106136.6614664-.277502.167769.171366.4014779.277502.6614765.277502.5136272 0 .9260549-.416557.9260549-.925008v-.133322h1.0583644v.133325c0 .508451.4124276.925008.9260549.925008.2599981 0 .4937071-.106136.6614761-.277502.167769.171366.401468.277502.661466.277502.260009 0 .493708-.106136.661477-.277502.167769.171366.401468.277502.661476.277502.259999 0 .493698-.106136.661467-.277502.167769.171366.401478.277502.661476.277502.472138 0 .857896-.34816.917275-.799951.0241-.01965.0487-.04712.0729-.07131l1.252663-1.252637c.359538-.359529.362668-.948872.000529-1.311031-.181609-.181592-.418898-.271576-.655786-.271301-.236889.000264-.474478.09309-.654247.272851l-.008.0078v-6.3634867c0-.9890369-.353338-1.6980129-.679557-2.5135418-.326187-.8155281-.642316-1.7580889-.642316-3.30884085-.00052-.146171-.119449-.26411199-.265628-.26354999zm.2599385.52968294h9.0037811c.0252 1.254109.272699 2.1533729.553977 2.9098998h-10.1117349c.2812884-.7565269.5287572-1.6557908.5539768-2.9098998zm3.4437916.52865c-.4351677-.00008-.7937656.349804-.7937656.793233s.3585979.7941329.7937656.7942668c.7055762.0008731 1.4111426.0004498 2.1167187 0 .4351676-.0001339.7937648-.3508378.7937648-.7942668s-.3585972-.793313-.7937648-.793233c-.7055761.0008705-1.4111425.0004604-2.1167187 0zm0 .529167c.7055762.0008705 1.4111426.0004604 2.1167187 0 .1511591-.000028.2645886.121175.2645886.264066 0 .142892-.1134295.265054-.2645886.2651-.7055761.0008731-1.4111425.0004498-2.1167187 0-.1511591-.000046-.2645885-.122208-.2645885-.2651 0-.142891.1134294-.264094.2645885-.264066zm-4.2013774 2.3812499h10.5189629c.307388.7503589.561217 1.3253899.561217 2.1171828v6.8926017l-.260978.260966c-.0436-.0063-.09-.01033-.13539-.01033-.259998 0-.493707.106136-.661476.277502-.167769-.171366-.401468-.277502-.661467-.277502-.260008 0-.493707.106136-.661476.277502-.167769-.171366-.401468-.277502-.661477-.277502-.259998 0-.493697.106136-.661466.277502-.167769-.171366-.401478-.277502-.6614759-.277502-.5136273 0-.9260552.416557-.9260552.925008v.133325h-1.0583641v-.133325c0-.508451-.4124279-.925008-.9260552-.925008-.2599986 0-.4937072.106136-.6614765.277502-.167769-.171366-.4014676-.277502-.6614664-.277502-.2600086 0-.4937072.106136-.6614765.277502-.167769-.171366-.4014675-.277502-.6614762-.277502-.2599988 0-.4936974.106136-.6614667.277502-.167769-.171366-.4014776-.277502-.6614763-.277502-.0454 0-.0918.004-.1353892.01033l-.2614887-.261482v-6.8920857c0-.7917929.2538187-1.3668239.561217-2.1171828zm4.9941132 1.05885c-1.88601 0-3.4051017 1.5032458-3.4386215 3.3749867-.1601391.1444249-.2645886.354878-.2645886.5922129 0 .205822.0752.3896.2015389.5296829-.1269194.141379-.2015389.326537-.2015389.5302v.26355c0 .233443.099699.445733.2645886.591695v.467155c0 .72832.5863568 1.323089 1.323463 1.322916 1.5871913-.000873 3.1743727-.000424 4.7615642 0 .737106.000173 1.323462-.594596 1.323462-1.322916v-.466638c.16192-.140808.264589-.358551.264589-.592212v-.26355c0-.20378-.0745-.388792-.201539-.5302.126309-.1400829.201539-.3238609.201539-.5296829 0-.2377448-.101889-.4462169-.264589-.5906619-.0338-1.871501-1.549681-3.3765377-3.4396507-3.3765377zm0 .5291658h.530217c1.5233427 0 2.7632847 1.154294 2.8970337 2.6448-.720446.0008732-5.605049.0004498-6.3248051 0 .1336891-1.490506 1.3800525-2.6448 2.8975544-2.6448zm3.4406907 3.1744961c.15116-.000028.264589.120659.264589.2635501 0 .1428909-.113429.265053-.264589.2651001-.705566.0008731-5.6445689.0004498-6.350135 0-.1511594-.0000471-.2645888-.1222092-.2645888-.2651001 0-.1428911.1134294-.2640951.2645888-.2640732.7055661.0008671 5.644569.0009729 6.350135.0005231zm-2.7430446 1.8531036-3.6076106-.001c-.1429191-.000065-.2635484-.113984-.2635484-.265138v-.263551c0-.151153.1206594-.265074.2635484-.265099.977045-.000318 2.2007884-.000503 3.0401938-.000521zm.08165-.7953c.5269673-.000068 1.0448746.000252 1.6175106.000529l-.8087548 1.13223zm2.2681266.000529h.394298c.1429.000025.263559.113946.263559.2651v.26355c0 .151154-.120629.26503-.263559.2651l-.961715.000529zm-5.9568667 1.322916 3.9843384.001.2981785.418063c.1055696.147096.3243883.147096.4299568 0l.298699-.418061 1.338962-.001v.264584c0 .444312-.355798.793874-.794285.79375-1.5882212-.0017-3.1733425-.000424-4.7615639 0-.4384877.000122-.7942858-.34944-.7942858-.793752zm-3.8401595 1.584904c.1013196-.000953.2043589.03899.2837085.11834l.6681964.668176c-.1773589.168869-.2868083.407472-.2868083.670243v.165365l-.9426054-.942578c-.1587191-.158707-.1526491-.410628-.0005106-.562757.0761-.07607.1766991-.115837.2780194-.116789zm14.0304542 0c.101319.000952.201959.04073.278018.116789.152139.152129.158209.40405-.000529.562757l-.942586.942578v-.165365c0-.262771-.109459-.501374-.286808-.670243l.668196-.668176c.0794-.07935.182389-.119291.283709-.11834zm-12.439303 1.060918c.2151489 0 .3968879.171395.3968879.395841v.795817c0 .224446-.181739.395842-.3968879.395842-.2151488 0-.3968779-.171396-.3968779-.395842v-.795817c0-.224446.1817291-.395841.3968779-.395841zm1.322943 0c.2151488 0 .3968878.171395.3968878.395841v.795817c0 .224446-.181739.395842-.3968878.395842-.2151389 0-.3968779-.171396-.3968779-.395842v-.795817c0-.224446.181739-.395841.3968779-.395841zm1.3229527 0c.2151389 0 .3968779.171395.3968779.395841v.795817c0 .224446-.181739.395842-.3968779.395842-.2151488 0-.3968877-.171396-.3968877-.395842v-.795817c0-.224446.1817389-.395841.3968877-.395841zm1.3229429 0c.215149 0 .3968779.171395.3968779.395841v.795817c0 .224446-.1817289.395842-.3968779.395842-.2151488 0-.3968877-.171396-.3968877-.395842v-.795817c0-.224446.1817389-.395841.3968877-.395841zm2.9104745 0c.2151479 0 .3968869.171395.3968869.395841v.795817c0 .224446-.181739.395842-.3968869.395842-.215149 0-.3968779-.171396-.3968779-.395842v-.795817c0-.224446.1817289-.395841.3968779-.395841zm1.3229419 0c.215149 0 .396888.171395.396888.395841v.795817c0 .224446-.181739.395842-.396888.395842-.215148 0-.396877-.171396-.396877-.395842v-.795817c0-.224446.181729-.395841.396877-.395841zm1.322953 0c.215139 0 .396878.171395.396878.395841v.795817c0 .224446-.181739.395842-.396878.395842-.215149 0-.396888-.171396-.396888-.395842v-.795817c0-.224446.181739-.395841.396888-.395841zm1.322943 0c.215149 0 .396878.171395.396878.395841v.795817c0 .224446-.181729.395842-.396878.395842s-.396888-.171396-.396888-.395842v-.795817c0-.224446.181739-.395841.396888-.395841z" fill="#333" font-variant-ligatures="normal" font-variant-position="normal" font-variant-caps="normal" font-variant-numeric="normal" font-variant-alternates="normal" font-feature-settings="normal" text-indent="0" text-align="start" text-decoration-line="none" text-decoration-style="solid" text-decoration-color="#000000" text-transform="none" text-orientation="mixed" white-space="normal" shape-padding="0" isolation="auto" mix-blend-mode="normal" solid-color="#000000" solid-opacity="1" vector-effect="none"/></g></svg>