<svg id="Layer_1" enable-background="new 0 0 464 464" height="512" viewBox="0 0 464 464" width="512" xmlns="http://www.w3.org/2000/svg"><path d="m452.72 200.01c15.04 18.67 15.04 45.31 0 63.98l-13.18 16.36c-7.85 9.74-11.84 22.03-11.22 34.53l1.05 20.97c1.19 23.95-14.46 45.5-37.61 51.77l-20.27 5.48c-12.08 3.27-22.53 10.87-29.38 21.35l-11.48 17.58c-13.11 20.08-38.44 28.31-60.85 19.77l-19.62-7.48c-11.7-4.45-24.62-4.45-36.32 0l-19.62 7.48c-22.41 8.54-47.74.31-60.85-19.77l-11.48-17.58c-6.85-10.48-17.3-18.08-29.38-21.35l-20.27-5.48c-23.15-6.27-38.8-27.82-37.61-51.77l1.05-20.97c.62-12.5-3.37-24.79-11.22-34.53l-13.18-16.36c-15.04-18.67-15.04-45.31 0-63.98l13.18-16.36c7.85-9.74 11.84-22.03 11.22-34.53l-1.05-20.97c-1.19-23.95 14.46-45.5 37.61-51.77l20.27-5.48c12.08-3.27 22.53-10.87 29.38-21.35l11.48-17.58c13.11-20.08 38.44-28.31 60.85-19.77l19.62 7.48c11.7 4.45 24.62 4.45 36.32 0l19.62-7.48c22.41-8.54 47.74-.31 60.85 19.77l11.48 17.58c6.85 10.48 17.3 18.08 29.38 21.35l20.27 5.48c23.15 6.27 38.8 27.82 37.61 51.77l-1.05 20.97c-.62 12.5 3.37 24.79 11.22 34.53z" fill="#ff8c95"/><path d="m452.72 263.99-13.18 16.36c-7.85 9.74-11.84 22.03-11.22 34.53l1.05 20.97c1.19 23.95-14.46 45.5-37.61 51.77l-20.27 5.48c-12.08 3.27-22.53 10.87-29.38 21.35l-11.48 17.58c-13.11 20.08-38.44 28.31-60.85 19.77l-19.62-7.48c-11.7-4.45-24.62-4.45-36.32 0l-19.62 7.48c-22.41 8.54-47.74.31-60.85-19.77l-11.48-17.58c-6.85-10.48-17.3-18.08-29.38-21.35l-20.27-5.48c-11.303-3.064-20.817-9.768-27.455-18.615-6.007-8.005 2.024-18.917 11.562-15.884 162.619 51.713 332.33-55.076 352.46-226.954 1.54-13.146 21.116-11.74 20.585 1.484-.017.419-1.051 21.051-1.072 21.469-.62 12.5 3.37 24.79 11.22 34.53l13.18 16.36c15.04 18.67 15.04 45.31 0 63.98z" fill="#ff6d7a"/><circle cx="232" cy="232" fill="#e3f7fc" r="161"/><path d="m232 393c-32.68 0-63.22-9.95-88.73-26.96 108.744-1.378 204.872-66.228 246.41-166.42 20.676 99.396-56.614 193.38-157.68 193.38z" fill="#caf1fc"/><g fill="#585966"><path d="m171.713 292.287c-3.124-3.125-3.124-8.189 0-11.314l102.43-102.43c3.125-3.123 8.189-3.123 11.314 0 3.124 3.125 3.124 8.189 0 11.314l-102.43 102.43c-3.126 3.124-8.189 3.123-11.314 0z"/><path d="m274.8 303c-15.555 0-28.21-12.655-28.21-28.21 0-15.55 12.655-28.2 28.21-28.2 15.55 0 28.2 12.65 28.2 28.2 0 15.555-12.65 28.21-28.2 28.21zm0-40.41c-6.618 0-12.21 5.587-12.21 12.2 0 6.618 5.592 12.21 12.21 12.21 6.613 0 12.2-5.592 12.2-12.21 0-6.613-5.587-12.2-12.2-12.2z"/><path d="m189.2 217.41c-15.55 0-28.2-12.655-28.2-28.21 0-15.55 12.65-28.2 28.2-28.2 15.555 0 28.21 12.65 28.21 28.2 0 15.555-12.655 28.21-28.21 28.21zm0-40.41c-6.728 0-12.2 5.473-12.2 12.2 0 6.732 5.473 12.21 12.2 12.21 6.732 0 12.21-5.478 12.21-12.21 0-6.727-5.477-12.2-12.21-12.2z"/></g></svg>