<svg id="Capa_1" enable-background="new 0 0 512 512" height="512" viewBox="0 0 512 512" width="512" xmlns="http://www.w3.org/2000/svg"><g><path d="m194.753 460.754c0-15.874 6.073-30.356 16.014-41.248h-131.212v26.013c0 36.658 29.824 66.481 66.481 66.481h76.481c-16.702-10.95-27.764-29.825-27.764-51.246z"/><path d="m301.233 419.506c9.941 10.892 16.014 25.374 16.014 41.248 0 21.421-11.062 40.296-27.764 51.246h76.48c36.658 0 66.482-29.823 66.482-66.481v-26.013z"/><path d="m201.511 187.537 21.301-21.125 31.817 32.082 51.561-55.385c-14.19-13.873-33.581-22.446-54.946-22.446-43.374 0-78.661 35.287-78.661 78.661s35.287 78.661 78.661 78.661 78.661-35.287 78.661-78.661c0-10.954-2.257-21.389-6.32-30.873l-68.273 73.336z"/><path d="m432.445 389.506v-323.025c0-36.658-29.824-66.481-66.482-66.481h-219.926c-36.658 0-66.481 29.823-66.481 66.481v323.024h352.889zm-72.54-190.182c0 59.916-48.745 108.661-108.661 108.661s-108.661-48.745-108.661-108.661 48.745-108.661 108.661-108.661c29.251 0 55.836 11.622 75.39 30.486l16.805-18.051 21.958 20.441-20.037 21.523c9.246 15.977 14.545 34.512 14.545 54.262z"/><path d="m224.753 460.754c0 17.229 14.018 31.247 31.248 31.247s31.247-14.018 31.247-31.247-14.018-31.247-31.248-31.247-31.247 14.017-31.247 31.247z"/></g></svg>