<svg id="Capa_1" enable-background="new 0 0 512 512" height="512" viewBox="0 0 512 512" width="512" xmlns="http://www.w3.org/2000/svg"><g><path d="m506.579 452.817-84.44-143.578c-6.282-10.68-17.748-17.239-30.139-17.239-12.391 0-23.857 6.559-30.139 17.24l-84.44 143.578c-3.549 6.035-5.421 12.908-5.421 19.909 0 21.69 17.583 39.273 39.273 39.273h161.453c21.69 0 39.273-17.583 39.273-39.273.001-7.001-1.87-13.875-5.42-19.91zm-114.579 14.183c-8.284 0-15-6.716-15-15s6.716-15 15-15 15 6.716 15 15-6.716 15-15 15zm15-65c0 8.284-6.716 15-15 15s-15-6.716-15-15v-40c0-8.284 6.716-15 15-15s15 6.716 15 15z"/><g><circle cx="215" cy="215" r="15"/><path d="m215 0c-118.741 0-215 96.259-215 215s96.259 215 215 215c14.955 0 29.552-1.531 43.646-4.437l77.356-131.532c11.619-19.757 33.076-32.031 55.998-32.031 10.946 0 21.554 2.805 30.92 7.881 4.613-17.521 7.08-35.912 7.08-54.881 0-118.741-96.259-215-215-215zm72.01 60.276c4.142-7.174 13.316-9.633 20.49-5.49 7.174 4.142 9.633 13.316 5.49 20.49-4.142 7.175-13.316 9.633-20.49 5.49s-9.633-13.316-5.49-20.49zm-72.01-30.276c8.284 0 15 6.716 15 15s-6.716 15-15 15-15-6.716-15-15 6.716-15 15-15zm-185 185c0-8.284 6.716-15 15-15s15 6.716 15 15-6.716 15-15 15-15-6.716-15-15zm45.276 97.99c-7.174 4.142-16.348 1.684-20.49-5.49s-1.684-16.348 5.49-20.49 16.348-1.684 20.49 5.49 1.684 16.348-5.49 20.49zm5.49-175.49c-4.142 7.174-13.316 9.633-20.49 5.49-7.174-4.142-9.632-13.316-5.49-20.49s13.316-9.633 20.49-5.49c7.174 4.142 9.632 13.316 5.49 20.49zm62.224 232.224c-4.142 7.174-13.316 9.633-20.49 5.49-7.174-4.142-9.633-13.316-5.49-20.49 4.142-7.175 13.316-9.633 20.49-5.49s9.633 13.316 5.49 20.49zm-5.49-288.958c-7.174 4.142-16.348 1.684-20.49-5.49s-1.684-16.348 5.49-20.49 16.348-1.684 20.49 5.49c4.143 7.174 1.684 16.348-5.49 20.49zm77.5 319.234c-8.284 0-15-6.716-15-15s6.716-15 15-15 15 6.716 15 15-6.716 15-15 15zm90-170h-47.58c-6.192 17.458-22.865 30-42.42 30-24.813 0-45-20.187-45-45 0-19.555 12.541-36.228 30-42.42v-67.58c0-8.284 6.716-15 15-15s15 6.716 15 15v67.58c12.764 4.527 22.893 14.656 27.42 27.42h47.58c8.284 0 15 6.716 15 15s-6.716 15-15 15zm44.234-92.5c-4.142-7.174-1.684-16.348 5.49-20.49s16.348-1.684 20.49 5.49 1.684 16.348-5.49 20.49c-7.174 4.143-16.348 1.684-20.49-5.49zm35.766 92.5c-8.284 0-15-6.716-15-15s6.716-15 15-15 15 6.716 15 15-6.716 15-15 15z"/></g></g></svg>