<svg id="svg8" height="512" viewBox="0 0 16.933333 16.933333" width="512" xmlns="http://www.w3.org/2000/svg" xmlns:svg="http://www.w3.org/2000/svg"><g id="layer1" transform="translate(0 -280.067)"><path id="path834" d="m8.4550781 281.11523a1.0584391 1.0584391 0 0 0 -.7363281 1.81641l5.601562 5.60156-5.601562 5.60157a1.0584391 1.0584391 0 1 0 1.4960938 1.49609l6.3496092-6.34961a1.0584391 1.0584391 0 0 0 0-1.49609l-6.3496092-6.34961a1.0584391 1.0584391 0 0 0 -.7597657-.32032z" font-variant-ligatures="normal" font-variant-position="normal" font-variant-caps="normal" font-variant-numeric="normal" font-variant-alternates="normal" font-feature-settings="normal" text-indent="0" text-align="start" text-decoration-line="none" text-decoration-style="solid" text-decoration-color="rgb(0,0,0)" text-transform="none" text-orientation="mixed" white-space="normal" shape-padding="0" isolation="auto" mix-blend-mode="normal" solid-color="rgb(0,0,0)" solid-opacity="1" vector-effect="none"/><path id="path838" d="m2.1054688 281.11523a1.0584391 1.0584391 0 0 0 -.7363282 1.81641l5.6015625 5.60156-5.6015625 5.60157a1.0584391 1.0584391 0 1 0 1.4960938 1.49609l6.3496094-6.34961a1.0584391 1.0584391 0 0 0 0-1.49609l-6.3496094-6.34961a1.0584391 1.0584391 0 0 0 -.7597656-.32032z" font-variant-ligatures="normal" font-variant-position="normal" font-variant-caps="normal" font-variant-numeric="normal" font-variant-alternates="normal" font-feature-settings="normal" text-indent="0" text-align="start" text-decoration-line="none" text-decoration-style="solid" text-decoration-color="rgb(0,0,0)" text-transform="none" text-orientation="mixed" white-space="normal" shape-padding="0" isolation="auto" mix-blend-mode="normal" solid-color="rgb(0,0,0)" solid-opacity="1" vector-effect="none"/></g></svg>