<svg id="Capa_1" enable-background="new 0 0 513.569 513.569" height="512" viewBox="0 0 513.569 513.569" width="512" xmlns="http://www.w3.org/2000/svg"><path d="m471.907 216.204c0-6.271-.517-12.421-1.506-18.411-.757-4.583 1.436-9.145 5.521-11.358l15.781-8.552c5.27-2.856 7.227-9.442 4.371-14.712l-17.535-32.359c-2.856-5.27-9.442-7.227-14.712-4.371l-15.797 8.56c-4.074 2.208-9.092 1.576-12.506-1.557-11.223-10.302-24.549-18.348-39.258-23.427-4.417-1.525-7.426-5.624-7.426-10.297v-17.932c0-5.994-4.859-10.852-10.852-10.852h-36.805c-5.994 0-10.852 4.859-10.852 10.852v17.932c0 4.673-3.009 8.771-7.426 10.297-14.709 5.079-28.035 13.125-39.258 23.427-3.414 3.134-8.432 3.765-12.506 1.557l-15.797-8.56c-5.27-2.856-11.856-.899-14.712 4.371l-17.535 32.359c-2.856 5.27-.899 11.856 4.371 14.712l15.781 8.552c4.084 2.213 6.278 6.775 5.521 11.358-.99 5.99-1.506 12.14-1.506 18.411s.517 12.421 1.506 18.411c.757 4.583-1.436 9.145-5.521 11.358l-15.781 8.552c-5.27 2.856-7.227 9.442-4.371 14.712l17.535 32.359c2.856 5.27 9.442 7.227 14.712 4.371l15.797-8.56c4.074-2.208 9.092-1.576 12.506 1.557 11.223 10.302 24.549 18.348 39.258 23.427 4.417 1.525 7.426 5.624 7.426 10.297v17.932c0 5.994 4.859 10.852 10.852 10.852h36.805c5.994 0 10.852-4.859 10.852-10.852v-17.932c0-4.673 3.009-8.772 7.426-10.297 14.709-5.079 28.035-13.125 39.258-23.427 3.414-3.134 8.432-3.765 12.506-1.557l15.797 8.56c5.27 2.856 11.856.899 14.712-4.371l17.535-32.359c2.856-5.27.899-11.856-4.371-14.712l-15.781-8.552c-4.084-2.213-6.278-6.775-5.521-11.358.99-5.99 1.506-12.14 1.506-18.411z" fill="#433f43"/><path d="m496.07 269.232-17.536 32.37c-2.849 5.268-9.443 7.221-14.711 4.359l-15.792-8.559c-4.077-2.198-9.087-1.572-12.501 1.56-11.224 10.303-24.548 18.346-39.259 23.43-4.421 1.523-7.429 5.624-7.429 10.291v17.941c0 5.993-4.863 10.843-10.855 10.843h-36.803c-5.992 0-10.855-4.851-10.855-10.843v-6.705h26.291c5.993 0 10.856-4.863 10.856-10.855 0 0 0-17.912 0-17.929 0-6.568 5.151-10.082 10.913-11.076 6.874-1.186 13.365-2.716 19.759-5.606 6.739-3.045 13.014-7.071 18.707-11.783 2.851-2.359 5.555-4.894 8.112-7.572 20.646-21.632 28.156-47.577 26.354-76.672-.46-7.421-1.065-14.846-2.282-22.187-.761-4.593 1.437-9.149 5.514-11.359l15.78-8.559c5.268-2.849 7.233-9.443 4.372-14.712l-10.487-19.365c5.195-2.554 11.543-.577 14.318 4.568l17.536 32.358c2.861 5.268.909 11.863-4.372 14.711l-15.78 8.559c-4.077 2.21-6.275 6.766-5.514 11.347.982 5.993 1.498 12.145 1.498 18.42 0 6.263-.516 12.415-1.498 18.408-.761 4.58 1.437 9.149 5.514 11.359l15.78 8.547c5.278 2.861 7.231 9.443 4.37 14.711z" fill="#383538"/><circle cx="359.586" cy="216.204" fill="#e2dee2" r="61.136"/><path d="m370.667 245.848h-346.849v-50.847c0-4.662 3.779-8.442 8.442-8.442h329.965c4.662 0 8.442 3.779 8.442 8.442z" fill="#7a6d79"/><path d="m23.818 245.848 137.391 144.363c2.769 2.909 4.313 6.771 4.313 10.787v77.37c0 1.915 1.031 3.682 2.697 4.625l52.812 29.878c3.543 2.004 7.931-.555 7.931-4.625v-107.247c0-4.016 1.544-7.878 4.313-10.787l137.391-144.363h-346.848z" fill="#e2dee2"/><path d="m370.67 245.849-137.398 144.363c-2.77 2.912-4.307 6.771-4.307 10.783v107.249c0 4.073-4.389 6.629-7.932 4.633l-18.073-10.233c.407-.743.641-1.599.641-2.546v-107.249c0-4.012 1.548-7.871 4.317-10.783l129.639-136.217z" fill="#cbc4cc"/><g fill="#7a6d79"><path d="m23.818 77.293c-4.218 0-7.637-3.419-7.637-7.637v-33.759c0-4.218 3.419-7.637 7.637-7.637s7.637 3.419 7.637 7.637v33.759c0 4.218-3.419 7.637-7.637 7.637z"/><path d="m151.656 157.543c-4.218 0-7.637-3.419-7.637-7.637v-33.76c0-4.218 3.419-7.637 7.637-7.637s7.637 3.419 7.637 7.637v33.76c0 4.219-3.419 7.637-7.637 7.637z"/><path d="m119.134 49.032c-4.218 0-7.637-3.419-7.637-7.637v-33.758c0-4.218 3.419-7.637 7.637-7.637s7.637 3.419 7.637 7.637v33.759c0 4.218-3.419 7.636-7.637 7.636z"/><path d="m274.516 65.913c-4.218 0-7.637-3.419-7.637-7.637v-33.759c0-4.218 3.419-7.637 7.637-7.637s7.637 3.419 7.637 7.637v33.759c0 4.218-3.419 7.637-7.637 7.637z"/><path d="m84.078 121.438c-14.326 0-25.98-11.655-25.98-25.98s11.655-25.98 25.98-25.98c14.326 0 25.981 11.655 25.981 25.98s-11.655 25.98-25.981 25.98zm0-36.687c-5.904 0-10.707 4.803-10.707 10.707s4.803 10.707 10.707 10.707 10.708-4.803 10.708-10.707c0-5.905-4.804-10.707-10.708-10.707z"/><path d="m201.643 101.505c-14.326 0-25.981-11.655-25.981-25.98 0-14.327 11.655-25.981 25.981-25.981s25.98 11.655 25.98 25.981-11.655 25.98-25.98 25.98zm0-36.688c-5.904 0-10.708 4.804-10.708 10.708s4.803 10.707 10.708 10.707c5.904 0 10.707-4.803 10.707-10.707s-4.803-10.708-10.707-10.708z"/></g></svg>