<svg id="Layer_1" enable-background="new 0 0 100 100" height="512" viewBox="0 0 100 100" width="512" xmlns="http://www.w3.org/2000/svg" xmlns:xlink="http://www.w3.org/1999/xlink"><linearGradient id="SVGID_1_" gradientUnits="userSpaceOnUse" x1="-2.254" x2="35.739" y1="68.986" y2="30.992"><stop offset="0" stop-color="#00e2ff"/><stop offset="1" stop-color="#00c5ff"/></linearGradient><g id="_x34_2.Google_PLay"><path d="m81.939 44.002-13.548-7.825-13.87 13.87 13.869 13.869 13.595-7.851c2.12-1.288 3.385-3.538 3.385-6.018s-1.266-4.73-3.431-6.045z" fill="#ffce00"/><path d="m54.521 50.047-37.779-38.051c-1.314 1.314-2.112 3.097-2.112 5.068v65.85c0 1.971.798 3.754 2.112 5.069z" fill="url(#SVGID_1_)"/><path d="m54.521 50.047 13.87-13.87.022-.022-18.584-10.7-24.498-14.398c-2.206-1.361-4.881-1.408-7.134-.141-.516.328-.986.657-1.455 1.079z" fill="#00f076"/><path d="m16.742 87.982c.469.422.939.751 1.455 1.079 1.126.61 2.3.939 3.473.939 1.267 0 2.487-.375 3.614-1.032l24.544-14.329 18.584-10.7-.022-.022-13.869-13.87z" fill="#f63448"/></g></svg>