<svg height="512" viewBox="0 0 64 64" width="512" xmlns="http://www.w3.org/2000/svg"><g fill-rule="evenodd"><path d="m48 64h-32a16.0007 16.0007 0 0 1 -16-16v-32a16.0007 16.0007 0 0 1 16-16h32a16 16 0 0 1 16 16v32a16 16 0 0 1 -16 16" fill="#deebf5"/><path d="m30 18h18a9.0006 9.0006 0 0 0 .92-17.954c-.306-.017-.609-.046-.92-.046h-32a16.0007 16.0007 0 0 0 -16 16v32a30.0007 30.0007 0 0 1 30-30" fill="#f0faff"/><path d="m48 32a16 16 0 1 0 16 16v-32a16 16 0 0 1 -16 16" fill="#cddceb"/></g><path d="m52 32.469c0-.779-.036-1.561-.109-2.338a1.9959 1.9959 0 0 0 -1.988-1.804c-3.575-.004-11.718-.004-15.5-.004a2 2 0 0 0 -2 2v3.857a2.0007 2.0007 0 0 0 2 2h9.02a9.44 9.44 0 0 1 -4.078 6.2v.002a5.0957 5.0957 0 0 0 5.096 5.096h1.479c3.861-3.553 6.08-8.801 6.08-15.009z" fill="#1e78ff"/><path d="m32.403 52.404a19.5282 19.5282 0 0 0 13.524-4.926l-6.574-5.098a12.3754 12.3754 0 0 1 -18.398-6.47h-1.531a5.2545 5.2545 0 0 0 -5.254 5.254v.002a20.4085 20.4085 0 0 0 18.233 11.238z" fill="#00b450"/><path d="m20.948 35.91a12.2137 12.2137 0 0 1 0-7.811v-.002a5.2545 5.2545 0 0 0 -5.254-5.254h-1.524a20.4265 20.4265 0 0 0 0 18.323z" fill="#ffb400"/><path d="m32.403 19.672a11.1058 11.1058 0 0 1 6.509 1.982 1.9657 1.9657 0 0 0 2.548-.2c.915-.868 2.118-2.071 3.066-3.019a2 2 0 0 0 -.192-2.998 19.7941 19.7941 0 0 0 -11.931-3.839 20.4 20.4 0 0 0 -18.233 11.245l6.778 5.256a12.2022 12.2022 0 0 1 11.455-8.427z" fill="#e60014"/></svg>