<?xml version="1.0" encoding="iso-8859-1"?>
<!-- Generator: Adobe Illustrator 18.0.0, SVG Export Plug-In . SVG Version: 6.00 Build 0)  -->
<!DOCTYPE svg PUBLIC "-//W3C//DTD SVG 1.1//EN" "http://www.w3.org/Graphics/SVG/1.1/DTD/svg11.dtd">
<svg version="1.1" id="Capa_1" xmlns="http://www.w3.org/2000/svg" xmlns:xlink="http://www.w3.org/1999/xlink" x="0px" y="0px"
	 viewBox="0 0 295.13 295.13" style="enable-background:new 0 0 295.13 295.13;" xml:space="preserve">
<g>
	<path d="M211.697,109.642c-5.451,0-10.216,2.886-12.888,7.204v-4.931c0-8.373-6.788-15.161-15.161-15.161
		c-5.451,0-10.216,2.886-12.888,7.204v-3.414c0-8.373-6.788-15.161-15.161-15.161c-5.451,0-10.216,2.886-12.888,7.204V46.722
		c0-8.373-6.788-15.161-15.161-15.161c-8.373,0-15.161,6.788-15.161,15.161v114.055l-17.001-21.798
		c-5.149-6.603-14.677-7.781-21.279-2.631c-6.603,5.149-7.78,14.677-2.631,21.279l47.665,61.114
		c7.176,10.696,19.376,17.751,33.195,17.751h29.677c24.232,0,44.844-19.635,44.844-44.844c0-6.803,0-60.709,0-66.846
		C226.858,116.43,220.07,109.642,211.697,109.642z"/>
	<path d="M217.576,251.755h-90.64c-5.126,0-9.282,4.156-9.282,9.282v24.81c0,5.126,4.156,9.282,9.282,9.282h90.64
		c5.126,0,9.282-4.156,9.282-9.282v-24.81C226.858,255.911,222.702,251.755,217.576,251.755z"/>
	<path d="M90.963,56.589c5.522,0,10-4.477,10-10C100.963,31.928,112.89,20,127.551,20c14.66,0,26.588,11.928,26.588,26.589
		c0,5.523,4.478,10,10,10c5.522,0,10-4.477,10-10C174.138,20.899,153.239,0,127.551,0c-25.688,0-46.588,20.899-46.588,46.589
		C80.963,52.111,85.44,56.589,90.963,56.589z"/>
</g>
<g>
</g>
<g>
</g>
<g>
</g>
<g>
</g>
<g>
</g>
<g>
</g>
<g>
</g>
<g>
</g>
<g>
</g>
<g>
</g>
<g>
</g>
<g>
</g>
<g>
</g>
<g>
</g>
<g>
</g>
</svg>
