<svg id="Capa_1" enable-background="new 0 0 512 512" height="512" viewBox="0 0 512 512" width="512" xmlns="http://www.w3.org/2000/svg"><g><g><g><g><g><g><g><circle cx="256" cy="256" fill="#ffce00" r="256"/></g></g></g></g></g></g><path d="m511.907 262.969-126.423-126.423-1.807 40.121-127.677-127.676-22.609 194.43-106.875-106.875-27.298 263.071 108.686 107.872c15.578 2.961 31.656 4.511 48.096 4.511 139.055 0 252.214-110.868 255.907-249.031z" fill="#ffa300"/><g><path d="m385.484 136.546s-19.862 19.477-44.724 46.712c-38.515-69.143-84.76-134.267-84.76-134.267s-46.245 65.124-84.76 134.267c-24.861-27.235-44.724-46.712-44.724-46.712s-55.717 139.152-55.717 193.726 44.241 98.814 98.815 98.814c.771 0 1.539-.009 2.306-.027 5.986-.141 11.874 1.328 17.079 4.287 19.77 11.24 42.635 17.663 67.002 17.663s47.232-6.424 67.002-17.663c5.205-2.959 11.094-4.428 17.079-4.287.766.018 1.535.027 2.306.027 54.574 0 98.815-44.241 98.815-98.814-.002-54.574-55.719-193.726-55.719-193.726z" fill="#fe6a16"/></g><g><path d="m256 451.009c24.368 0 47.232-6.424 67.002-17.663 5.205-2.959 11.094-4.428 17.079-4.287.766.018 1.535.027 2.306.027 54.574 0 98.815-44.241 98.815-98.814 0-54.574-55.717-193.726-55.717-193.726s-19.862 19.477-44.724 46.712c-38.516-69.143-84.761-134.267-84.761-134.267z" fill="#f24500"/></g><g><path d="m375.628 209.818s-24.886 23.248-48.052 49.71c-26.883-55.119-71.576-118.061-71.576-118.061s-44.693 62.942-71.576 118.061c-23.166-26.463-48.052-49.71-48.052-49.71s-43.974 99.668-36.986 133.795c6.988 34.126 40.319 56.127 74.446 49.139.066-.014.131-.027.197-.041 11.54-2.401 23.632-.711 33.628 5.536 14.022 8.763 30.588 13.832 48.343 13.832s34.321-5.069 48.343-13.832c9.996-6.247 22.088-7.937 33.628-5.536.065.014.131.027.197.041 34.127 6.988 67.457-15.013 74.446-49.139 6.987-34.127-36.986-133.795-36.986-133.795z" fill="#f24500"/></g><g><path d="m256 412.08c17.755 0 34.321-5.069 48.343-13.832 9.996-6.247 22.088-7.938 33.628-5.536.066.014.131.027.197.041 34.127 6.988 67.457-15.013 74.446-49.139 6.988-34.127-36.986-133.795-36.986-133.795s-24.886 23.248-48.052 49.71c-26.883-55.12-71.576-118.061-71.576-118.061z" fill="#d13400"/></g><g><path d="m212.811 313.021v-17.256h-16.174v17.256h-13.67v-45.138h13.67v15.971h16.174v-15.971h13.67v45.138z" fill="#fff"/><path d="m231.349 290.485c0-13.873 10.76-23.347 24.7-23.347 13.941 0 24.701 9.475 24.701 23.347 0 13.873-10.76 23.347-24.701 23.347-13.94 0-24.7-9.474-24.7-23.347zm35.528 0c0-6.294-4.263-11.301-10.828-11.301-6.564 0-10.828 5.008-10.828 11.301 0 6.294 4.264 11.301 10.828 11.301 6.565.001 10.828-5.007 10.828-11.301z" fill="#fff"/><path d="m256.049 267.138c-.016 0-.033 0-.049 0v12.046h.049c6.564 0 10.828 5.008 10.828 11.301 0 6.294-4.263 11.301-10.828 11.301-.017 0-.033 0-.049-.001v12.046h.049c13.941 0 24.701-9.474 24.701-23.347 0-13.871-10.76-23.346-24.701-23.346z" fill="#e9edf5"/><path d="m293.943 313.021v-33.228h-12.113v-11.91h37.829v11.91h-12.046v33.228z" fill="#e9edf5"/><g fill="#fff"><path d="m145.497 383.021v-45.138h20.166c14.211 0 24.768 8.121 24.768 22.535s-10.557 22.603-24.7 22.603zm31.062-22.603c0-6.091-3.519-10.625-10.828-10.625h-6.564v21.317h6.497c6.834 0 10.895-5.007 10.895-10.692z"/><path d="m195.3 383.021v-45.138h34.243v11.91h-20.573v4.467h20.099v11.91h-20.099v4.941h20.573v11.91z"/><path d="m265.744 383.021-1.624-5.278h-16.241l-1.624 5.278h-15.497l16.647-45.138h17.189l16.647 45.138zm-9.745-31.739-4.466 14.549h8.933z"/></g><path d="m256 337.883v13.403l4.465 14.546h-4.465v11.91h8.12l1.624 5.279h15.497l-16.648-45.138z" fill="#e9edf5"/><path d="m283.673 383.021v-45.138h13.67v33.228h17.121v11.91z" fill="#e9edf5"/><path d="m316.491 376.659 7.105-10.151c3.384 3.249 8.459 5.82 14.55 5.82 2.571 0 5.008-.677 5.008-2.436 0-4.331-25.174.067-25.174-17.73 0-7.647 6.361-14.956 18.745-14.956 7.376 0 14.008 2.098 19.151 6.293l-7.309 9.677c-3.925-2.978-9-4.466-13.264-4.466-2.707 0-3.451.88-3.451 2.03 0 4.263 25.106.609 25.106 17.392 0 9.948-7.376 15.7-19.49 15.7-9.608 0-16.172-2.842-20.977-7.173z" fill="#e9edf5"/></g></g></svg>