<svg height="512pt" viewBox="-92 0 512 512.00037" width="512pt" xmlns="http://www.w3.org/2000/svg"><path d="m327.203125 163.601562c0-89.398437-71.703125-162.046874-160.734375-163.5781245-89.523438-1.5351565-164.203125 69.9375005-166.4179688 159.4492185-1.4609372 59.019532 28.4648438 111.570313 74.7460938 141.539063 6.117187 3.960937 11.398437 9.085937 15.351563 15.210937 18.71875 28.988282 37.183593 60.105469 56.367187 114.980469 5.660156 16.195313 28.523437 16.164063 34.183594-.03125 25.058593-71.695313 58.523437-118.351563 57.832031-117.285156 2.972656-4.578125 6.878906-8.484375 11.507812-11.371094 46.363282-28.910156 77.164063-80.359375 77.164063-138.914063zm0 0" fill="#ff6b6b"/><path d="m185.914062 489.6875c0 12.324219-9.988281 22.3125-22.3125 22.3125-12.324218 0-22.3125-9.988281-22.3125-22.3125s9.988282-22.3125 22.3125-22.3125c12.324219 0 22.3125 9.988281 22.3125 22.3125zm0 0" fill="#ff6b6b"/><g fill="#ee5253"><path d="m177.421875 431.203125c-19.179687-54.875-37.648437-85.992187-56.363281-114.980469-3.953125-6.125-9.234375-11.25-15.355469-15.210937-46.28125-29.972657-76.203125-82.519531-74.742187-141.542969 2.058593-83.363281 66.984374-151.070312 148.207031-158.734375-4.1875-.394531-8.421875-.6367188-12.699219-.7109375-89.523438-1.5351565-164.203125 69.9375005-166.4179688 159.4492185-1.4609372 59.019532 28.4648438 111.570313 74.7460938 141.539063 6.117187 3.960937 11.398437 9.085937 15.351563 15.210937 18.71875 28.988282 37.183593 60.105469 56.367187 114.980469 5.214844 14.921875 25.023437 16.058594 32.535156 3.476563-.632812-1.0625-1.1875-2.214844-1.628906-3.476563zm0 0"/><path d="m172.195312 489.6875c0-6.324219 2.632813-12.027344 6.859376-16.085938-4.007813-3.855468-9.453126-6.226562-15.453126-6.226562-12.324218 0-22.3125 9.988281-22.3125 22.3125 0 12.320312 9.988282 22.3125 22.3125 22.3125 6 0 11.445313-2.371094 15.453126-6.226562-4.226563-4.058594-6.859376-9.761719-6.859376-16.085938zm0 0"/><path d="m282.851562 161.929688c0 65.859374-53.390624 119.25-119.25 119.25-65.859374 0-119.25-53.390626-119.25-119.25 0-65.859376 53.390626-119.25 119.25-119.25 65.859376 0 119.25 53.390624 119.25 119.25zm0 0"/></g><path d="m75.257812 161.929688c0-60.625 45.238282-110.675782 103.796876-118.253907-5.058594-.65625-10.214844-.996093-15.453126-.996093-65.859374 0-119.25 53.390624-119.25 119.25 0 65.859374 53.390626 119.25 119.25 119.25 5.238282 0 10.394532-.339844 15.453126-.996094-58.558594-7.578125-103.796876-57.632813-103.796876-118.253906zm0 0" fill="#d83941"/><path d="m163.039062 48.371094c-31.464843 0-56.972656 25.507812-56.972656 56.972656v23.039062c3.808594-3.53125 9.226563-5.449218 14.511719-4.742187v-2.839844c0-2.257812 1.929687-4.039062 4.164063-3.871093 22.027343 1.582031 44.445312-5.417969 61.394531-16.488282 1.582031-1.035156 3.675781-.777344 4.964843.605469 14.488282 15.574219 14.402344 14.972656 14.402344 17.003906v5.578125c5.796875-.871094 10.9375.921875 14.511719 4.242188v-22.527344c0-31.464844-25.507813-56.972656-56.976563-56.972656zm0 0" fill="#576574"/><path d="m127.015625 105.34375c0-27.886719 20.039063-51.078125 46.5-55.996094-3.398437-.632812-6.894531-.976562-10.476563-.976562-31.464843 0-56.972656 25.507812-56.972656 56.972656v23.035156c3.808594-3.527344 9.222656-5.445312 14.511719-4.742187v-2.835938c0-2.257812 1.925781-4.042969 4.160156-3.871093.757813.054687 1.515625.09375 2.277344.128906zm0 0" fill="#3e4b5a"/><path d="m205.425781 121.5625v31.332031c0 .34375-.015625.675781-.023437 1.015625 11.085937 1.679688 19.769531-6.332031 19.769531-16.171875 0-9.859375-8.691406-17.832031-19.746094-16.175781zm0 0" fill="#ffbeab"/><path d="m220.078125 125.808594c-3.585937-3.324219-8.738281-5.113282-14.546875-4.242188v31.332032c0 .339843-.019531.675781-.027344 1.011718 5.824219.882813 10.984375-.914062 14.574219-4.242187zm0 0" fill="#f7af9f"/><path d="m120.707031 152.933594v-31.398438c-9.675781-1.292968-19.796875 6.136719-19.796875 16.203125 0 9.851563 8.6875 17.898438 19.820313 16.210938-.007813-.335938-.023438-.675781-.023438-1.015625zm0 0" fill="#ffbeab"/><path d="m120.707031 149.734375c-3.273437-3.019531-5.25-7.300781-5.25-11.996094 0-4.558593 2.082031-8.574219 5.25-11.484375v-4.71875c-9.675781-1.289062-19.796875 6.136719-19.796875 16.203125 0 9.851563 8.6875 17.898438 19.820313 16.214844-.007813-.339844-.023438-.679687-.023438-1.019531zm0 0" fill="#f7af9f"/><path d="m163.648438 192.695312c-9.207032 0-17.296876-2.527343-23.910157-6.757812v23.34375l23.808594 29.386719 23.804687-29.386719v-23.972656c-6.746093 4.652344-14.910156 7.386718-23.703124 7.386718zm0 0" fill="#ffbeab"/><path d="m160.976562 192.613281c-8.101562-.4375-15.269531-2.859375-21.238281-6.675781v23.34375l21.238281 26.214844zm0 0" fill="#f7af9f"/><path d="m191.101562 99.046875c-1.289062-1.382813-3.382812-1.640625-4.964843-.605469-16.949219 11.070313-39.367188 18.070313-61.394531 16.488282-2.234376-.167969-4.164063 1.613281-4.164063 3.871093v34.035157c0 21.878906 17.140625 41.859374 43.066406 41.859374 23.082031 0 41.859375-18.777343 41.859375-41.859374v-36.785157c0-2.03125.085938-1.429687-14.402344-17.003906zm0 0" fill="#ffcdbf"/><path d="m141.527344 152.835938v-38.292969c-5.554688.632812-11.183594.789062-16.785156.386719-2.234376-.167969-4.164063 1.613281-4.164063 3.871093v34.035157c0 21.878906 17.140625 41.859374 43.066406 41.859374 3.492188 0 6.886719-.4375 10.128907-1.246093-19.761719-4.675781-32.246094-21.949219-32.246094-40.613281zm0 0" fill="#ffbeab"/><path d="m187.351562 207.15625-23.785156 29.363281-23.828125-29.363281-62.824219 24.371094s-3.089843 1.277344-7.011718 4.171875c21.835937 27.699219 55.691406 45.480469 93.699218 45.480469 38.007813 0 71.863282-17.785157 93.699219-45.480469-3.921875-2.894531-7.011719-4.171875-7.011719-4.171875zm0 0" fill="#e4eaf8"/><path d="m69.902344 235.699219c2.117187 2.6875 4.355468 5.277343 6.691406 7.769531 3.609375-8.640625 9.789062-14.21875 14.386719-17.398438l-14.066407 5.457032s-3.085937 1.277344-7.011718 4.171875zm0 0" fill="#c7d2e5"/><path d="m192.292969 251.605469 17.785156-35.648438-22.726563-8.800781-23.785156 29.363281 23.195313 16.46875c1.875 1.335938 4.5.679688 5.53125-1.382812zm0 0" fill="#c7d2e5"/><path d="m134.878906 251.605469-17.789062-35.648438 22.648437-8.800781 23.863281 29.363281-23.191406 16.46875c-1.878906 1.335938-4.503906.679688-5.53125-1.382812zm0 0" fill="#c7d2e5"/><path d="m163.597656 236.539062v-.019531l-.011718.007813-.015626-.007813v.019531l-16.867187 11.980469 7.972656 12h17.820313l7.972656-12zm0 0" fill="#ee5253"/><path d="m168.519531 245.585938 3.910157-2.777344-8.832032-6.269532v-.019531l-.011718.011719-.015626-.011719v.019531l-16.867187 11.980469 7.972656 12h17.6875l-5.167969-7.777343c-1.566406-2.355469-.976562-5.523438 1.324219-7.15625zm0 0" fill="#d83941"/><path d="m163.601562 281.179688c3.816407 0 7.585938-.1875 11.308594-.535157l-2.414062-20.125h-17.820313l-2.414062 20.121094c3.734375.351563 7.515625.539063 11.339843.539063zm0 0" fill="#ff6b6b"/><path d="m163.570312 260.519531h-8.894531l-2.414062 20.121094c3.734375.351563 7.515625.539063 11.339843.539063 2.113282 0 4.214844-.054688 6.300782-.164063l2.460937-20.496094zm0 0" fill="#ee5253"/></svg>