<svg xmlns="http://www.w3.org/2000/svg" width="199.711" height="277.538" viewBox="0 0 199.711 277.538">
  <g id="Group_1" data-name="Group 1" transform="translate(-1065.609 -13)">
    <g id="Group_8828" data-name="Group 8828" transform="translate(1065.609 13)">
      <path id="Path_1" data-name="Path 1" d="M674.164,1153.367,571.835,1051.038a31.859,31.859,0,0,0-50.234,6.786h0a238.853,238.853,0,0,0,0,236.17h0c10.4,18.289,35.581,21.892,50.461,7.013l102.1-102.568A31.859,31.859,0,0,0,674.164,1153.367Zm-4.231,36.328L572.4,1296.6a24.889,24.889,0,0,1-39.39-3.484,231.908,231.908,0,0,1-10.508-229,24.89,24.89,0,0,1,38.958-7.077l106.917,97.536a24.889,24.889,0,0,1,1.612,35.116Z" transform="translate(-487.124 -1037.138)" fill="#ededf4"/>
      <path id="Path_2" data-name="Path 2" d="M677.428,1152.945,571.615,1047.132a32.963,32.963,0,0,0-51.943,7h0a247.022,247.022,0,0,0,0,244.232h0a32.962,32.962,0,0,0,51.943,7.013l105.813-105.824A32.942,32.942,0,0,0,677.428,1152.945Zm-4.383,37.563L572.189,1301.071a25.7,25.7,0,0,1-40.732-3.614,239.794,239.794,0,0,1-10.822-236.8,25.711,25.711,0,0,1,40.234-7.326L671.422,1154.19a25.713,25.713,0,0,1,1.666,36.318Z" transform="translate(-487.377 -1037.484)" fill="#ededf4"/>
      <path id="Path_3" data-name="Path 3" d="M622.05,1125.63a15.487,15.487,0,0,0-4.058-5.011,19.6,19.6,0,0,0-4.869-2.889,29.24,29.24,0,0,0-9.469-2.067,49.67,49.67,0,0,0-8.765.325c-2.835.357-5.508.941-8.268,1.546a49.582,49.582,0,0,0-8.138,2.544,41.356,41.356,0,0,0-7.575,4.015,36.793,36.793,0,0,0-11.579,12.413c-.314.551-.606,1.082-.9,1.677l2.056-41-15.02,1.493,9.923,39.076-2.6-.508c-5.108-1.018-10.205-2.035-15.756-2.814-1.386-.194-2.879-.324-4.426-.411a42.5,42.5,0,0,0-4.393,0,37.85,37.85,0,0,0-9.036,1.374,23.52,23.52,0,0,0-8.819,4.513,17.8,17.8,0,0,0-3.517,3.994,16.013,16.013,0,0,0-2.034,4.923,16.707,16.707,0,0,0,.8,9.8,20.206,20.206,0,0,0,5.076,7.467,21.3,21.3,0,0,0,7.283,4.458,20.67,20.67,0,0,0,8.029,1.212A21.389,21.389,0,0,1,514.246,1163a15.79,15.79,0,0,1-2.348-6.179,10.055,10.055,0,0,1,.714-5.627,8.126,8.126,0,0,1,3.431-3.583,15.581,15.581,0,0,1,5.411-1.666,31.918,31.918,0,0,1,6.493-.065c1.082.086,2.273.25,3.42.411a32.654,32.654,0,0,1,3.311.7c4.719,1.083,9.74,2.62,14.837,3.919,1.526.422,3.073.81,4.632,1.2a49.131,49.131,0,0,0-.39,7.954,44.334,44.334,0,0,0,.844,7.878,56.344,56.344,0,0,1,2.37-15.15c2.673.638,5.411,1.234,8.105,1.786s5.324,1,8.041,1.385,5.476.725,8.278.919a65.671,65.671,0,0,0,17.552-.9,42.138,42.138,0,0,0,8.993-2.976,32.264,32.264,0,0,0,8.289-5.476,23.55,23.55,0,0,0,6.3-9.035,17.318,17.318,0,0,0,1.082-6.287A15.309,15.309,0,0,0,622.05,1125.63Zm-11.654,6.493a4.325,4.325,0,0,1-.465,1.342A10.671,10.671,0,0,1,607,1136.9a24.435,24.435,0,0,1-10.821,4.534,56.1,56.1,0,0,1-13.646.39,147.625,147.625,0,0,1-14.717-1.764c-1.332-.217-2.673-.455-4.015-.7a31.918,31.918,0,0,1,10.822-8.928,40.279,40.279,0,0,1,13.581-3.918,51.133,51.133,0,0,1,7.272-.292,39.961,39.961,0,0,1,6.871.66,19.34,19.34,0,0,1,5.606,1.894,4.79,4.79,0,0,1,2.391,2.456,2.17,2.17,0,0,1,.054.953Z" transform="translate(-485.973 -1032.58)" fill="#ededf4"/>
      <path id="Path_4" data-name="Path 4" d="M574.474,1227.1l-2.5,4.329-1.255,2.163-.616,1.084a1.5,1.5,0,0,0-.173.205,1.706,1.706,0,0,0-.173.162,1.655,1.655,0,0,1-1.667.194,1.219,1.219,0,0,1-.563-.5,6.387,6.387,0,0,1-.465-1.267l-3.117-9.49L538.967,1148l-14.067,5.411,32.021,73.273,3.993,9.155a10.449,10.449,0,0,0,1.862,3.116,7.575,7.575,0,0,0,11.092,0c.216-.26.444-.519.628-.79s.336-.562.5-.855l.53-1.147,1.082-2.272,2.089-4.544,4.177-9.1,16.7-36.328-20.042,34.629Z" transform="translate(-484.297 -1028.405)" fill="#ededf4"/>
      <path id="Path_5" data-name="Path 5" d="M576.553,1233.475l2.089-4.544,4.177-9.1L595.155,1193l-24.316,42.68a2.359,2.359,0,0,1-4.231-.281L534.9,1157.367a7.823,7.823,0,0,0-10.021-4.328h0l32.021,73.272,3.993,9.156a10.46,10.46,0,0,0,1.861,3.116,7.573,7.573,0,0,0,11.092,0c.216-.259.444-.519.628-.79s.336-.563.5-.856l.53-1.147Z" transform="translate(-484.289 -1028.033)" fill="#ededf4"/>
      <path id="Path_6" data-name="Path 6" d="M623.4,1130.855a15.317,15.317,0,0,0-1.645-6.623,15.482,15.482,0,0,0-4.058-5.01,19.545,19.545,0,0,0-4.869-2.89,29.266,29.266,0,0,0-9.469-2.066,49.807,49.807,0,0,0-8.766.324c-2.835.357-5.508.942-8.268,1.548a49.623,49.623,0,0,0-8.138,2.543,41.365,41.365,0,0,0-7.575,4.015,37.194,37.194,0,0,0-9.837,9.632c2.316,1.926,6.731-1.6,6.731-1.6,18.4-13.875,51.63-13.788,46.912,4.035-4.9,18.505-45.9,15.15-73.392,7.316s-37.583,3.777-31.025,16.643c4.512,8.863,11.427,11.017,15.291,11.5a21.271,21.271,0,0,1-11.3-8.658,15.784,15.784,0,0,1-2.348-6.178,10.051,10.051,0,0,1,.714-5.627,8.125,8.125,0,0,1,3.43-3.582,15.59,15.59,0,0,1,5.411-1.667,31.861,31.861,0,0,1,6.493-.065c1.082.086,2.272.249,3.419.411a32.7,32.7,0,0,1,3.312.7c4.718,1.083,9.739,2.62,14.836,3.918,1.526.422,3.073.811,4.632,1.2a49.16,49.16,0,0,0-.39,7.954,44.51,44.51,0,0,0,.844,7.878,56.361,56.361,0,0,1,2.371-15.15c2.672.638,5.411,1.233,8.105,1.786s5.325.995,8.04,1.385,5.476.725,8.279.92a65.7,65.7,0,0,0,17.552-.9,42.17,42.17,0,0,0,8.993-2.975,32.31,32.31,0,0,0,8.289-5.476,23.56,23.56,0,0,0,6.3-9.037A17.311,17.311,0,0,0,623.4,1130.855Z" transform="translate(-485.676 -1031.182)" fill="#ededf4"/>
      <path id="Path_7" data-name="Path 7" d="M438.1,100.875l2.056-41.165-5.1,40.559Z" transform="translate(-365.689 4.89)" fill="#ededf4"/>
      <path id="Path_8" data-name="Path 8" d="M559.7,1137.433a31.929,31.929,0,0,1,10.822-8.928c.7-.347,1.406-.681,2.164-.985l-3.246-6.99c-.909.509-1.8,1.082-2.662,1.645a36.784,36.784,0,0,0-11.579,12.412c-.314.551-.606,1.082-.9,1.678v.162h.13c1.666.325,3.441.67,5.291,1h0Z" transform="translate(-481.878 -1030.662)" fill="#ededf4" opacity="0.5"/>
      <path id="Path_9" data-name="Path 9" d="M550.471,1148a47.506,47.506,0,0,0-.4,5.53l1.969.184s.1-.476.249-1.146l.1-.433c.086-.357.184-.736.281-1.083v-.064c.065-.271.141-.552.216-.833s.216-.791.3-1.083a1.8,1.8,0,0,1,.087-.325Z" transform="translate(-482.225 -1028.405)" fill="#ededf4" opacity="0.5"/>
      <path id="Path_10" data-name="Path 10" d="M554.739,1135.773v.065l.508-10.14-5.562-.108-.465.075,2.478,9.74,3.019.6Z" transform="translate(-482.299 -1030.246)" fill="#ededf4" opacity="0.5"/>
    </g>
  </g>
</svg>
