<?xml version="1.0" encoding="utf-8"?>
<!-- Generator: Adobe Illustrator 24.3.0, SVG Export Plug-In . SVG Version: 6.00 Build 0)  -->
<svg version="1.1" id="Layer_1" xmlns="http://www.w3.org/2000/svg" xmlns:xlink="http://www.w3.org/1999/xlink" x="0px" y="0px"
	 viewBox="0 0 1585.53 548.43" style="enable-background:new 0 0 1585.53 548.43;" xml:space="preserve">
<style type="text/css">
	.st0{fill:#EF524D;}
	.st1{fill:#FFFFFF;}
</style>
<g>
	<g>
		<path class="st1" d="M590.9,163.87c2.53-0.19,3.8,0.78,3.8,2.92c0,1.37-0.58,2.83-1.75,4.38c-1.17,1.56-2.34,2.44-3.51,2.63
			c-8.58,0.98-16.37,1.46-23.38,1.46c-10.33,0-17.05,1.66-20.17,4.97c-12.67,13.25-28.94,36.44-48.81,69.57
			c-18.71,30.98-30.6,53.59-35.66,67.81c-1.56,4.29-2.34,7.99-2.34,11.11c0,3.11-1.07,4.68-3.22,4.68c-2.92,0-6.14-2.15-9.64-6.43
			c-2.15-2.73-3.7-5.85-4.68-9.35c-0.58-2.34-0.88-4.97-0.88-7.89c0-24.36,22.11-66.54,66.35-126.56c2.73-2.73,4.48-4.68,5.26-5.85
			c0-0.58-2.05-0.78-6.14-0.58c-6.82,0-16.95,0.29-30.4,0.88c-7.21,0.58-13.45,0.29-18.71-0.88c-1.75-0.39-3.61-1.56-5.55-3.51
			c-1.95-1.95-2.83-3.9-2.63-5.85c0.39-6.62,4.58-9.45,12.57-8.48c14.42,1.95,23.48,3.02,27.18,3.22
			c5.26,0.58,14.22,0.98,26.89,1.17c3.7,0,6.91-0.88,9.65-2.63c3.9-2.73,8.86-4.09,14.91-4.09c1.95,0,3.9,0.2,5.85,0.58
			c3.9,0.98,6.53,2.39,7.89,4.24c1.36,1.85,3.22,2.78,5.55,2.78C570.82,164.35,581.35,164.26,590.9,163.87z"/>
		<path class="st1" d="M635.91,229.81c0,4.15-0.93,6.81-2.78,7.99c-1.85,1.18-4.14,1.38-6.87,0.6c-1.56-0.4-3.12-2.3-4.68-5.71
			c-1.56-3.4-4.68-5.11-9.35-5.11c-12.28,0-25.72,7.63-40.34,22.89c-13.45,14.09-22.02,27.69-25.72,40.79
			c-0.58,1.76-0.88,3.33-0.88,4.7c0,2.54,1.07,3.81,3.22,3.81c7.02,0,23.38-13.83,49.11-41.51c3.7-4.09,7.4-8.08,11.11-11.98
			c3.7-3.9,7.31-5.94,10.82-6.14c3.7-0.19,7.16,0.98,10.38,3.51c3.22,2.54,4.82,5.55,4.82,9.06c0,3.32-0.78,6.14-2.34,8.48
			c-4.68,7.41-11.01,18.22-19,32.44c-6.24,13.45-9.64,24.65-10.23,33.61c-0.2,2.92-2.92,3.6-8.18,2.05
			c-9.55-2.73-14.32-11.11-14.32-25.14c0-9.16,2.05-16.76,6.14-22.8c-27.67,30.21-49.79,45.31-66.35,45.31
			c-7.41,0-11.6-2.44-12.57-7.33c-0.2-1.56-0.29-3.22-0.29-4.98c0-15.63,7.6-33.6,22.8-53.92c16.56-22.27,34.97-36.14,55.24-41.62
			c6.04-1.76,12.37-2.64,19-2.64C625.48,215.99,635.91,220.53,635.91,229.81z"/>
		<path class="st1" d="M764.52,159.48c-10.92,9.75-26.01,29.13-45.3,58.17c-31.57,47.74-50.67,82.53-57.29,104.35
			c-0.2,3.12-0.49,6.43-0.88,9.94c-0.2,0.19-0.39,0.39-0.58,0.58c-0.78,0.39-1.56,0.58-2.34,0.58c-4.49,0-8.18-3.22-11.11-9.65
			c-2.73-5.45-4.09-10.91-4.09-16.37c0-15.39,12.66-43.06,38-83.01c9.74-15.39,19.88-29.71,30.4-42.97
			c12.86-16.17,22.31-25.53,28.35-28.06c1.36-0.78,4.58-1.65,9.65-2.63c6.43-0.58,11.2,0.34,14.32,2.78
			C766.75,155.64,767.05,157.73,764.52,159.48z"/>
		<path class="st1" d="M829.99,229.81c0,4.15-0.93,6.81-2.78,7.99c-1.85,1.18-4.14,1.38-6.87,0.6c-1.56-0.4-3.12-2.3-4.68-5.71
			c-1.56-3.4-4.68-5.11-9.35-5.11c-12.28,0-25.72,7.63-40.34,22.89c-13.45,14.09-22.02,27.69-25.72,40.79
			c-0.58,1.76-0.88,3.33-0.88,4.7c0,2.54,1.07,3.81,3.22,3.81c7.02,0,23.38-13.83,49.11-41.51c3.7-4.09,7.4-8.08,11.11-11.98
			c3.7-3.9,7.31-5.94,10.82-6.14c3.7-0.19,7.16,0.98,10.38,3.51c3.22,2.54,4.82,5.55,4.82,9.06c0,3.32-0.78,6.14-2.34,8.48
			c-4.68,7.41-11.01,18.22-19,32.44c-6.24,13.45-9.64,24.65-10.23,33.61c-0.2,2.92-2.92,3.6-8.18,2.05
			c-9.55-2.73-14.32-11.11-14.32-25.14c0-9.16,2.05-16.76,6.14-22.8c-27.67,30.21-49.79,45.31-66.35,45.31
			c-7.41,0-11.6-2.44-12.57-7.33c-0.2-1.56-0.29-3.22-0.29-4.98c0-15.63,7.6-33.6,22.8-53.92c16.56-22.27,34.97-36.14,55.24-41.62
			c6.04-1.76,12.37-2.64,19-2.64C819.56,215.99,829.99,220.53,829.99,229.81z"/>
		<path class="st1" d="M953.92,217.94c3.9,1.95,5.85,5.85,5.85,11.69c0,8.18-3.8,19.68-11.4,34.49
			c-6.04,11.3-11.4,19.78-16.08,25.43c-7.41,8.77-15.98,16.56-25.72,23.38c-11.11,7.8-21.44,12.47-30.98,14.03
			c-6.43,0.97-11.84,0.73-16.22-0.73c-4.38-1.46-6.58-3.65-6.58-6.58c0-1.17,0.58-1.75,1.75-1.75c0.78,0,1.9,0.2,3.36,0.58
			c1.46,0.39,2.68,0.58,3.65,0.58c10.33,0,22.51-9.16,36.54-27.48c11.11-14.42,19.09-27.67,23.97-39.75
			c1.17-2.92,1.75-5.26,1.75-7.01c0-1.75-0.78-2.63-2.34-2.63c-6.04,0-17.73,8.48-35.07,25.43c-12.86,12.67-22.46,24.65-28.79,35.95
			c-6.33,11.3-9.02,20.36-8.04,27.18c0,0.97-0.39,1.8-1.17,2.48c-0.78,0.68-1.75,0.73-2.92,0.15c-8.18-3.51-12.57-11.5-13.15-23.97
			c-0.59-9.16,3.11-21.73,11.11-37.71c5.06-10.52,14.13-26.11,27.18-46.77c15.2-24.16,29.13-43.36,41.8-57.58
			c9.35-10.71,18.31-16.37,26.89-16.95c4.28-0.19,7.5,0.1,9.65,0.88c3.9,1.17,5.85,2.83,5.85,4.97c0,1.56-1.07,3.32-3.22,5.26
			c-5.46,4.68-17.25,20.07-35.37,46.18c-15.59,22.41-28.06,41.41-37.41,57c11.5-14.22,23.43-25.87,35.81-34.93
			c12.37-9.06,22.84-13.59,31.42-13.59C948.95,216.19,951.58,216.77,953.92,217.94z"/>
		<path class="st1" d="M1073.17,229.81c0,4.15-0.93,6.81-2.78,7.99c-1.85,1.18-4.14,1.38-6.87,0.6c-1.56-0.4-3.12-2.3-4.68-5.71
			c-1.56-3.4-4.68-5.11-9.35-5.11c-12.28,0-25.72,7.63-40.34,22.89c-13.45,14.09-22.02,27.69-25.72,40.79
			c-0.58,1.76-0.88,3.33-0.88,4.7c0,2.54,1.07,3.81,3.22,3.81c7.02,0,23.38-13.83,49.11-41.51c3.7-4.09,7.4-8.08,11.11-11.98
			c3.7-3.9,7.31-5.94,10.82-6.14c3.7-0.19,7.16,0.98,10.38,3.51c3.22,2.54,4.82,5.55,4.82,9.06c0,3.32-0.78,6.14-2.34,8.48
			c-4.68,7.41-11.01,18.22-19,32.44c-6.24,13.45-9.64,24.65-10.23,33.61c-0.2,2.92-2.92,3.6-8.18,2.05
			c-9.55-2.73-14.32-11.11-14.32-25.14c0-9.16,2.05-16.76,6.14-22.8c-27.67,30.21-49.79,45.31-66.35,45.31
			c-7.41,0-11.6-2.44-12.57-7.33c-0.2-1.56-0.29-3.22-0.29-4.98c0-15.63,7.6-33.6,22.8-53.92c16.56-22.27,34.97-36.14,55.24-41.62
			c6.04-1.76,12.37-2.64,19-2.64C1062.75,215.99,1073.17,220.53,1073.17,229.81z"/>
		<path class="st1" d="M1183.36,180.53c1.94,1.75,1.85,3.8-0.29,6.14c-6.82,7.21-15.88,18.81-27.18,34.78c4.28,0,8.23,0,11.84,0
			c3.6,0,6.38,0,8.33,0c1.94,0,2.92,0.83,2.92,2.49c0,1.48-0.63,2.96-1.9,4.44c-1.27,1.48-2.58,2.31-3.95,2.49
			c-3.9,0.19-12.28,0.65-25.14,1.39c-9.16,13.64-20.41,31.28-33.76,52.91c-13.35,21.63-20.41,36.54-21.19,44.72
			c0,1.36-0.2,3.02-0.59,4.97c-0.98,1.17-2.44,1.36-4.38,0.58c-5.85-2.53-9.65-7.7-11.4-15.49c-0.78-3.7-1.17-6.82-1.17-9.35
			c0-9.16,3.51-20.36,10.52-33.61c2.53-4.68,11.88-19.88,28.06-45.6c-4.48,0-6.63,0-6.43,0c-3.32-0.39-5.36-2.05-6.14-4.97
			c-0.58-1.75-0.68-3.6-0.29-5.55c0.39-2.14,1.36-3.02,2.92-2.63c5.06,1.17,10.81,1.75,17.25,1.75c7.4-9.35,14.91-18.8,22.51-28.35
			c8.96-9.94,17.34-15,25.14-15.2C1175.47,176.24,1180.24,177.6,1183.36,180.53z"/>
		<path class="st1" d="M1257.9,223.2c0.39,3.9-0.69,7.01-3.22,9.35c-1.95,1.56-4,2.15-6.14,1.75c-1.37,0-2.68-1.07-3.95-3.22
			c-1.27-2.14-2.58-3.22-3.95-3.22c-9.75,0-22.51,10.72-38.29,32.15c-15.2,20.66-22.7,36.24-22.51,46.77c0,4.48,2.14,6.82,6.43,7.01
			c5.26,0,12.37-2.53,21.34-7.6c7.79-4.09,14.13-8.38,19-12.86c3.31-3.11,6.14-3.22,8.48-0.29c1.17,3.12,0.58,5.75-1.75,7.89
			c-22.02,19.1-44.92,28.64-68.69,28.64c-13.64,0-20.46-6.14-20.46-18.41c0-10.71,4.58-23.19,13.74-37.41
			c7.01-10.71,14.62-19.88,22.8-27.48c22.41-20.46,43.26-30.69,62.55-30.69C1252.44,215.6,1257.31,218.14,1257.9,223.2z"/>
		<path class="st1" d="M1352.6,236.35c0,17.73-10.04,37.22-30.11,58.46c-20.46,21.83-39.85,32.74-58.17,32.74
			c-12.47,0-18.71-7.11-18.71-21.34c0-17.93,7.99-36.92,23.97-57c17.34-21.63,36.14-32.44,56.41-32.44c6.23,0,10.33,1.27,12.28,3.8
			c2.53,3.32,2.73,4.97,0.58,4.97c-2.53-0.19-5.17,0.1-7.89,0.88c-12.47,3.9-24.46,13.64-35.95,29.23
			c-4.68,6.43-8.82,14.03-12.42,22.8c-3.61,8.77-5.41,15.88-5.41,21.34c0,5.07,1.95,7.6,5.85,7.6c7.01,0,15.59-5.65,25.72-16.95
			c12.08-13.45,21.14-30.2,27.18-50.27c0.58-2.14,1.17-4.28,1.75-6.43c1.56-2.92,4.28-4.38,8.18-4.38
			C1350.35,229.54,1352.6,231.87,1352.6,236.35z"/>
		<path class="st1" d="M1561.29,242.05c-3.7,5.55-11.11,17-22.21,34.34c-14.42,23-21.44,38.88-21.05,47.64
			c0,1.75-0.88,2.92-2.63,3.51c-1.37,0.39-2.92,0.29-4.68-0.29c-9.16-3.11-13.74-10.13-13.74-21.05c0-15.39,8.28-34.68,24.85-57.87
			c1.36-1.95,2.05-3.41,2.05-4.38c0-1.17-0.78-1.75-2.34-1.75c-3.51,0-7.6,1.37-12.28,4.09c-11.11,6.82-23.29,16.66-36.54,29.52
			c-9.94,9.75-22.12,25.14-36.54,46.18c-1.37,1.95-3.8,2.92-7.31,2.92c-3.12,0-6.33-0.78-9.65-2.34c-4.68-2.34-7.01-6.23-7.01-11.69
			c0-3.31,0.88-6.82,2.63-10.52c5.45-11.88,15.39-27.77,29.81-47.64c2.92-4.09,4.39-7.02,4.39-8.77c0-1.17-0.69-1.75-2.05-1.75
			c-2.73,0-6.33,1.37-10.81,4.12c-11.11,6.87-23.29,16.78-36.54,29.73c-9.55,9.42-22.12,25.61-37.71,48.56
			c-1.36,1.96-3.8,2.94-7.31,2.94c-10.52,0-15.78-4.41-15.78-13.22c0-6.07,2.92-13.91,8.77-23.51c5.06-8.03,13.15-20.67,24.26-37.91
			c8.38-13.32,15-23.21,19.88-29.68c2.53-3.53,6.14-5.29,10.81-5.29c3.9,0,7.4,1.46,10.52,4.38c2.14,2.15,3.22,4.78,3.22,7.89
			c0,4.09-1.85,9.16-5.55,15.2c-4.48,7.41-11.21,17.05-20.17,28.94c27.86-30.2,52.12-48.23,72.78-54.07
			c9.35-2.73,16.12-2.29,20.31,1.32c4.19,3.61,6.28,7.36,6.28,11.25c0,3.12-1.66,6.82-4.97,11.11c-3.32,4.29-10.43,14.42-21.34,30.4
			c30.01-30.98,55.83-49.49,77.46-55.54c9.35-2.53,16.17-2.05,20.46,1.46c3.51,2.92,5.26,6.14,5.26,9.65
			C1566.85,232.46,1564.99,236.5,1561.29,242.05z"/>
	</g>
	<g>
		<path class="st1" d="M137.44,13.83c13.63,2.7,26.38,8.18,36,18.46c276.54,285.69,276.75,179.79,0.31,465.58
			c-26.57,28.81-77.1,23.36-95.49-11.79C0.16,351.52,0.62,178.53,78.35,44C89.93,22.31,113.46,12.17,137.44,13.83z M38.24,252.56
			c-0.11,78.92,22.05,156.77,64.05,223.62c16.79,26.79,51.53,29.97,72.92,6.59c24.69-26.98,49.35-53.99,74.01-81
			c33.85-37.08,67.81-74.06,101.5-111.29c17.81-19.69,15.88-47.27-3.78-65.09c-64.86-58.81-129.27-118.12-194.22-176.82
			C64.8-10.37,38.38,198.19,38.24,252.56z"/>
		<path class="st1" d="M127.59,133.42c9.2-0.91,18.01-1.79,27.42-2.72c-1.2,24.44-2.39,48.49-3.56,72.42
			c17.18-29.55,52.73-41,85.4-38.67c65.09,11.13,30.09,94.78-69.26,71.47c-28.05-6.33-15.88-5.27-23.99,21.02
			c0-8.67,0-17.33,0-26.34c-19.96-3.93-77.36-28.73-76.52,8.25c0.75,13.21,13.75,19.87,22.67,27.17
			c-53.91-4.08-58.6-93.36,55.66-61.86C139.41,180.35,133.54,157.06,127.59,133.42z M161.29,207.03c25.95,4.39,56.42,11.91,78.9-5.1
			c7.62-6.66,6.63-12.34-2.94-15.31C210.79,178.8,179.04,184.52,161.29,207.03z"/>
		<path class="st1" d="M226.09,301.25c-13.42,29.65-27.18,59.15-40.64,88.78c-4.55,12.71-22.24,12.66-26.68-0.09
			c-21.57-50.05-44.17-99.72-65.33-149.92c8.52-3.24,16.89-6.41,25.55-9.7c18.77,52.38,32.54,106.98,53.53,158.12
			c20.85-26.3,34.64-58.99,52.96-87.52C225.69,301.03,225.89,301.14,226.09,301.25z"/>
	</g>
</g>
</svg>
