<svg xmlns="http://www.w3.org/2000/svg" xmlns:xlink="http://www.w3.org/1999/xlink" width="36" height="36" viewBox="0 0 36 36">
  <defs>
    <clipPath id="clip-path">
      <rect id="Rectangle_18835" data-name="Rectangle 18835" width="36" height="36" transform="translate(115 431)" fill="#fff" stroke="#707070" stroke-width="1"/>
    </clipPath>
  </defs>
  <g id="Mask_Group_190" data-name="Mask Group 190" transform="translate(-115 -431)" clip-path="url(#clip-path)">
    <g id="coins" transform="translate(115 432.283)">
      <path id="Path_7037" data-name="Path 7037" d="M14.906,17.73V19.84c0,2.4-3.234,4.219-7.453,4.219S0,22.245,0,19.84V17.73Z" transform="translate(0 7.582)" fill="#fea832"/>
      <path id="Path_7038" data-name="Path 7038" d="M12.422,17.73V19.84c0,2.4-3.234,4.219-7.453,4.219V17.73Z" transform="translate(2.484 7.582)" fill="#fe9923"/>
      <path id="Path_7039" data-name="Path 7039" d="M14.906,16.324v2.109c0,2.4-3.234,4.219-7.453,4.219S0,20.838,0,18.434V16.324Z" transform="translate(0 6.879)" fill="#fea832"/>
      <path id="Path_7040" data-name="Path 7040" d="M12.422,16.324v2.109c0,2.4-3.234,4.219-7.453,4.219V16.324Z" transform="translate(2.484 6.879)" fill="#fe9923"/>
      <path id="Path_7041" data-name="Path 7041" d="M14.906,16.324v2.109c0,2.4-3.234,4.219-7.453,4.219S0,20.838,0,18.434V16.324Z" transform="translate(0 6.879)" fill="#fedb41"/>
      <path id="Path_7042" data-name="Path 7042" d="M12.422,16.324v2.109c0,2.4-3.234,4.219-7.453,4.219V16.324Z" transform="translate(2.484 6.879)" fill="#fc3"/>
      <path id="Path_7043" data-name="Path 7043" d="M14.906,14.918v2.109c0,2.4-3.234,4.219-7.453,4.219S0,19.432,0,17.027V14.918Z" transform="translate(0 6.176)" fill="#fea832"/>
      <path id="Path_7044" data-name="Path 7044" d="M12.422,14.918v2.109c0,2.4-3.234,4.219-7.453,4.219V14.918Z" transform="translate(2.484 6.176)" fill="#fe9923"/>
      <path id="Path_7045" data-name="Path 7045" d="M14.906,13.512v2.109c0,2.4-3.234,4.219-7.453,4.219S0,18.026,0,15.621V13.512Z" transform="translate(0 5.473)" fill="#fedb41"/>
      <path id="Path_7046" data-name="Path 7046" d="M12.422,13.512v2.109c0,2.4-3.234,4.219-7.453,4.219V13.512Z" transform="translate(2.484 5.473)" fill="#fc3"/>
      <path id="Path_7047" data-name="Path 7047" d="M14.906,12.105v2.109c0,2.4-3.234,4.219-7.453,4.219S0,16.62,0,14.215V12.105Z" transform="translate(0 4.77)" fill="#fea832"/>
      <path id="Path_7048" data-name="Path 7048" d="M12.422,12.105v2.109c0,2.4-3.234,4.219-7.453,4.219V12.105Z" transform="translate(2.484 4.77)" fill="#fe9923"/>
      <path id="Path_7049" data-name="Path 7049" d="M14.906,10.7v2.109c0,2.4-3.234,4.219-7.453,4.219S0,15.213,0,12.809V10.7Z" transform="translate(0 4.066)" fill="#fedb41"/>
      <path id="Path_7050" data-name="Path 7050" d="M12.422,10.7v2.109c0,2.4-3.234,4.219-7.453,4.219V10.7Z" transform="translate(2.484 4.066)" fill="#fc3"/>
      <path id="Path_7051" data-name="Path 7051" d="M14.906,9.293V11.4c0,2.4-3.234,4.219-7.453,4.219S0,13.807,0,11.4V9.293Z" transform="translate(0 3.363)" fill="#fea832"/>
      <path id="Path_7052" data-name="Path 7052" d="M12.422,9.293V11.4c0,2.4-3.234,4.219-7.453,4.219V9.293Z" transform="translate(2.484 3.363)" fill="#fe9923"/>
      <path id="Path_7053" data-name="Path 7053" d="M14.906,7.887V10c0,2.4-3.234,4.219-7.453,4.219S0,12.4,0,10V7.887Z" transform="translate(0 2.66)" fill="#fedb41"/>
      <path id="Path_7054" data-name="Path 7054" d="M12.422,7.887V10c0,2.4-3.234,4.219-7.453,4.219V7.887Z" transform="translate(2.484 2.66)" fill="#fc3"/>
      <path id="Path_7055" data-name="Path 7055" d="M14.906,6.48V8.59c0,2.4-3.234,4.219-7.453,4.219S0,10.995,0,8.59V6.48Z" transform="translate(0 1.957)" fill="#fea832"/>
      <path id="Path_7056" data-name="Path 7056" d="M12.422,6.48V8.59c0,2.4-3.234,4.219-7.453,4.219V6.48Z" transform="translate(2.484 1.957)" fill="#fe9923"/>
      <path id="Path_7057" data-name="Path 7057" d="M14.906,5.074V7.184c0,2.4-3.234,4.219-7.453,4.219S0,9.588,0,7.184V5.074Z" transform="translate(0 1.254)" fill="#fedb41"/>
      <path id="Path_7058" data-name="Path 7058" d="M12.422,5.074V7.184c0,2.4-3.234,4.219-7.453,4.219V5.074Z" transform="translate(2.484 1.254)" fill="#fc3"/>
      <path id="Path_7059" data-name="Path 7059" d="M14.906,3.668V5.777c0,2.4-3.234,4.219-7.453,4.219S0,8.182,0,5.777V3.668Z" transform="translate(0 0.551)" fill="#fea832"/>
      <path id="Path_7060" data-name="Path 7060" d="M12.422,3.668V5.777c0,2.4-3.234,4.219-7.453,4.219V3.668Z" transform="translate(2.484 0.551)" fill="#fe9923"/>
      <path id="Path_7061" data-name="Path 7061" d="M7.453.855C3.234.855,0,2.67,0,5.074S3.234,9.293,7.453,9.293s7.453-1.814,7.453-4.219S11.672.855,7.453.855Z" transform="translate(0 -0.855)" fill="#fedb41"/>
      <path id="Path_7062" data-name="Path 7062" d="M12.422,5.074c0,2.4-3.234,4.219-7.453,4.219V.855C9.188.855,12.422,2.67,12.422,5.074Z" transform="translate(2.484 -0.855)" fill="#fc3"/>
      <path id="Path_7063" data-name="Path 7063" d="M24.7,17.73V19.84c0,2.4-3.164,4.219-7.383,4.219S9.938,22.245,9.938,19.84V17.73Z" transform="translate(4.969 7.582)" fill="#fea832"/>
      <path id="Path_7064" data-name="Path 7064" d="M22.242,17.73V19.84c0,2.4-3.164,4.219-7.383,4.219V17.73Z" transform="translate(7.43 7.582)" fill="#fe9923"/>
      <path id="Path_7065" data-name="Path 7065" d="M24.7,16.324v2.109c0,2.4-3.164,4.219-7.383,4.219s-7.383-1.814-7.383-4.219V16.324Z" transform="translate(4.969 6.879)" fill="#fedb41"/>
      <path id="Path_7066" data-name="Path 7066" d="M22.242,16.324v2.109c0,2.4-3.164,4.219-7.383,4.219V16.324Z" transform="translate(7.43 6.879)" fill="#fc3"/>
      <path id="Path_7067" data-name="Path 7067" d="M24.7,14.918v2.109c0,2.4-3.164,4.219-7.383,4.219s-7.383-1.814-7.383-4.219V14.918Z" transform="translate(4.969 6.176)" fill="#fea832"/>
      <path id="Path_7068" data-name="Path 7068" d="M22.242,14.918v2.109c0,2.4-3.164,4.219-7.383,4.219V14.918Z" transform="translate(7.43 6.176)" fill="#fe9923"/>
      <path id="Path_7069" data-name="Path 7069" d="M24.7,13.512v2.109c0,2.4-3.164,4.219-7.383,4.219s-7.383-1.814-7.383-4.219V13.512Z" transform="translate(4.969 5.473)" fill="#fedb41"/>
      <path id="Path_7070" data-name="Path 7070" d="M22.242,13.512v2.109c0,2.4-3.164,4.219-7.383,4.219V13.512Z" transform="translate(7.43 5.473)" fill="#fc3"/>
      <path id="Path_7071" data-name="Path 7071" d="M24.7,12.105v2.109c0,2.4-3.164,4.219-7.383,4.219S9.938,16.62,9.938,14.215V12.105Z" transform="translate(4.969 4.77)" fill="#fea832"/>
      <path id="Path_7072" data-name="Path 7072" d="M22.242,12.105v2.109c0,2.4-3.164,4.219-7.383,4.219V12.105Z" transform="translate(7.43 4.77)" fill="#fe9923"/>
      <path id="Path_7073" data-name="Path 7073" d="M24.7,10.7v2.109c0,2.4-3.164,4.219-7.383,4.219s-7.383-1.814-7.383-4.219V10.7Z" transform="translate(4.969 4.066)" fill="#fedb41"/>
      <path id="Path_7074" data-name="Path 7074" d="M22.242,10.7v2.109c0,2.4-3.164,4.219-7.383,4.219V10.7Z" transform="translate(7.43 4.066)" fill="#fc3"/>
      <path id="Path_7075" data-name="Path 7075" d="M24.7,9.293V11.4c0,2.4-3.164,4.219-7.383,4.219S9.938,13.807,9.938,11.4V9.293Z" transform="translate(4.969 3.363)" fill="#fea832"/>
      <path id="Path_7076" data-name="Path 7076" d="M22.242,9.293V11.4c0,2.4-3.164,4.219-7.383,4.219V9.293Z" transform="translate(7.43 3.363)" fill="#fe9923"/>
      <path id="Path_7077" data-name="Path 7077" d="M24.7,7.887V10c0,2.4-3.164,4.219-7.383,4.219S9.938,12.4,9.938,10V7.887Z" transform="translate(4.969 2.66)" fill="#fedb41"/>
      <path id="Path_7078" data-name="Path 7078" d="M22.242,7.887V10c0,2.4-3.164,4.219-7.383,4.219V7.887Z" transform="translate(7.43 2.66)" fill="#fc3"/>
      <path id="Path_7079" data-name="Path 7079" d="M24.7,6.48V8.59c0,2.4-3.164,4.219-7.383,4.219S9.938,10.995,9.938,8.59V6.48Z" transform="translate(4.969 1.957)" fill="#fea832"/>
      <path id="Path_7080" data-name="Path 7080" d="M22.242,6.48V8.59c0,2.4-3.164,4.219-7.383,4.219V6.48Z" transform="translate(7.43 1.957)" fill="#fe9923"/>
      <path id="Path_7081" data-name="Path 7081" d="M17.32,3.668c-4.219,0-7.383,1.814-7.383,4.219s3.164,4.219,7.383,4.219S24.7,10.291,24.7,7.887,21.539,3.668,17.32,3.668Z" transform="translate(4.969 0.551)" fill="#fedb41"/>
      <path id="Path_7082" data-name="Path 7082" d="M22.242,7.887c0,2.4-3.164,4.219-7.383,4.219V3.668C19.078,3.668,22.242,5.482,22.242,7.887Z" transform="translate(7.43 0.551)" fill="#fc3"/>
      <path id="Path_7083" data-name="Path 7083" d="M21.188,11.895a8.438,8.438,0,1,0,8.438,8.438A8.435,8.435,0,0,0,21.188,11.895Z" transform="translate(6.375 4.664)" fill="#fea832"/>
      <path id="Path_7084" data-name="Path 7084" d="M26.813,20.332a8.435,8.435,0,0,1-8.437,8.438V11.895A8.435,8.435,0,0,1,26.813,20.332Z" transform="translate(9.188 4.664)" fill="#fe9923"/>
      <path id="Path_7085" data-name="Path 7085" d="M20.484,13.3a6.328,6.328,0,1,0,6.328,6.328A6.347,6.347,0,0,0,20.484,13.3Z" transform="translate(7.078 5.367)" fill="#fedb41"/>
      <path id="Path_7086" data-name="Path 7086" d="M24.7,19.629a6.347,6.347,0,0,1-6.328,6.328V13.3A6.347,6.347,0,0,1,24.7,19.629Z" transform="translate(9.188 5.367)" fill="#fc3"/>
    </g>
  </g>
</svg>
