<svg id="Capa_1" enable-background="new 0 0 456 456" height="512" viewBox="0 0 456 456" width="512" xmlns="http://www.w3.org/2000/svg"><g><g id="Menu_1_"><ellipse cx="289.265" cy="147.25" rx="15.945" ry="24.18"/><path d="m357.047 0h-232.313v391.992h113.344v56.008c-.001 4.417 3.579 7.999 7.996 8 1.678 0 3.314-.527 4.676-1.508l30.961-22.289 30.969 22.289c3.587 2.58 8.586 1.764 11.166-1.822.979-1.36 1.505-2.994 1.506-4.67v-56.008h31.695c16.682-.018 30.201-13.537 30.219-30.219v-331.554c-.018-16.682-13.537-30.201-30.219-30.219zm-67.782 107.07c17.617 0 31.945 18.023 31.945 40.18 0 18.662-10.213 34.25-23.945 38.748v89.072c0 4.418-3.582 8-8 8s-8-3.582-8-8v-89.072c-13.732-4.498-23.945-20.086-23.945-38.748 0-22.156 14.328-40.18 31.945-40.18zm-90.531 8c0-4.418 3.582-8 8-8s8 3.582 8 8v30.977c0 4.418-3.582 8-8 8s-8-3.582-8-8zm16 71.221v88.779c0 4.418-3.582 8-8 8s-8-3.582-8-8v-88.779c-14.062-3.629-23.902-16.292-23.945-30.814v-40.407c0-4.418 3.582-8 8-8s8 3.582 8 8v40.406c-.005 8.806 7.129 15.95 15.936 15.955 8.806.005 15.95-7.129 15.955-15.936 0-.006 0-.013 0-.019v-40.406c-.006-4.418 3.571-8.005 7.989-8.011s8.005 3.571 8.011 7.989v.022 40.406c-.044 14.523-9.884 27.186-23.946 30.815zm94.617 246.092-22.969-16.531c-2.79-2.01-6.554-2.01-9.344 0l-22.961 16.531v-40.39h55.273v40.39z"/><path d="m68.734 8v375.992c-.003 4.416 3.575 7.997 7.991 8h.009 32v-391.992h-32c-4.416-.003-7.997 3.575-8 7.991z"/></g></g></svg>