<svg id="Capa_1" enable-background="new 0 0 512 512" height="512" viewBox="0 0 512 512" width="512" xmlns="http://www.w3.org/2000/svg"><g><g><path d="m387.316 8-300.18 75.041h300.18z" fill="#e8a04b"/><path d="m87.136 83.041h300.18v-18h-228.175z" fill="#d68d3f"/><path d="m87.136 83.041h337.727v420.959h-337.727z" fill="#f2d26f"/><path d="m87.136 486h337.727v18h-337.727z" fill="#edbb57"/><path d="m170.03 186.916c11.257-11.257 31.304-11.783 47.118 6.353 12.806 14.687 17.61 35.861 6.353 47.118s-32.431 6.453-47.118-6.353c-18.137-15.814-17.61-35.861-6.353-47.118z" fill="#37617c"/></g><g><path d="m154.65 496.971h-60.329v-406.755h222.935c4.15 0 7.515-3.365 7.515-7.515s-3.364-7.515-7.515-7.515h-169.405l60.739-15.184c4.026-1.006 6.475-5.086 5.468-9.113-1.006-4.027-5.089-6.477-9.113-5.468l-119.961 29.991c-3.277.785-5.724 3.92-5.692 7.29v421.783c0 4.15 3.364 7.515 7.515 7.515h67.843c4.15 0 7.515-3.364 7.515-7.515s-3.365-7.514-7.515-7.514z"/><path d="m425.194 75.187h-30.106v-67.673c0-2.314-1.066-4.499-2.89-5.923-1.824-1.424-4.202-1.928-6.447-1.367l-151.667 37.915c-4.026 1.006-6.475 5.086-5.468 9.113 1.006 4.026 5.085 6.474 9.113 5.468l142.33-35.58v58.049h-32.744c-4.15 0-7.515 3.365-7.515 7.515s3.365 7.515 7.515 7.515h70.365v406.754h-232.972c-4.15 0-7.515 3.365-7.515 7.515s3.365 7.515 7.515 7.515h240.486c4.15 0 7.515-3.364 7.515-7.515v-421.786c0-4.15-3.365-7.515-7.515-7.515z"/><path d="m206.767 254.204c5.912 0 11.322-1.348 15.94-3.952l25.084 25.084-50.307 50.307c-2.935 2.934-2.935 7.693 0 10.627 2.934 2.935 7.693 2.935 10.627 0l50.307-50.307 50.307 50.307c2.934 2.935 7.693 2.935 10.627 0 2.935-2.934 2.935-7.693 0-10.627l-50.307-50.307 20.716-20.716c4.367 2.568 9.294 3.899 14.579 3.899.459 0 .922-.01 1.386-.03 26.31-1.137 54.55-33.86 57.683-37.587 2.669-3.176 2.259-7.912-.915-10.584-3.175-2.671-7.914-2.263-10.587.91-7.353 8.727-30.103 31.533-46.841 32.247-1.371.055-2.642-.059-3.846-.314l41.765-41.765c2.935-2.934 2.935-7.693 0-10.627-2.934-2.935-7.693-2.935-10.627 0l-41.768 41.768c-.255-1.205-.369-2.478-.31-3.849.714-16.738 23.52-39.487 32.244-46.838 3.177-2.671 3.587-7.411.917-10.588-2.671-3.177-7.409-3.587-10.588-.917-3.727 3.133-36.451 31.374-37.587 57.684-.251 5.81 1.073 11.222 3.865 15.968l-20.712 20.712-25.085-25.085c3.582-6.352 4.783-14.206 3.379-22.796-1.633-9.992-6.596-20.157-13.977-28.62-9.151-10.495-20.606-16.494-32.256-16.892-9.833-.329-19.05 3.269-25.932 10.151s-10.487 16.092-10.151 25.932c.398 11.65 6.397 23.105 16.891 32.256 8.464 7.381 18.629 12.344 28.621 13.977 2.347.383 4.637.572 6.858.572zm-37.349-47.318c-.192-5.633 1.852-10.887 5.757-14.792 3.737-3.736 8.707-5.769 14.064-5.769.242 0 .484.004.727.012 7.443.254 15.057 4.427 21.441 11.749 11.217 12.865 14.23 29.444 6.716 36.958-7.516 7.513-24.094 4.501-36.958-6.716-7.321-6.385-11.493-13.999-11.747-21.442z"/><path d="m332.285 394.257c4.15 0 7.515-3.365 7.515-7.515s-3.364-7.515-7.515-7.515h-152.57c-4.15 0-7.515 3.365-7.515 7.515s3.365 7.515 7.515 7.515z"/><path d="m206.768 419.085c-4.15 0-7.515 3.365-7.515 7.515s3.364 7.515 7.515 7.515h98.465c4.15 0 7.515-3.364 7.515-7.515 0-4.15-3.365-7.515-7.515-7.515z"/></g></g></svg>