<svg id="Capa_1" enable-background="new 0 0 512 512" height="512" viewBox="0 0 512 512" width="512" xmlns="http://www.w3.org/2000/svg"><g><g><path d="m391.936 57.597v-52.418c0-3.367-3.164-5.838-6.431-5.022l-229.772 57.44 133.505 9z" fill="#e69644"/><path d="m81.195 76.23 189.058 9 121.683-9v-18.633h-236.203z" fill="#d48339"/><path d="m430.805 493.367v-411.961c0-2.858-2.317-5.176-5.176-5.176h-344.434v417.137l170.145 9z" fill="#f1cd65"/><path d="m86.371 512h339.257c2.859 0 5.176-2.317 5.176-5.176v-13.457h-349.609v13.457c0 2.859 2.318 5.176 5.176 5.176z" fill="#ebb34f"/></g><g><path d="m205.035 253.416c6.12 0 11.72-1.395 16.501-4.09l25.967 25.967-52.077 52.077c-3.038 3.038-3.038 7.963 0 11.001s7.963 3.038 11.001 0l52.077-52.077 52.077 52.077c3.038 3.038 7.964 3.038 11.001 0 3.038-3.038 3.038-7.963 0-11.001l-52.077-52.077 21.445-21.445c4.52 2.658 9.621 4.036 15.091 4.036.476 0 .955-.011 1.435-.031 27.235-1.176 56.469-35.051 59.713-38.909 2.763-3.287 2.338-8.19-.947-10.956-3.286-2.765-8.192-2.343-10.96.941-7.612 9.034-31.162 32.642-48.489 33.381-1.419.057-2.735-.061-3.981-.325l43.234-43.234c3.038-3.038 3.038-7.964 0-11.001-3.038-3.038-7.963-3.038-11.001 0l-43.238 43.238c-.264-1.248-.382-2.565-.321-3.985.739-17.327 24.347-40.877 33.378-48.485 3.288-2.765 3.713-7.672.949-10.961-2.765-3.288-7.67-3.713-10.961-.949-3.859 3.244-37.733 32.478-38.909 59.713-.26 6.014 1.111 11.617 4.001 16.53l-21.441 21.441-25.967-25.967c3.708-6.576 4.951-14.706 3.498-23.598-1.69-10.344-6.828-20.866-14.468-29.627-9.473-10.864-21.331-17.074-33.391-17.486-10.179-.34-19.72 3.384-26.844 10.508s-10.856 16.658-10.508 26.844c.412 12.06 6.622 23.918 17.486 33.391 8.762 7.64 19.284 12.778 29.628 14.468 2.428.395 4.799.591 7.098.591z" fill="#315771"/><g fill="#c23756"><path d="m334.969 398.396c4.296 0 7.779-3.483 7.779-7.779s-3.483-7.779-7.779-7.779h-157.938c-4.296 0-7.779 3.483-7.779 7.779s3.483 7.779 7.779 7.779z"/><path d="m205.036 424.098c-4.296 0-7.779 3.483-7.779 7.779s3.483 7.779 7.779 7.779h101.929c4.296 0 7.779-3.483 7.779-7.779s-3.483-7.779-7.779-7.779z"/></g></g></g></svg>