<svg id="Layer_1" enable-background="new 0 0 512.046 512.046" height="512" viewBox="0 0 512.046 512.046" width="512" xmlns="http://www.w3.org/2000/svg"><g><g><g><path d="m220.772 291.528 193.896-62.911 45.397-11.824c32.037 122.754-41.614 248.213-164.505 280.221s-248.486-41.555-280.523-164.309 41.614-248.212 164.505-280.221c39.647-10.326 79.575-9.665 116.552.092l-11.884 45.102z" fill="#f5a26a"/></g><g><path d="m414.667 228.617c3.828 14.737 5.865 30.197 5.865 46.132 0 101.058-81.924 182.981-182.981 182.981s-182.982-81.923-182.982-182.981 81.924-182.981 182.982-182.981c15.437 0 32.339 2.31 46.659 5.91l-46.659 177.072z" fill="#ffdb63"/><g fill="#ffd033"><path d="m244.21 97.678-49.607 188.258 42.948-11.186 46.659-177.072c-14.32-3.599-31.222-5.91-46.659-5.91-6.864 0-13.635.391-20.303 1.127 9.33 1.019 18.588 2.678 26.962 4.783z"/><path d="m414.667 228.617-37.752 9.833c2.362 11.734 3.617 23.869 3.617 36.299 0 94.298-71.334 171.925-162.981 181.889 6.57.714 13.24 1.092 20 1.092 101.058 0 182.981-81.924 182.981-182.981 0-15.935-2.037-31.394-5.865-46.132z"/></g><g><path d="m504.544 169.272c-20.49-77.147-82.301-139.946-159.073-161.77l-63.174 220.901z" fill="#f5a26a"/><g><path d="m349.426 58.85c-5.201-2.051-10.439-3.847-15.702-5.395l-1.333-.218-50.095 175.166 176.673-47.005c-14.592-53.911-53.593-100.483-109.543-122.548z" fill="#ffdb63"/></g><path d="m418.609 192.136 40.361-10.738c-14.593-53.911-53.594-100.483-109.544-122.548-5.201-2.051-10.439-3.847-15.702-5.395l-1.333-.218-7.082 24.764c47.029 23.871 79.903 66.011 93.3 114.135z" fill="#ffd033"/><g><g><g fill="#f54c5a"><ellipse cx="127.665" cy="210.198" rx="26.164" ry="26.135" transform="matrix(1 -.023 .023 1 -4.794 2.988)"/><ellipse cx="144.164" cy="362.298" rx="26.164" ry="26.135" transform="matrix(1 -.023 .023 1 -8.283 3.407)"/><path d="m384.634 236.44c3.645 13.967-4.735 28.242-18.717 31.884s-28.273-4.728-31.918-18.695"/><ellipse cx="311.915" cy="381.438" rx="26.164" ry="26.135" transform="matrix(1 -.023 .023 1 -8.678 7.264)"/><path d="m255.254 206.636c-12.152.647-23.492-7.289-26.681-19.51-3.645-13.967 4.735-28.242 18.717-31.884 6.991-1.821 14.059-.639 19.835 2.744"/></g></g></g><path d="m316.534 111.211c13.88 3.963 21.91 18.438 17.936 32.329-3.974 13.892-18.448 21.941-32.328 17.977" fill="#f54c5a"/><path d="m378.723 200.038c-5.995-10.59-3.946-24.278 5.573-32.581 10.878-9.488 27.392-8.349 36.884 2.544 4.746 5.447 6.838 12.301 6.384 18.979" fill="#f54c5a"/><g><g><path d="m275.688 434.68c1.93 0 1.934-3 0-3-1.93 0-1.933 3 0 3z" fill="#060606"/></g></g></g></g></g><g fill="#060606"><path d="m458.174 209.535-45.389 11.822c-.001 0-.003 0-.004.001-.001 0-.003.001-.004.001l-164.707 42.9 55.276-209.771c1.055-4.004-1.335-8.106-5.339-9.163-39.236-10.353-80.854-10.387-120.356-.098-61.373 15.985-112.843 54.887-144.928 109.541-32.086 54.656-40.944 118.522-24.943 179.831 16.001 61.308 54.945 112.721 109.658 144.768 36.912 21.621 78.012 32.68 119.701 32.679 20.101-.001 40.346-2.573 60.311-7.773 61.374-15.985 112.844-54.888 144.929-109.542 32.086-54.656 40.944-118.521 24.943-179.831-1.046-4.007-5.139-6.407-9.148-5.365zm-80.436 36.451c-.363 2.252-1.131 4.443-2.321 6.471-2.521 4.295-6.567 7.353-11.392 8.609-7.371 1.921-14.875-.865-19.334-6.472zm-127.908-47.27c-6.671-1.5-12.208-6.621-14-13.485-1.257-4.814-.561-9.83 1.959-14.123 2.521-4.295 6.567-7.353 11.392-8.609 3.389-.881 6.87-.781 10.135.216zm179.612 188.42c-30.057 51.2-78.275 87.644-135.773 102.62-57.499 14.977-117.393 6.69-168.65-23.333-51.254-30.021-87.736-78.183-102.725-135.613-14.988-57.429-6.69-117.251 23.365-168.449 30.057-51.2 78.275-87.644 135.773-102.62 34.343-8.944 70.855-9.578 105.466-1.702l-8.094 30.715c-13.482-2.976-27.333-4.487-41.254-4.487-58.443 0-112.835 26.276-149.229 72.09-5.927 7.461 5.554 17.124 11.745 9.33 33.531-42.211 83.642-66.42 137.483-66.42 12.631 0 25.194 1.348 37.429 4.003l-11.834 44.911c-5.732-1.648-11.823-1.741-17.746-.198-8.7 2.266-15.997 7.782-20.546 15.531-4.551 7.752-5.807 16.81-3.537 25.505 3.181 12.189 12.899 21.34 24.69 24.204l-15.708 59.614c-.459 6.553 2.589 9.609 9.143 9.169l90.014-23.445c5.784 11.109 17.381 18.113 29.865 18.111 2.802 0 5.652-.354 8.486-1.092 8.701-2.266 15.998-7.781 20.547-15.531 3.255-5.545 4.815-11.759 4.613-18.031l16.151-4.207c2.586 12.081 3.914 24.469 3.914 36.936 0 96.761-78.721 175.481-175.481 175.481s-175.479-78.718-175.479-175.479c0-27.744 6.285-54.28 18.679-78.871 4.364-8.659-9.031-15.411-13.395-6.751-13.459 26.704-20.284 55.511-20.284 85.622 0 105.032 85.449 190.481 190.481 190.481s190.481-85.45 190.481-190.481c0-13.744-1.484-27.405-4.383-40.721l30.932-8.057c12.474 55.179 3.647 112.13-25.139 161.165z"/><path d="m127.669 243.837c2.802 0 5.651-.354 8.486-1.092 8.701-2.266 15.998-7.781 20.547-15.53 4.551-7.752 5.807-16.81 3.537-25.505-4.683-17.943-23.104-28.736-41.065-24.059-8.7 2.266-15.997 7.782-20.546 15.531-4.55 7.751-5.807 16.809-3.537 25.505 3.943 15.111 17.629 25.151 32.578 25.15zm-16.106-43.062c2.521-4.295 6.567-7.352 11.391-8.609 1.574-.41 3.153-.605 4.708-.605 8.289 0 15.877 5.563 18.063 13.937 1.256 4.814.561 9.83-1.959 14.123-2.521 4.295-6.567 7.352-11.392 8.609-9.958 2.596-20.174-3.385-22.771-13.331-1.256-4.815-.56-9.831 1.96-14.124z"/><path d="m135.673 329.751c-8.701 2.266-15.998 7.781-20.547 15.531-4.55 7.751-5.807 16.809-3.537 25.504 3.943 15.112 17.629 25.152 32.58 25.15 2.802 0 5.651-.353 8.486-1.091 8.7-2.266 15.997-7.782 20.546-15.531 4.55-7.751 5.807-16.809 3.537-25.505-4.683-17.944-23.105-28.737-41.065-24.058zm24.592 41.969c-2.521 4.295-6.567 7.353-11.392 8.609-9.96 2.593-20.175-3.386-22.771-13.332-1.256-4.814-.561-9.83 1.959-14.123 2.521-4.295 6.567-7.353 11.392-8.609 1.574-.41 3.153-.605 4.709-.605 8.289 0 15.876 5.563 18.062 13.937 1.257 4.815.561 9.83-1.959 14.123z"/><path d="m303.425 348.891c-8.701 2.266-15.998 7.781-20.547 15.531-4.551 7.751-5.807 16.809-3.537 25.504 3.944 15.111 17.629 25.15 32.58 25.15 2.802 0 5.65-.353 8.485-1.091 8.701-2.266 15.998-7.782 20.546-15.531 4.551-7.751 5.807-16.809 3.538-25.505-4.684-17.943-23.106-28.734-41.065-24.058zm26.551 27.846c1.256 4.814.561 9.83-1.959 14.123-2.521 4.295-6.567 7.353-11.392 8.609-9.96 2.595-20.174-3.386-22.771-13.332-1.257-4.814-.561-9.83 1.959-14.123 2.521-4.295 6.567-7.352 11.392-8.609 1.574-.41 3.153-.605 4.708-.605 8.289.001 15.877 5.564 18.063 13.937z"/><path d="m185.154 173.591c5.21 8.883 17.641.429 12.938-7.589l-18.954-32.317c-4.906-8.365-17.844-.776-12.938 7.589z"/><path d="m176.462 269.269c3.431 3.161 6.959 3.396 10.583.705l28.206-24.681c7.298-6.385-2.581-17.676-9.878-11.288l-28.206 24.681c-3.117 2.728-3.433 7.466-.705 10.583z"/><path d="m227.45 381.935c-2.614-9.338-17.059-5.296-14.445 4.043l10.096 36.072c2.568 9.176 17.066 5.321 14.445-4.043z"/><path d="m279.516 313.382c.188 0 .379-.007.57-.021l37.392-2.813c9.668-.728 8.549-15.683-1.125-14.958l-37.392 2.813c-9.365.705-8.746 14.979.555 14.979z"/><path d="m204.889 314.78c-2.232 3.49-1.213 8.127 2.276 10.359l31.577 20.198c7.854 5.024 16.449-7.285 8.083-12.636l-31.577-20.198c-3.49-2.232-8.128-1.212-10.359 2.277z"/><path d="m99.387 301.207c.188 0 .379-.007.57-.021l37.392-2.813c9.669-.728 8.547-15.678-1.125-14.958l-37.392 2.813c-9.365.704-8.746 14.979.555 14.979z"/><path d="m355.949 339.409c3.755 2.199 7.22 1.497 10.396-2.106l20.706-31.228c5.358-8.082-7.142-16.37-12.502-8.289l-20.706 31.228c-2.289 3.451-1.346 8.106 2.106 10.395z"/><path d="m375.311 142.077c4.599 0 8.599-5.335 7.131-9.83l-11.63-35.619c-3.009-9.218-17.268-4.562-14.259 4.656l11.63 35.619c1.033 3.164 3.971 5.174 7.128 5.174z"/><path d="m511.792 167.347c-1.946-7.327-4.293-14.659-6.978-21.794-3.413-9.077-17.453-3.795-14.039 5.281 1.626 4.324 3.121 8.726 4.466 13.152l-31.145 8.286c-7.959-25.374-21.255-49.117-38.755-69.041-20.068-22.848-44.684-40.128-73.165-51.359-3.457-1.363-6.976-2.622-10.512-3.786l8.921-31.194c50.11 16.206 94.379 51.295 122.274 97.184 5.036 8.287 17.855.495 12.817-7.791-31.16-51.262-81.516-89.896-138.156-105.998-3.979-1.131-8.124 1.174-9.262 5.152l-63.174 220.901c-1.579 5.521 4.162 10.633 9.139 9.31l222.247-59.13c4.004-1.064 6.385-5.17 5.322-9.173zm-186.153-40.056c6.318 11.387-1.594 26.356-14.526 27.627 3.183-11.129 6.365-22.257 9.548-33.386 1.659 1.92 3.318 3.839 4.978 5.759zm-18.818 42.635c35.273 2.628 49.683-46.965 18.13-63.395l12.587-44.012c3.073 1.022 6.131 2.121 9.138 3.307 26.241 10.349 48.917 26.264 67.397 47.304 15.982 18.196 28.158 39.852 35.515 63.002l-15.198 4.043c-1.173-5.537-3.734-10.717-7.555-15.102-23.225-26.654-68.305-1.821-57.377 32.377l-76.315 20.304zm77.164 23.661c-8.933-24.413 31.525-35.036 35.856-9.54-11.952 3.18-23.904 6.36-35.856 9.54z"/></g></g></svg>