<svg id="Capa_1" enable-background="new 0 0 512 512" height="512" viewBox="0 0 512 512" width="512" xmlns="http://www.w3.org/2000/svg"><circle cx="300.5" cy="60" r="60"/><path d="m406.5 165v60c0 8.28-6.72 15-15 15h-181c-8.28 0-15-6.72-15-15v-60c0-23.59 10.94-44.67 28.02-58.41 15.79 26 44.39 43.41 76.98 43.41 32.81 0 61.58-17.65 77.3-43.95 17.47 13.73 28.7 35.05 28.7 58.95z"/><path d="m477 271h-311v-134c0-6.752-4.511-12.672-11.021-14.463-6.512-1.791-13.415.988-16.868 6.791l-84.329 141.672h-18.782c-19.299 0-35 15.701-35 35v171c0 19.299 15.701 35 35 35h442c19.299 0 35-15.701 35-35v-171c0-19.299-15.701-35-35-35zm-304.513 120.733-15.05 16.247 2.626 21.99c1.389 11.628-10.553 20.314-21.188 15.394l-20.103-9.292-20.103 9.292c-10.631 4.913-22.579-3.748-21.188-15.394l2.625-21.99-15.05-16.247c-7.96-8.594-3.409-22.633 8.093-24.908l21.726-4.299 10.802-19.334c5.711-10.223 20.47-10.238 26.189 0l10.802 19.334 21.726 4.299c11.485 2.272 16.064 16.301 8.093 24.908zm138.157 0-15.05 16.247 2.625 21.99c1.389 11.627-10.544 20.318-21.188 15.394l-20.103-9.292-20.103 9.292c-10.625 4.917-22.579-3.749-21.188-15.394l2.626-21.99-15.05-16.247c-7.96-8.594-3.409-22.633 8.093-24.908l21.726-4.299 10.801-19.333c5.712-10.225 20.471-10.238 26.19-.001l10.802 19.334 21.726 4.299c11.485 2.272 16.064 16.301 8.093 24.908zm136.352 0-15.05 16.247 2.625 21.99c1.389 11.626-10.544 20.319-21.188 15.394l-20.103-9.292-20.103 9.292c-10.625 4.917-22.579-3.749-21.188-15.394l2.626-21.99-15.05-16.247c-7.96-8.594-3.409-22.633 8.093-24.908l21.726-4.299 10.801-19.333c5.712-10.225 20.471-10.238 26.19-.001l10.802 19.334 21.726 4.299c11.485 2.272 16.064 16.301 8.093 24.908z"/></svg>