<svg id="Capa_1" enable-background="new 0 0 511.999 511.999" height="512" viewBox="0 0 511.999 511.999" width="512" xmlns="http://www.w3.org/2000/svg"><g><g><g><path d="m353.212 109.591-19.928 19.428c-6.136 5.98-8.938 14.593-7.487 23.037l4.704 27.428c3.647 21.26-18.665 37.473-37.761 27.434l-24.632-12.948c-7.581-3.991-16.638-3.991-24.219 0l-24.632 12.948c-19.096 10.039-41.407-6.174-37.761-27.434l4.704-27.428c1.451-8.444-1.351-17.057-7.487-23.037l-19.928-19.428c-15.443-15.056-6.918-41.282 14.424-44.385l27.54-4.003c8.475-1.232 15.806-6.555 19.597-14.236l12.316-24.957c4.773-9.67 14.055-14.505 23.337-14.505s18.564 4.835 23.337 14.505l12.316 24.957c3.79 7.681 11.121 13.004 19.597 14.236l27.54 4.003c21.341 3.102 29.867 29.329 14.423 44.385z" fill="#f9da41"/><path d="m192.856 112.968c8.15 20.716 20.235 34.571 11.747 54.13-8.488 19.565-4.197 45.26 39.287 26.871l-24.632 12.948c-19.096 10.039-41.407-6.174-37.761-27.434l4.704-27.428c1.451-8.444-1.351-17.057-7.487-23.037l-19.928-19.428c-15.443-15.056-6.918-41.282 14.424-44.385l27.54-4.003c8.475-1.232 15.806-6.555 19.597-14.236l12.316-24.957c4.773-9.67 14.055-14.505 23.337-14.505-18.314 0-10.702 52.816-36.923 66.671-26.221 13.861-34.371 18.077-26.221 38.793z" fill="#edc932"/></g><g><path d="m148.154 200.012-13.365 13.029c-4.115 4.01-5.995 9.787-5.021 15.45l3.155 18.395c2.446 14.259-12.518 25.132-25.325 18.399l-16.52-8.684c-5.084-2.676-11.159-2.676-16.243 0l-16.52 8.684c-12.807 6.733-27.77-4.14-25.325-18.399l3.155-18.395c.973-5.663-.906-11.44-5.021-15.45l-13.365-13.029c-10.357-10.097-4.64-27.687 9.674-29.767l18.47-2.685c5.684-.826 10.601-4.396 13.143-9.548l8.26-16.738c3.201-6.485 9.426-9.728 15.651-9.728s12.451 3.243 15.651 9.728l8.26 16.738c2.542 5.151 7.459 8.721 13.143 9.548l18.47 2.685c14.313 2.08 20.031 19.67 9.673 29.767z" fill="#f9da41"/><path d="m40.609 202.277c5.466 13.894 13.571 23.185 7.878 36.303-5.693 13.122-2.815 30.355 26.348 18.021l-16.52 8.684c-12.807 6.733-27.77-4.14-25.325-18.399l3.155-18.395c.973-5.663-.906-11.44-5.021-15.45l-13.365-13.029c-10.357-10.097-4.64-27.687 9.674-29.767l18.47-2.685c5.684-.826 10.601-4.396 13.143-9.548l8.26-16.738c3.201-6.485 9.426-9.728 15.651-9.728-12.283 0-7.178 35.422-24.763 44.714-17.585 9.296-23.051 12.123-17.585 26.017z" fill="#edc932"/></g><g><path d="m495.278 62.52-10.74 10.47c-3.307 3.223-4.817 7.865-4.035 12.415l2.535 14.782c1.965 11.458-10.059 20.196-20.351 14.785l-13.275-6.978c-4.086-2.151-8.967-2.151-13.053 0l-13.275 6.978c-10.292 5.41-22.316-3.327-20.351-14.785l2.535-14.782c.782-4.551-.728-9.193-4.035-12.415l-10.74-10.47c-8.323-8.114-3.728-22.249 7.774-23.921l14.842-2.157c4.568-.664 8.519-3.533 10.561-7.672l6.637-13.45c2.572-5.212 7.575-7.817 12.577-7.817s10.005 2.606 12.577 7.817l6.637 13.45c2.043 4.14 5.994 7.008 10.561 7.672l14.842 2.157c11.505 1.672 16.1 15.807 7.777 23.921z" fill="#f9da41"/><path d="m408.855 64.34c4.392 11.165 10.905 18.632 6.331 29.173-4.574 10.544-2.262 24.393 21.173 14.482l-13.275 6.978c-10.292 5.41-22.316-3.327-20.351-14.785l2.535-14.782c.782-4.551-.728-9.193-4.035-12.415l-10.74-10.47c-8.323-8.114-3.728-22.249 7.774-23.921l14.842-2.157c4.568-.664 8.519-3.533 10.561-7.672l6.637-13.45c2.572-5.212 7.575-7.817 12.577-7.817-9.87 0-5.768 28.465-19.899 35.932-14.13 7.467-18.522 9.74-14.13 20.904z" fill="#edc932"/></g><g><path d="m354.589 504.5c74.161 0 116.056-75.904 116.056-141.211v-53.916c0-8.389-3.407-15.978-8.893-21.477-5.498-5.498-13.1-8.893-21.477-8.893-16.779 0-30.369 13.591-30.369 30.369v-32.375c0-8.389-3.407-15.978-8.893-21.477-5.498-5.498-13.1-8.893-21.477-8.893-8.389 0-15.978 3.394-21.477 8.893-5.498 5.498-8.893 13.087-8.893 21.477v-3.078c0-8.389-3.407-15.978-8.893-21.477-5.498-5.498-13.1-8.893-21.477-8.893-16.779 0-30.369 13.604-30.369 30.369v-106.325c-.013-16.753-13.604-30.343-30.369-30.343-8.376 0-15.978 3.394-21.477 8.906-5.498 5.498-8.893 13.087-8.893 21.464v142.92s-1.42-10.338-12.997-31.208c-9.293-16.753-30.395-22.793-47.148-13.5-16.74 9.293-22.78 30.395-13.5 47.135 8.906 16.056 8.931 51.975 8.931 52.388v37.048c0 56.387 45.711 102.098 102.098 102.098z" fill="#ffddce"/><g fill="#ffcbbe"><path d="m375.875 494.52c11.32 0 21.88-1.77 31.66-5-15.16 9.41-32.87 14.98-52.95 14.98h-89.509c-56.389 0-102.099-45.71-102.099-102.099v-37.05c0-.41-.03-36.33-8.93-52.39-9.28-16.74-3.24-37.84 13.5-47.13 4.34-2.41 8.97-3.79 13.61-4.21-10.7 10.67-13.51 27.51-5.83 41.37 8.91 16.05 8.93 51.97 8.93 52.39v37.04c0 56.39 45.71 102.099 102.099 102.099z"/><path d="m298.521 324.909c5.573 0 10.092-4.518 10.092-10.092v-40.897c0-8.378 3.396-15.97 8.897-21.471 3.179-3.179 7.058-5.648 11.381-7.172-3.159-1.113-6.554-1.725-10.093-1.725-8.378 0-15.97 3.396-21.471 8.897s-8.897 13.093-8.897 21.471v40.898c-.001 5.573 4.518 10.091 10.091 10.091z"/><path d="m419.999 319.464c5.573 0 10.092-4.518 10.092-10.092v-.001c0-8.378 3.396-15.97 8.897-21.471 3.179-3.179 7.058-5.648 11.381-7.172-3.159-1.113-6.554-1.725-10.093-1.725-8.378 0-15.97 3.396-21.471 8.897s-8.897 13.093-8.897 21.471v.001c0 5.574 4.518 10.092 10.091 10.092z"/><path d="m359.261 327.987c5.573 0 10.092-4.518 10.092-10.092v-40.898c0-8.378 3.396-15.97 8.897-21.471 3.179-3.179 7.058-5.648 11.381-7.172-3.159-1.113-6.554-1.725-10.093-1.725-8.378 0-15.97 3.396-21.471 8.897s-8.897 13.093-8.897 21.471v40.898c-.001 5.573 4.517 10.092 10.091 10.092z"/><path d="m237.783 385.214c5.573 0 10.092-4.518 10.092-10.092v-207.503c0-8.378 3.396-15.97 8.897-21.471 3.179-3.179 7.058-5.648 11.381-7.172-3.159-1.113-6.554-1.725-10.093-1.725-8.378 0-15.97 3.396-21.471 8.897s-8.897 13.093-8.897 21.471v207.504c-.001 5.573 4.517 10.091 10.091 10.091z"/></g></g></g><g><path d="m137.16 227.223c-.554-3.23.516-6.524 2.862-8.811l13.365-13.028c6.852-6.678 9.271-16.48 6.314-25.58s-10.676-15.608-20.145-16.984l-18.47-2.684c-3.242-.471-6.044-2.506-7.494-5.445l-8.26-16.737c-4.234-8.58-12.809-13.91-22.377-13.91s-18.143 5.33-22.377 13.91l-8.261 16.737c-1.45 2.938-4.251 4.974-7.493 5.445l-18.471 2.684c-9.469 1.376-17.188 7.884-20.145 16.984-2.956 9.1-.537 18.901 6.314 25.58l13.365 13.027c2.347 2.287 3.417 5.581 2.863 8.811l-3.155 18.395c-1.618 9.43 2.187 18.782 9.927 24.406 4.374 3.178 9.492 4.792 14.644 4.792 3.966 0 7.952-.957 11.636-2.893l16.521-8.685c2.9-1.525 6.364-1.525 9.263 0l16.521 8.685c8.472 4.453 18.54 3.725 26.279-1.899 7.741-5.624 11.545-14.976 9.927-24.406zm-7.608-19.552c-5.882 5.734-8.564 13.99-7.176 22.087l3.155 18.395c.654 3.819-.826 7.458-3.96 9.735-3.135 2.277-7.053 2.561-10.482.757l-16.521-8.685c-7.271-3.822-15.951-3.823-23.224 0l-16.521 8.685c-3.429 1.802-7.348 1.519-10.481-.758-3.135-2.277-4.615-5.917-3.961-9.735l3.156-18.396c1.388-8.096-1.295-16.353-7.177-22.087l-13.365-13.028c-2.774-2.704-3.716-6.519-2.52-10.203 1.197-3.685 4.201-6.218 8.035-6.775l18.471-2.684c8.13-1.181 15.153-6.284 18.788-13.65l8.261-16.737c1.715-3.474 5.052-5.549 8.926-5.549s7.211 2.074 8.926 5.548l8.26 16.736c3.635 7.367 10.659 12.47 18.789 13.651l18.47 2.684c3.834.557 6.838 3.09 8.035 6.775 1.196 3.685.255 7.499-2.52 10.203z"/><path d="m500.512 67.892c5.91-5.761 7.997-14.216 5.446-22.066s-9.209-13.463-17.377-14.65l-14.842-2.156c-2.126-.309-3.963-1.643-4.913-3.57l-6.638-13.45c-3.652-7.401-11.049-11.999-19.303-11.999s-15.65 4.598-19.302 11.999l-6.638 13.449c-.95 1.927-2.787 3.261-4.913 3.57l-14.842 2.156c-8.168 1.187-14.826 6.801-17.377 14.65-2.551 7.85-.464 16.305 5.446 22.066l10.741 10.47c1.538 1.499 2.239 3.658 1.877 5.776l-2.535 14.782c-1.396 8.135 1.886 16.202 8.563 21.053 6.675 4.851 15.361 5.48 22.669 1.638l13.275-6.979c1.9-1 4.172-.999 6.072 0l13.275 6.979c3.178 1.671 6.616 2.496 10.037 2.496 4.444 0 8.859-1.393 12.632-4.134 6.678-4.851 9.959-12.918 8.563-21.053l-2.535-14.782c-.362-2.117.339-4.277 1.877-5.776zm-21.211-.272c-5.073 4.946-7.388 12.068-6.189 19.053l2.534 14.782c.619 3.609-1.608 5.666-2.596 6.383s-3.633 2.2-6.872.497l-13.275-6.979c-3.137-1.648-6.576-2.473-10.017-2.473s-6.881.824-10.017 2.473l-13.275 6.979c-3.239 1.703-5.885.22-6.872-.497s-3.215-2.774-2.597-6.383l2.535-14.782c1.198-6.985-1.116-14.107-6.189-19.053l-10.74-10.469c-2.622-2.555-2.028-5.529-1.651-6.689s1.645-3.915 5.268-4.441l14.842-2.156c7.013-1.019 13.071-5.421 16.208-11.775l6.638-13.45c1.62-3.283 4.632-3.637 5.852-3.637s4.231.354 5.852 3.637l6.638 13.449c3.137 6.354 9.195 10.756 16.208 11.775l14.842 2.156c3.623.526 4.891 3.281 5.268 4.441s.971 4.134-1.651 6.689z"/><path d="m440.277 271.5c-8.584 0-16.511 2.872-22.869 7.704v-2.204c0-10.096-3.935-19.605-11.087-26.783-7.149-7.149-16.661-11.087-26.783-11.087s-19.634 3.938-26.782 11.087c-.862.861-1.677 1.758-2.444 2.684-1.37-2.048-2.95-3.978-4.729-5.764-7.149-7.149-16.661-11.087-26.783-11.087-8.586 0-16.511 2.877-22.87 7.711v-27.57c2.944.823 5.954 1.246 8.958 1.246 6.923 0 13.801-2.17 19.676-6.44 10.396-7.555 15.503-20.118 13.328-32.783l-4.7-27.433c-1.032-6.011.956-12.136 5.323-16.39l19.931-19.43c8.151-7.949 11.645-18.892 9.583-30.024-2.054-11.096-9.359-20.338-19.542-24.724-3.802-1.638-8.216.117-9.855 3.921-1.638 3.804.117 8.217 3.922 9.855 5.575 2.401 9.586 7.515 10.727 13.678 1.134 6.126-.8 12.159-5.306 16.553l-19.927 19.427c-7.905 7.699-11.509 18.792-9.64 29.669l4.7 27.433c1.22 7.105-1.532 13.876-7.362 18.113-5.834 4.24-13.131 4.765-19.511 1.412l-.305-.16v-32.528c-.012-20.863-17.001-37.835-37.87-37.835-10.128 0-19.642 3.943-26.787 11.101-7.146 7.159-11.082 16.665-11.082 26.769v30.328l-4.421 2.323c-6.383 3.356-13.678 2.83-19.511-1.409-5.832-4.238-8.586-11.009-7.365-18.116l4.698-27.426c1.87-10.882-1.733-21.974-9.636-29.67l-19.93-19.43c-5.164-5.034-6.917-12.133-4.689-18.99 2.229-6.857 7.818-11.57 14.952-12.606l27.537-4c10.925-1.584 20.363-8.442 25.25-18.344l12.31-24.949c3.191-6.47 9.402-10.332 16.613-10.332s13.422 3.862 16.614 10.331l12.31 24.95c4.887 9.902 14.325 16.759 25.243 18.342l4.729.69c4.089.599 7.906-2.239 8.505-6.339.598-4.099-2.24-7.906-6.339-8.504l-4.736-.691c-6.035-.875-11.251-4.665-13.951-10.136l-12.31-24.951c-5.69-11.529-17.211-18.692-30.065-18.692s-24.375 7.163-30.065 18.694l-12.31 24.949c-2.7 5.472-7.916 9.261-13.953 10.137l-27.539 4c-12.72 1.848-23.089 10.59-27.062 22.815s-.721 25.394 8.484 34.367l19.933 19.432c4.364 4.25 6.353 10.376 5.319 16.391l-4.698 27.427c-2.176 12.668 2.934 25.231 13.332 32.787 5.878 4.27 12.753 6.439 19.675 6.439 4.423 0 8.862-.9 13.074-2.69v59.141c-11.766-18.958-36.554-25.557-56.279-14.617-20.326 11.28-27.692 37-16.419 57.335 6.553 11.818 7.988 39.192 7.988 48.742v37.05c0 20.707 5.801 40.863 16.773 58.286 1.426 2.264 3.862 3.504 6.354 3.504 1.366 0 2.749-.373 3.99-1.155 3.505-2.207 4.557-6.838 2.35-10.343-9.465-15.027-14.467-32.418-14.467-50.293v-37.05c0-3.912-.277-38.717-9.87-56.016-7.265-13.103-2.519-29.677 10.578-36.944 13.103-7.268 29.678-2.522 36.943 10.58 9.425 16.986 11.688 26.447 12.061 28.249v63.904c0 4.142 3.357 7.5 7.5 7.5s7.5-3.358 7.5-7.5l-.002-207.501c0-6.102 2.379-11.845 6.697-16.171 4.312-4.32 10.056-6.698 16.172-6.698 12.604 0 22.863 10.248 22.87 22.84v147.229c0 4.142 3.357 7.5 7.5 7.5s7.5-3.358 7.5-7.5v-40.9c0-12.61 10.26-22.87 22.87-22.87 6.115 0 11.86 2.377 16.167 6.684 4.322 4.337 6.702 10.086 6.702 16.186l-.002 43.974c0 4.142 3.357 7.5 7.5 7.5s7.5-3.358 7.5-7.5v-40.856c0-.013.002-.026.002-.039 0-6.115 2.377-11.86 6.694-16.177 4.315-4.316 10.061-6.693 16.176-6.693s11.86 2.377 16.167 6.684c4.322 4.338 6.703 10.086 6.703 16.186v32.37c0 4.142 3.357 7.5 7.5 7.5s7.5-3.358 7.5-7.5c0-12.611 10.259-22.87 22.869-22.87 6.111 0 11.851 2.379 16.167 6.703 4.322 4.323 6.703 10.064 6.703 16.167v53.919c0 32.01-10.761 65.91-28.784 90.683-14.281 19.628-39.714 43.026-79.775 43.026h-89.509c-22.873 0-44.952-8.272-62.169-23.291-3.121-2.723-7.859-2.401-10.582.721-2.724 3.121-2.4 7.859.721 10.582 19.95 17.404 45.531 26.988 72.03 26.988h89.509c36.182 0 68.82-17.473 91.904-49.201 20.117-27.65 31.655-63.92 31.655-99.508v-53.918c0-10.109-3.941-19.618-11.092-26.768-7.144-7.159-16.654-11.102-26.777-11.102z"/></g></g></svg>