<svg id="Capa_1" enable-background="new 0 0 510.1 510.1" height="512" viewBox="0 0 510.1 510.1" width="512" xmlns="http://www.w3.org/2000/svg"><path d="m407.25 30.9v392.4l-152.2 43.3-152.1-43.3v-392.4c0-17 13.8-30.9 30.8-30.9h242.7c17 0 30.8 13.8 30.8 30.9z" fill="#ffeaa3"/><path d="m407.25 30.9v392.4l-152.2 43.3v-466.6h121.4c17 0 30.8 13.8 30.8 30.9z" fill="#ffcf5e"/><path d="m407.25 423.3v55.9c0 17-13.8 30.9-30.8 30.9h-242.7c-17 0-30.8-13.8-30.8-30.9v-55.9z" fill="#44446b"/><g fill="#35355e"><path d="m407.25 423.3v55.9c0 17-13.8 30.9-30.8 30.9h-121.4v-86.7h152.2z"/><path d="m308.05 40c-8.3 0-15 6.7-15 15v4.4c0 8.3 6.7 15 15 15s15-6.7 15-15v-4.4c0-8.3-6.8-15-15-15z"/><path d="m354.15 40c-8.3 0-15 6.7-15 15v4.4c0 8.3 6.7 15 15 15s15-6.7 15-15v-4.4c0-8.3-6.8-15-15-15z"/></g><path d="m293.65 466.6c0 8.3-6.7 15-15 15h-47.3c-8.3 0-15-6.7-15-15s6.7-15 15-15h47.3c8.3 0 15 6.8 15 15z" fill="#ffcf5e"/><path d="m293.65 466.6c0 8.3-6.7 15-15 15h-23.6v-30h23.6c8.3 0 15 6.8 15 15z" fill="#ffb033"/><path d="m495.05 167.3v124c0 16.6-13.4 30-30 30h-173.5c-3.5 0-6.8 1.9-8.6 4.9l-23.6 39.5c-1 1.6-2.6 2.4-4.3 2.4s-3.3-.8-4.3-2.4l-23.6-39.5c-1.8-3-5.1-4.9-8.6-4.9h-173.5c-16.6 0-30-13.4-30-30v-124c0-16.6 13.4-30 30-30h420c16.6 0 30 13.4 30 30z" fill="#ff3369"/><path d="m495.05 167.3v124c0 16.6-13.4 30-30 30h-173.5c-3.5 0-6.8 1.9-8.6 4.9l-23.6 39.5c-1 1.6-2.6 2.4-4.3 2.4v-230.8h210c16.6 0 30 13.4 30 30z" fill="#db2556"/><path d="m300.85 224.4-10.5 12.7c-1.7 2.1-2.6 4.7-2.4 7.3l.9 16.9c.4 7.7-7.3 13.3-14.5 10.4l-15.4-6.2c-1.3-.5-2.6-.8-3.9-.8s-2.7.3-3.9.8l-15.4 6.2c-7.2 2.9-14.9-2.7-14.5-10.4l.9-16.9c.1-2.7-.7-5.3-2.4-7.3l-10.5-12.7c-4.9-5.9-2.1-14.9 5.3-16.9l16.4-4.6c2.5-.7 4.6-2.3 6-4.4l9.2-14c2.1-3.2 5.5-4.8 8.8-4.8s6.8 1.6 8.8 4.8l9.2 14c1.4 2.1 3.5 3.7 6 4.4l16.4 4.6c7.6 2 10.4 11 5.5 16.9z" fill="#fff"/><path d="m300.85 224.4-10.5 12.7c-1.7 2.1-2.6 4.7-2.4 7.3l.9 16.9c.4 7.7-7.3 13.3-14.5 10.4l-15.4-6.2c-1.3-.5-2.6-.8-3.9-.8v-85.1c3.4 0 6.8 1.6 8.8 4.8l9.2 14c1.4 2.1 3.5 3.7 6 4.4l16.4 4.6c7.5 2.1 10.3 11.1 5.4 17z" fill="#dcf2ea"/><path d="m115.55 190.6 7.8 11.9c1.2 1.8 3 3.2 5.1 3.8l14 3.9c6.3 1.8 8.7 9.4 4.5 14.5l-8.9 10.8c-1.4 1.7-2.2 4-2.1 6.2l.8 14.5c.4 6.6-6.2 11.3-12.4 8.9l-13.2-5.3c-2.2-.9-4.6-.9-6.7 0l-13.2 5.3c-6.1 2.5-12.7-2.3-12.4-8.9l.8-14.5c.1-2.3-.6-4.5-2.1-6.2l-8.9-10.8c-4.2-5-1.8-12.7 4.5-14.5l14-3.9c2.1-.6 3.9-1.9 5.1-3.8l7.8-11.9c3.9-5.5 11.9-5.5 15.5 0z" fill="#fff"/><path d="m409.65 190.6 7.8 11.9c1.2 1.8 3 3.2 5.1 3.8l14 3.9c6.3 1.8 8.7 9.4 4.5 14.5l-8.9 10.8c-1.4 1.7-2.2 4-2.1 6.2l.8 14.5c.4 6.6-6.2 11.3-12.4 8.9l-13.2-5.3c-2.2-.9-4.6-.9-6.7 0l-13.2 5.3c-6.1 2.5-12.7-2.3-12.4-8.9l.8-14.5c.1-2.3-.6-4.5-2.1-6.2l-8.9-10.8c-4.2-5-1.8-12.7 4.5-14.5l14-3.9c2.1-.6 3.9-1.9 5.1-3.8l7.8-11.9c4-5.5 12-5.5 15.5 0z" fill="#dcf2ea"/></svg>