<svg id="Capa_1" enable-background="new 0 0 512 512" height="512" viewBox="0 0 512 512" width="512" xmlns="http://www.w3.org/2000/svg"><g><g><path d="m446.86 91.399-20.373-2.101v-20.228c-14.857-14.4-31.528-26.936-49.644-37.229l-27.305 7.925v-21.259c-28.823-11.917-60.409-18.507-93.538-18.507-135.31 0-245 109.69-245 245s109.69 245 245 245 245-109.69 245-245c0-58.164-20.282-111.582-54.14-153.601z" fill="#fc9302"/></g><g><circle cx="256" cy="200" fill="#fcb30b" r="180"/></g><g><path d="m48.5 278.934c0 5.982 2.635 11.339 6.8 15h401.4c4.165-3.661 6.8-9.018 6.8-15 0-7.384-4.013-13.818-9.966-17.282 5.261-4.446 8.096-11.478 6.814-18.75s-6.351-12.911-12.816-15.289c4.409-5.292 5.98-12.709 3.454-19.648s-8.497-11.612-15.276-12.831c3.423-5.977 3.682-13.555-.01-19.95s-10.384-9.96-17.272-9.984c2.334-6.481 1.272-13.988-3.474-19.645s-11.956-8.005-18.743-6.833c1.173-6.787-1.176-13.997-6.833-18.743s-13.164-5.808-19.645-3.474c-.024-6.888-3.589-13.58-9.984-17.272s-13.973-3.434-19.95-.01c-1.219-6.779-5.892-12.75-12.831-15.276s-14.357-.955-19.648 3.454c-2.378-6.464-8.017-11.534-15.289-12.816s-14.304 1.553-18.75 6.814c-3.464-5.953-9.898-9.966-17.282-9.966s-13.818 4.013-17.282 9.966c-4.446-5.261-11.478-8.096-18.75-6.814s-12.911 6.351-15.289 12.816c-5.292-4.409-12.709-5.98-19.648-3.454s-11.612 8.497-12.831 15.276c-5.977-3.424-13.555-3.682-19.95.01s-9.96 10.384-9.984 17.272c-6.48-2.334-13.988-1.272-19.645 3.474-5.657 4.747-8.005 11.956-6.833 18.743-6.787-1.173-13.997 1.176-18.743 6.833s-5.808 13.164-3.474 19.645c-6.888.024-13.58 3.589-17.272 9.984s-3.434 13.973-.01 19.95c-6.779 1.219-12.75 5.892-15.276 12.831s-.955 14.357 3.454 19.648c-6.464 2.378-11.534 8.017-12.816 15.289s1.553 14.304 6.814 18.75c-5.951 3.464-9.964 9.897-9.964 17.282z" fill="#b3d1e1"/></g><g><path d="m349.538 18.507-131.739 207.989 16.674 11.044 142.37-205.699c-8.777-4.987-17.894-9.443-27.305-13.334z" fill="#7d402d"/></g><g><path d="m284.304 121.499-66.505 104.997 16.674 11.044 70.672-102.108c-4.959-6.892-12.31-11.94-20.841-13.933z" fill="#533022"/></g><g><circle cx="374.755" cy="163.009" fill="#e4f1f2" r="15"/></g><g><path d="m399.609 258.952c2.077-3.154 3.295-6.924 3.295-10.983 0-11.046-8.954-20-20-20-.249 0-.491.028-.739.037.468-1.697.739-3.477.739-5.323 0-11.046-8.954-20-20-20-4.096 0-7.901 1.236-11.072 3.349-.875-9.562-8.474-17.173-18.032-18.062.982-2.362 1.529-4.951 1.529-7.669 0-11.046-8.954-20-20-20-3.352 0-6.506.835-9.281 2.292-.049-11.004-8.98-19.909-19.995-19.909-3.967 0-7.655 1.17-10.764 3.162-1.345-9.739-9.68-17.245-19.788-17.245-10.749 0-19.492 8.487-19.956 19.122-2.744-1.416-5.85-2.23-9.151-2.23-11.046 0-20 8.954-20 20 0 2.385.439 4.663 1.205 6.784-.401-.024-.798-.061-1.205-.061-10.157 0-18.526 7.578-19.81 17.385-2.479-1.102-5.217-1.726-8.105-1.726-11.046 0-20 8.954-20 20v91.059h240.765c11.046 0 20-8.954 20-20 0-10.923-8.759-19.785-19.635-19.982z" fill="#e4f1f2"/></g><g><path d="m267.136 263.934 179.724-172.535c-6.331-7.857-13.135-15.315-20.373-22.33l-173.493 180.723z" fill="#7d402d"/></g><g><path d="m267.136 263.934 29.759-28.569c-3.703-6.343-9.056-11.6-15.476-15.184l-28.426 29.61z" fill="#533022"/></g><g><path d="m315.925 298.934c11.046 0 20-8.954 20-20s-8.954-20-20-20c-4.353 0-8.369 1.406-11.652 3.767-1.142-9.961-9.591-17.701-19.858-17.701-3.986 0-7.691 1.18-10.809 3.189-1.228-9.868-9.628-17.511-19.829-17.511-2.711 0-5.294.545-7.651 1.523.038-.504.077-1.009.077-1.523 0-11.046-8.954-20-20-20-3.828 0-7.392 1.095-10.432 2.96-1.603-9.439-9.799-16.634-19.695-16.634-10.921 0-19.782 8.757-19.981 19.63-3.626-3.675-8.661-5.956-14.231-5.956-11.046 0-20 8.954-20 20 0 .77.053 1.527.138 2.275-2.766-1.446-5.907-2.275-9.245-2.275-11.046 0-20 8.954-20 20 0 2.984.672 5.805 1.843 8.348-.608-.056-1.221-.093-1.843-.093-11.046 0-20 8.954-20 20s8.954 20 20 20h203.168z" fill="#f8feff"/></g><g><path d="m342.005 512c6.94 0 11.797-6.907 9.404-13.422-14.275-38.856-51.602-66.578-95.409-66.578s-81.134 27.722-95.409 66.578c-2.393 6.514 2.464 13.422 9.404 13.422z" fill="#c92e43"/></g><g><path d="m446.473 373.934c16.174-23.851 27.986-50.899 34.292-80h-449.53c6.306 29.101 18.119 56.149 34.292 80l25.473 31.268c4.787 4.93 9.791 9.648 15 14.135h7.894l7.106 11.875c4.86 3.53 9.864 6.872 15 10.02h10.447l3.129 7.702c31.823 16.644 68.021 26.066 106.424 26.066s74.601-9.422 106.424-26.066v-9.019l24.747-5.981c1.286-.895 2.563-1.802 3.829-2.722l7.319-11.875h7.681c5.209-4.487 10.213-9.204 15-14.135z" fill="#c92e43"/></g><g><path d="m126 308.934v-15h-94.765c6.306 29.101 18.119 56.149 34.292 80l25.473 31.268c4.787 4.93 9.791 9.648 15 14.135h7.894l7.106 11.875c4.86 3.53 9.864 6.872 15 10.02h10.447l3.129 7.702c31.823 16.644 68.021 26.066 106.424 26.066 25.582 0 50.185-4.183 73.169-11.892-177.788 0-203.169-154.174-203.169-154.174z" fill="#962437"/></g><g><path d="m486 308.934h-460c-8.284 0-15-6.716-15-15 0-8.284 6.716-15 15-15h460c8.284 0 15 6.716 15 15 0 8.284-6.716 15-15 15z" fill="#fd4343"/></g><g><path d="m486 353.934h-460c-8.284 0-15-6.716-15-15 0-8.284 6.716-15 15-15h460c8.284 0 15 6.716 15 15 0 8.284-6.716 15-15 15z" fill="#fd4343"/></g><g><path d="m111 293.934c0-8.284 6.716-15 15-15h-100c-8.284 0-15 6.716-15 15s6.716 15 15 15h100c-8.284 0-15-6.716-15-15z" fill="#c92e43"/></g><g><path d="m111 338.934c0-8.284 6.716-15 15-15h-100c-8.284 0-15 6.716-15 15s6.716 15 15 15h100c-8.284 0-15-6.716-15-15z" fill="#c92e43"/></g><g><circle cx="267.066" cy="182.684" fill="#f8feff" r="15"/></g><g><circle cx="329.169" cy="235" fill="#f8feff" r="15"/></g><g><circle cx="180.202" cy="248.934" fill="#e4f1f2" r="15"/></g><g><circle cx="129.702" cy="177" fill="#e4f1f2" r="15"/></g><g><circle cx="168.479" cy="153.009" fill="#e4f1f2" r="10"/></g><g><circle cx="404.449" cy="192" fill="#e4f1f2" r="10"/></g><g><circle cx="227.372" cy="258.934" fill="#e4f1f2" r="10"/></g><g><circle cx="364.755" cy="245" fill="#f8feff" r="10"/></g><g><path d="m106 419.337c4.83 4.16 9.833 8.122 15 11.875v-42.278h60v45h-30v-15h15v-15h-30v37.298c4.429 2.715 8.956 5.285 13.576 7.702h46.424v-75h-90z" fill="#fd4343"/></g><g><g><path d="m121 388.934h42.127c-3.865-5.013-7.343-10.039-10.477-15h-46.65v45.403c4.83 4.16 9.833 8.122 15 11.875z" fill="#c92e43"/></g><g><path d="m196 421.981c-5.392-4.181-10.381-8.543-15-13.02v24.972h-30v-15h15v-15h-30v37.298c4.429 2.715 8.956 5.285 13.576 7.702h46.424z" fill="#c92e43"/></g></g><g><path d="m91 405.202v-31.269h-25.473c7.572 11.166 16.107 21.623 25.473 31.269z" fill="#c92e43"/></g><g><g><path d="m361 433.934v-15h15v-15h-30v45h16.424c8.582-4.489 16.844-9.502 24.747-15z" fill="#fd4343"/></g><g><path d="m316 448.934h15v-60h60v42.278c5.167-3.753 10.17-7.715 15-11.875v-45.403h-90z" fill="#fd4343"/></g></g><g><path d="m446.473 373.934h-25.473v31.269c9.366-9.647 17.901-20.104 25.473-31.269z" fill="#fd4343"/></g><g><path d="m226 448.934v-60h60v45h-30v-15h15v-15h-30v45h60v-75h-90v75z" fill="#fd4343"/></g><g><g><path d="m226 440.837c-5.264-2.635-10.26-5.446-15-8.404v16.5h15z" fill="#c92e43"/></g><g><path d="m241 447.542v1.392h3.55c-1.202-.45-2.372-.924-3.55-1.392z" fill="#c92e43"/></g></g></g></svg>