<svg id="Capa_1" enable-background="new 0 0 512.068 512.068" height="512" viewBox="0 0 512.068 512.068" width="512" xmlns="http://www.w3.org/2000/svg"><g><g><ellipse cx="256.241" cy="256.806" fill="#fff08a" rx="245.828" ry="245.782"/><g fill="#43689e"><path d="m337.338 256.767c-14.112 0-25.551-11.438-25.551-25.546v-19.025c0-14.109 11.44-25.546 25.551-25.546 14.112 0 25.551 11.438 25.551 25.546v19.025c0 14.108-11.439 25.546-25.551 25.546z"/><path d="m174.662 256.767c-14.112 0-25.551-11.438-25.551-25.546v-19.025c0-14.109 11.44-25.546 25.551-25.546 14.112 0 25.551 11.438 25.551 25.546v19.025c0 14.108-11.439 25.546-25.551 25.546z"/></g></g><g><path d="m467.271 111.436c-3.126-4.554-9.35-5.711-13.904-2.586-4.554 3.126-5.711 9.351-2.586 13.904 64.215 93.553 52.479 219.784-27.902 300.15-92.018 92-241.738 92-333.756 0-44.575-44.565-69.123-103.818-69.123-166.843s24.548-122.278 69.122-166.845c80.302-80.286 206.48-92.074 300.021-28.028 4.556 3.118 10.779 1.956 13.9-2.602 3.12-4.557 1.956-10.78-2.602-13.9-101.479-69.48-238.354-56.704-325.46 30.388-48.352 48.343-74.981 112.619-74.981 180.987 0 68.367 26.629 132.644 74.981 180.986 48.352 48.344 112.639 74.968 181.019 74.968s132.667-26.624 181.019-74.968c87.194-87.176 99.917-224.116 30.252-325.611z"/><path d="m423.81 92.76c3.586 2.386 8.388 2.176 11.766-.481 3.183-2.504 4.532-6.861 3.354-10.732-1.211-3.979-4.872-6.862-9.029-7.088-4.305-.234-8.377 2.435-9.891 6.467-1.606 4.276-.045 9.314 3.8 11.834z"/><path d="m372.89 231.221v-19.024c0-19.601-15.948-35.547-35.552-35.547-19.603 0-35.551 15.946-35.551 35.547v19.024c0 19.6 15.948 35.546 35.551 35.546 19.603-.001 35.552-15.947 35.552-35.546zm-20 0c0 8.572-6.977 15.546-15.552 15.546s-15.551-6.974-15.551-15.546v-19.024c0-8.572 6.976-15.547 15.551-15.547s15.552 6.975 15.552 15.547z"/><path d="m174.662 266.766c19.603 0 35.551-15.946 35.551-35.546v-19.024c0-19.601-15.948-35.547-35.551-35.547s-35.551 15.946-35.551 35.547v19.024c0 19.6 15.948 35.546 35.551 35.546zm-15.551-54.57c0-8.572 6.976-15.547 15.551-15.547s15.551 6.975 15.551 15.547v19.024c0 8.572-6.976 15.546-15.551 15.546s-15.551-6.974-15.551-15.546z"/><path d="m170.721 380.838c2.559 0 5.118-.977 7.07-2.928 43.124-43.117 113.292-43.117 156.417 0 3.905 3.904 10.237 3.904 14.143-.002 3.904-3.905 3.903-10.237-.002-14.143-50.922-50.91-133.778-50.911-184.699.001-3.906 3.904-3.906 10.236-.001 14.142 1.954 1.953 4.512 2.93 7.072 2.93z"/><path d="m186.906 125.083c2.107-5.105-.323-10.952-5.428-13.059-5.108-2.109-10.952.323-13.059 5.428-1.88 4.557-9.431 11.957-21.566 17.439-11.286 5.1-22.525 6.523-29.33 3.717-5.108-2.105-10.953.325-13.058 5.431-2.106 5.105.325 10.951 5.43 13.058 4.82 1.988 10.206 2.885 15.844 2.885 24.538-.001 53.778-16.996 61.167-34.899z"/><path d="m394.478 138.608c-6.805 2.807-18.044 1.384-29.33-3.717-12.135-5.482-19.686-12.883-21.565-17.439-2.108-5.104-7.952-7.534-13.06-5.429-5.104 2.107-7.535 7.954-5.429 13.06 7.39 17.904 36.628 34.898 61.167 34.898 5.636 0 11.025-.896 15.844-2.885 5.105-2.106 7.537-7.952 5.431-13.058s-7.954-7.535-13.058-5.43z"/></g></g></svg>