<svg id="svg4690" height="512" viewBox="0 0 16.933333 16.933334" width="512" xmlns="http://www.w3.org/2000/svg" xmlns:svg="http://www.w3.org/2000/svg"><g id="layer1" transform="translate(0 -280.067)"><path id="path14798" d="m10.054164 280.59477c-3.5038691 0-6.3494841 2.8482-6.3494841 6.35207s2.845615 6.34948 6.3494841 6.34948c3.503869 0 6.35-2.84561 6.35-6.34948s-2.846131-6.35207-6.35-6.35207zm0 1.05885c2.91936 0 5.291151 2.37385 5.291151 5.29322s-2.371791 5.29063-5.291151 5.29063c-2.9193701 0-5.2906321-2.37126-5.2906321-5.29063s2.371262-5.29322 5.2906321-5.29322zm-.0011 2.1177c-.4352399 0-.7927158.35748-.7927158.79272 0 .11921.028562.23148.07648.33331-.9851761.19926-1.6058886.79735-1.9575039 1.38338-.1382422.2304-.2360877.45829-.3095414.66456h5.9681111c-.07317-.20625-.170793-.43419-.309022-.66456-.351494-.58583-.972931-1.18391-1.958023-1.38338.04813-.10183.077-.2141.077-.33331 0-.43524-.359542-.79272-.794785-.79272zm-3.4395836 3.70313a.26460982.26460982 0 0 0 -.263525.26562v.26355c0 .58175.4771099 1.05833 1.0588492 1.05833h5.2906764c.58174 0 1.05885-.47659 1.05885-1.05833v-.26355a.26460982.26460982 0 0 0 -.265618-.26562zm-2.0841097 3.56361-.427363.42736 1.4324701 1.43247.4273629-.42736c-.5445945-.40469-1.0278851-.88779-1.43247-1.43247zm-1.1988933.51366c-.067429 0-.1349559.0258-.1865523.077l-2.15439106 2.15646c-.6134285.61344-.6134497 1.61277 0 2.22622.61343116.61343 1.61278096.61343 2.22622276 0l2.1549068-2.15646c.1031108-.10362.1026266-.27107-.00106-.37413l-1.8525556-1.85209c-.051591-.0512-.1191233-.077-.1865524-.077z" font-variant-ligatures="normal" font-variant-position="normal" font-variant-caps="normal" font-variant-numeric="normal" font-variant-alternates="normal" font-feature-settings="normal" text-indent="0" text-align="start" text-decoration-line="none" text-decoration-style="solid" text-decoration-color="rgb(0,0,0)" text-transform="none" text-orientation="mixed" white-space="normal" shape-padding="0" isolation="auto" mix-blend-mode="normal" solid-color="rgb(0,0,0)" solid-opacity="1" vector-effect="none"/></g></svg>