<svg xmlns="http://www.w3.org/2000/svg" width="24" height="18.991" viewBox="0 0 24 18.991">
  <g id="Group_8897" data-name="Group 8897" transform="translate(-166 -411.505)">
    <g id="Layer_71" data-name="Layer 71" transform="translate(164.286 406.924)">
      <path id="Path_169" data-name="Path 169" d="M7.714,12l1.714,1.714H3V12Z" fill="#ad6327"/>
      <path id="Path_170" data-name="Path 170" d="M24.429,12v1.714H18L19.714,12Z" fill="#ad6327"/>
      <path id="Path_171" data-name="Path 171" d="M1.714,11.571h24v.857h-24Z" fill="#e5870a"/>
      <path id="Path_172" data-name="Path 172" d="M19.714,11.571h6v.857h-6Z" fill="#e5870a"/>
      <path id="Path_173" data-name="Path 173" d="M3,13.714h.857v9.857H3Z" fill="#99501a"/>
      <path id="Path_174" data-name="Path 174" d="M23.571,13.714h.857v9.857h-.857Z" fill="#99501a"/>
      <path id="Path_175" data-name="Path 175" d="M19.714,12l-6,6-6-6Z" fill="#f49e21"/>
      <g id="Group_8914" data-name="Group 8914">
        <path id="Path_176" data-name="Path 176" d="M3.857,9.857h.857v1.714H3.857Z" fill="#cfdfe8"/>
        <path id="Path_177" data-name="Path 177" d="M3,7.714H5.571V9.236a1.05,1.05,0,0,1-1.05,1.05H4.05A1.05,1.05,0,0,1,3,9.236Z" fill="#cfdfe8"/>
        <path id="Path_178" data-name="Path 178" d="M22.714,9.857h.857v1.714h-.857Z" fill="#cfdfe8"/>
        <path id="Path_179" data-name="Path 179" d="M21.857,7.714h2.571V9.236a1.05,1.05,0,0,1-1.05,1.05h-.471a1.05,1.05,0,0,1-1.05-1.05Z" fill="#cfdfe8"/>
      </g>
      <path id="Path_180" data-name="Path 180" d="M14.571,9.429H12.857a1.286,1.286,0,0,1-1.286-1.286V6.429h.857V8.143a.429.429,0,0,0,.429.429h1.714A.429.429,0,0,0,15,8.143V6.429h.857V8.143A1.286,1.286,0,0,1,14.571,9.429Z" fill="#aabece"/>
      <path id="Path_181" data-name="Path 181" d="M13.286,6h.857v6h-.857Z" fill="#aabece"/>
      <path id="Path_182" data-name="Path 182" d="M12.214,5.143l.214.429a.479.479,0,1,1-.857,0l.214-.429a.236.236,0,0,1,.321-.107.257.257,0,0,1,.107.107Z" fill="#e5870a"/>
      <path id="Path_183" data-name="Path 183" d="M13.929,4.714l.214.429a.479.479,0,1,1-.857,0l.214-.429a.236.236,0,0,1,.321-.107A.257.257,0,0,1,13.929,4.714Z" fill="#e5870a"/>
      <path id="Path_184" data-name="Path 184" d="M15.643,5.143l.214.429a.479.479,0,1,1-.857,0l.214-.429a.236.236,0,0,1,.321-.107.257.257,0,0,1,.107.107Z" fill="#e5870a"/>
      <path id="Path_185" data-name="Path 185" d="M8.143,11.571H19.286v.857H8.143Z" fill="#f49e21"/>
      <path id="Path_186" data-name="Path 186" d="M8.357,12a3,3,0,0,1-2.4-1.2l-.386-.514h5.571l-.386.514A3,3,0,0,1,8.357,12Z" fill="#cfdfe8"/>
      <path id="Path_187" data-name="Path 187" d="M19.071,12a3,3,0,0,1-2.4-1.2l-.386-.514h5.571l-.386.514A3,3,0,0,1,19.071,12Z" fill="#cfdfe8"/>
    </g>
  </g>
</svg>
