<svg xmlns="http://www.w3.org/2000/svg" xmlns:xlink="http://www.w3.org/1999/xlink" width="24" height="24" viewBox="0 0 24 24">
  <defs>
    <clipPath id="clip-path">
      <rect id="Rectangle_18755" data-name="Rectangle 18755" width="24" height="24" transform="translate(82.5 57.784)" fill="#f2f5f7" stroke="#707070" stroke-width="1"/>
    </clipPath>
  </defs>
  <g id="Mask_Group_64" data-name="Mask Group 64" transform="translate(-82.5 -57.784)" clip-path="url(#clip-path)">
    <g id="track" transform="translate(82.5 57.784)">
      <g id="Group_9233" data-name="Group 9233">
        <g id="Group_9232" data-name="Group 9232">
          <path id="Path_6666" data-name="Path 6666" d="M4.042,7.21a.461.461,0,1,0,.461.461A.462.462,0,0,0,4.042,7.21Z" fill="#f2f5f7"/>
        </g>
      </g>
      <g id="Group_9235" data-name="Group 9235">
        <g id="Group_9234" data-name="Group 9234">
          <path id="Path_6667" data-name="Path 6667" d="M4.042,3.63A4.046,4.046,0,0,0,0,7.672a8.386,8.386,0,0,0,1.79,4.287,23.905,23.905,0,0,0,1.724,2.227.709.709,0,0,0,1.057,0,23.881,23.881,0,0,0,1.724-2.227,8.385,8.385,0,0,0,1.79-4.287A4.046,4.046,0,0,0,4.042,3.63Zm0,5.92A1.878,1.878,0,1,1,5.92,7.672,1.881,1.881,0,0,1,4.042,9.55Z" fill="#f2f5f7"/>
        </g>
      </g>
      <g id="Group_9237" data-name="Group 9237">
        <g id="Group_9236" data-name="Group 9236">
          <path id="Path_6668" data-name="Path 6668" d="M16.707,18.953H14.944a2.268,2.268,0,0,1-2.265-2.265A3.687,3.687,0,0,0,9,13h-1.7c-.391.558-.772,1.048-1.07,1.417H9a2.268,2.268,0,0,1,2.265,2.265,3.687,3.687,0,0,0,3.682,3.682h2.833C17.479,20,17.1,19.51,16.707,18.953Z" fill="#f2f5f7"/>
        </g>
      </g>
      <g id="Group_9239" data-name="Group 9239">
        <g id="Group_9238" data-name="Group 9238">
          <path id="Path_6669" data-name="Path 6669" d="M19.958,13.158a.461.461,0,1,0,.461.461A.462.462,0,0,0,19.958,13.158Z" fill="#f2f5f7"/>
        </g>
      </g>
      <g id="Group_9241" data-name="Group 9241">
        <g id="Group_9240" data-name="Group 9240">
          <path id="Path_6670" data-name="Path 6670" d="M19.958,9.578a4.046,4.046,0,0,0-4.042,4.042,8.386,8.386,0,0,0,1.79,4.287,23.905,23.905,0,0,0,1.724,2.227.709.709,0,0,0,1.057,0,23.879,23.879,0,0,0,1.724-2.227A8.385,8.385,0,0,0,24,13.62,4.046,4.046,0,0,0,19.958,9.578Zm0,5.92a1.878,1.878,0,1,1,1.878-1.878A1.881,1.881,0,0,1,19.958,15.5Z" fill="#f2f5f7"/>
        </g>
      </g>
    </g>
  </g>
</svg>
