<?xml version="1.0" encoding="iso-8859-1"?>
<!-- Generator: Adobe Illustrator 19.0.0, SVG Export Plug-In . SVG Version: 6.00 Build 0)  -->
<svg version="1.1" id="Capa_1" xmlns="http://www.w3.org/2000/svg" xmlns:xlink="http://www.w3.org/1999/xlink" x="0px" y="0px"
	 viewBox="0 0 512 512" style="enable-background:new 0 0 512 512;" xml:space="preserve">
<path style="fill:#FC502A;" d="M509.676,348.458c-9.662-14.543-9.411-33.727,0.763-48.023c2.42-3.401,1.976-8.065-0.975-11.017
	L222.583,2.537c-2.951-2.951-7.616-3.395-11.017-0.975c-14.296,10.174-33.48,10.425-48.023,0.763
	c-3.374-2.242-7.882-1.705-10.747,1.16L3.485,152.795c-2.865,2.865-3.402,7.373-1.16,10.747c9.663,14.543,9.411,33.727-0.763,48.023
	c-2.42,3.401-1.976,8.065,0.975,11.017l286.881,286.881c2.951,2.951,7.616,3.395,11.017,0.975
	c14.296-10.174,33.48-10.425,48.023-0.763c3.374,2.242,7.882,1.705,10.747-1.16l149.311-149.311
	C511.381,356.34,511.918,351.832,509.676,348.458z"/>
<path style="fill:#E60D28;" d="M211.566,1.562c-14.296,10.174-33.48,10.425-48.023,0.762c-3.374-2.242-7.882-1.704-10.747,1.16
	l-39.454,39.454c2.864-2.864,7.373-3.402,10.747-1.16c14.543,9.663,33.727,9.411,48.023-0.763c3.401-2.42,8.066-1.976,11.017,0.975
	L470.01,328.871c2.951,2.951,3.395,7.616,0.975,11.017c-10.174,14.296-10.425,33.48-0.763,48.023
	c2.242,3.374,1.704,7.882-1.16,10.747l39.454-39.454c2.864-2.864,3.402-7.372,1.16-10.747c-9.663-14.543-9.411-33.727,0.763-48.023
	c2.42-3.401,1.976-8.066-0.975-11.017L222.583,2.537C219.631-0.414,214.967-0.858,211.566,1.562z"/>
<circle style="fill:#FFFFFF;" cx="256.001" cy="256" r="122.78"/>
<path style="fill:#E6E6E6;" d="M169.186,169.185c-6.852,6.852-12.72,14.313-17.613,22.208
	c47.35-29.35,110.328-23.482,151.423,17.613s46.963,104.073,17.613,151.423c7.894-4.893,15.356-10.762,22.208-17.613
	c47.947-47.947,47.947-125.684,0-173.631S217.132,121.238,169.186,169.185z"/>
<g>
	<path style="fill:#FFFFFF;" d="M445.031,348.008c-2.017,0-4.035-0.769-5.574-2.309c-3.08-3.079-3.08-8.071-0.001-11.15l5.946-5.946
		c3.08-3.079,8.072-3.079,11.149-0.001c3.08,3.079,3.08,8.071,0.001,11.15l-5.946,5.946
		C449.066,347.238,447.048,348.008,445.031,348.008z"/>
	<path style="fill:#FFFFFF;" d="M368.011,425.027c-2.018,0-4.035-0.769-5.575-2.309c-3.079-3.079-3.079-8.071,0.001-11.149
		l10.624-10.623c3.079-3.08,8.071-3.079,11.149,0c3.079,3.079,3.079,8.071-0.001,11.149l-10.624,10.623
		C372.046,424.257,370.028,425.027,368.011,425.027z M406.52,386.518c-2.017,0-4.035-0.77-5.575-2.309
		c-3.079-3.079-3.079-8.071,0-11.149l10.624-10.624c3.08-3.079,8.071-3.079,11.15,0c3.079,3.079,3.079,8.071,0,11.149
		l-10.624,10.624C410.556,385.748,408.538,386.518,406.52,386.518z"/>
	<path style="fill:#FFFFFF;" d="M334.179,458.86c-2.018,0-4.035-0.77-5.575-2.309c-3.079-3.079-3.079-8.071,0.001-11.15l5.947-5.946
		c3.079-3.078,8.071-3.078,11.149,0.001c3.079,3.079,3.079,8.071-0.001,11.15l-5.947,5.946
		C338.214,458.09,336.196,458.86,334.179,458.86z"/>
	<path style="fill:#FFFFFF;" d="M171.877,74.854c-2.017,0-4.035-0.77-5.575-2.309c-3.079-3.079-3.079-8.071,0-11.149l5.947-5.947
		c3.08-3.079,8.071-3.079,11.15,0s3.079,8.071,0,11.149l-5.947,5.947C175.912,74.084,173.894,74.854,171.877,74.854z"/>
	<path style="fill:#FFFFFF;" d="M94.858,151.873c-2.018,0-4.035-0.769-5.575-2.309c-3.079-3.079-3.079-8.071,0.001-11.149
		l10.624-10.623c3.079-3.08,8.071-3.079,11.149,0c3.079,3.079,3.079,8.071-0.001,11.149l-10.624,10.623
		C98.893,151.103,96.875,151.873,94.858,151.873z M133.367,113.364c-2.017,0-4.035-0.77-5.575-2.309
		c-3.079-3.079-3.079-8.071,0-11.149l10.624-10.624c3.08-3.079,8.071-3.079,11.15,0s3.079,8.071,0,11.149l-10.624,10.624
		C137.403,112.594,135.384,113.364,133.367,113.364z"/>
	<path style="fill:#FFFFFF;" d="M61.024,185.706c-2.018,0-4.035-0.77-5.575-2.309c-3.079-3.079-3.079-8.071,0.001-11.15l5.947-5.946
		c3.078-3.079,8.07-3.077,11.149,0.001c3.079,3.079,3.079,8.071-0.001,11.15l-5.947,5.946
		C65.06,184.936,63.042,185.706,61.024,185.706z"/>
</g>
<g>
	<path style="fill:#E60D28;" d="M188.377,272.167c-2.434,2.434-2.897,7.302,0.348,10.547c1.97,1.97,4.752,2.897,7.07,1.97
		l125.86-42.417c1.043-0.348,1.854-0.927,2.549-1.623c3.129-3.129,2.086-8.344-0.579-11.01c-1.739-1.738-4.172-2.549-6.606-1.738
		L190.811,270.66C190,271.008,189.073,271.471,188.377,272.167z"/>
	<path style="fill:#E60D28;" d="M254.668,276.571l-16.804,16.804c-11.01,11.01-7.765,22.136,1.622,31.523
		c9.271,9.271,20.397,12.516,31.407,1.506l16.804-16.804c10.894-10.894,7.765-22.136-1.507-31.407
		C276.804,268.806,265.562,265.677,254.668,276.571z M277.847,299.749l-16.804,16.804c-4.288,4.288-8.808,3.709-12.864-0.348
		c-4.057-4.056-4.52-8.46-0.232-12.748l16.804-16.804c4.288-4.288,8.692-3.825,12.748,0.232
		C281.555,290.942,282.135,295.461,277.847,299.749z"/>
	<path style="fill:#E60D28;" d="M240.761,185.943l-16.804,16.804c-10.894,10.894-7.765,22.135,1.622,31.522
		c9.272,9.272,20.513,12.401,31.407,1.507l16.804-16.804c10.894-10.894,7.765-22.135-1.507-31.407
		C262.896,178.178,251.655,175.049,240.761,185.943z M263.592,196.257c4.056,4.056,4.636,8.576,0.348,12.864l-16.804,16.804
		c-4.288,4.288-8.808,3.709-12.864-0.348c-4.056-4.056-4.52-8.46-0.232-12.748l16.804-16.804
		C255.132,191.737,259.536,192.201,263.592,196.257z"/>
</g>
<g>
</g>
<g>
</g>
<g>
</g>
<g>
</g>
<g>
</g>
<g>
</g>
<g>
</g>
<g>
</g>
<g>
</g>
<g>
</g>
<g>
</g>
<g>
</g>
<g>
</g>
<g>
</g>
<g>
</g>
</svg>
