<?xml version="1.0" encoding="utf-8"?>
<!-- Generator: Adobe Illustrator 24.3.0, SVG Export Plug-In . SVG Version: 6.00 Build 0)  -->
<svg version="1.1" id="Layer_1"
	xmlns="http://www.w3.org/2000/svg"
	xmlns:xlink="http://www.w3.org/1999/xlink" x="0px" y="0px" viewBox="0 0 1185.7 606.64" style="enable-background:new 0 0 1185.7 606.64;" xml:space="preserve">
	<style type="text/css">
	.st0{fill:#EF524D;}
	.st1{fill:#FFFFFF;}
	</style>
	<g>
		<g>
			<path class="st1" d="M273.46,253.63c0.4-5.88,2.69-12.94,7.98-18.8c3.39-3.75,7.64-4.79,12.45-3.25c5.21,1.67,8.6,4.9,8.87,10.71
			c0.37,8.14-2.73,15.03-7.74,21.17c-4.07,4.99-9.41,6.99-13.82,5.41C275.88,266.98,273.41,262.72,273.46,253.63z"/>
			<path class="st1" d="M300.16,266.09c0.64-6.35,2.58-13.27,7.51-19.02c3.93-4.58,8.51-5.71,13.81-3.67
			c5.7,2.19,8.65,6.09,8.31,12.08c-0.49,8.41-3.82,15.73-9.92,21.61c-3.81,3.68-8.32,4.84-13.36,2.6
			C302.38,277.87,300.05,273.2,300.16,266.09z"/>
			<g>
				<path class="st1" d="M35.05,438.29c0.54-5.07,1.19-10.13,1.6-15.22c2.39-29.96,8.65-59.18,17.68-87.76
				c5.53-17.49,12.22-34.61,18.71-51.78c1.48-3.9,3.9-7.63,6.61-10.84c3.43-4.06,8.12-4.89,11.5-3c3.43,1.92,5.32,6.84,4.38,11.68
				c-0.72,3.74-1.58,7.46-1.69,11.5c1.64-2.39,2.99-5.06,4.97-7.12c5.99-6.24,11.56-13.18,18.51-18.15
				c13.46-9.63,29.89-6.64,40.4,6.24c9.69,11.88,12.41,25.96,11.07,40.63c-0.92,10.13-3.73,20.08-5.73,30.11
				c-0.27,1.34-0.72,2.64-1.09,3.96c0.4,0.29,0.8,0.58,1.2,0.87c7.78-8.67,15.86-17.09,23.15-26.15c2.33-2.89,2.39-7.52,3.78-11.24
				c11.65-31.2,23.35-62.37,35.06-93.55c3.1-8.26,6.3-16.49,9.4-24.6c-12.32-4.27-24.56-8.44-36.74-12.77
				c-3.48-1.24-6.94-2.66-10.18-4.43c-8.28-4.52-12.93-11.52-13.01-21.08c-0.07-8.16,4.14-10.91,11.95-8.53
				c18.38,5.6,36.84,10.94,55.2,16.59c3.3,1.01,4.55,0.09,5.56-2.95c1.65-4.99,3.38-10,5.66-14.73c4-8.31,12.09-11.64,19.88-8.67
				c7.85,3,11.57,10.62,9.18,19.61c-1.23,4.63-3.09,9.1-4.86,14.2c7.73,1.1,15.16,2.84,22.63,3.09c14.8,0.51,29.63,0.41,44.45,0.13
				c4.92-0.09,10.59-0.78,12.58-6.33c1.98-5.51-2.02-9.54-5.56-12.95c-11.56-11.11-25.81-16.95-41.3-20.2
				c-2.35-0.49-4.78-1.08-6.87-2.19c-4.26-2.25-4.33-7.09-0.13-9.48c1.77-1.01,4.06-1.68,6.08-1.61c22.1,0.79,42.51,6.6,59.61,21.27
				c8.63,7.41,14.91,16.31,16.44,28.1c1.65,12.69-3.24,23.07-14.69,29.19c-10.84,5.78-22.71,7.23-34.75,7.86
				c-23.13,1.22-45.77-2.51-68.36-6.8c-0.55-0.1-1.11-0.17-2.09-0.31c-2.87,7.23-5.78,14.45-8.6,21.7
				c-14.24,36.61-28.68,73.15-42.51,109.91c-3.43,9.11-4.85,18.97-7.14,28.49c-0.26,1.09-0.26,2.27-0.19,3.4
				c0.27,4.52,1.78,5.55,5.53,3.11c23.44-15.23,40-35.05,42.36-64.21c0.38-4.68,0.92-9.37,1.73-14c1.08-6.2,4.04-7.88,10.03-6.12
				c15.02,4.41,21.23,15.85,16.63,32.16c-6.14,21.82-18.55,39.93-34.8,55.47c-8.35,7.99-18.1,13.93-29.27,17.11
				c-4.2,1.2-8.67,1.97-13.02,2.01c-9.9,0.1-15.83-4.06-19.17-13.36c-1.58-4.38-2.66-9.04-3.2-13.67
				c-0.54-4.62-0.12-9.35-0.12-15.36c-3.19,3.76-5.56,6.62-8,9.41c-13.43,15.32-29.78,26.11-49.63,31.04
				c-10.99,2.73-20.51-1.3-28.88-8.3c-7.95-6.65-13.31-15.13-17.48-24.86c-1.4,8.06-3.28,16.08-4.12,24.2
				c-2.24,21.53-4.1,43.1-5.96,64.67c-0.33,3.82-0.23,7.73,0.21,11.54c1.8,15.59-12.33,19.95-23.1,15.21
				c-5.66-2.49-9.35-6.76-11.49-12.48C35.05,451.42,35.05,444.85,35.05,438.29z M130.41,301.6c-0.24-1.96-0.54-4.65-0.93-7.32
				c-0.14-0.97-0.43-1.94-0.79-2.86c-1.54-3.9-4.75-5.96-8.43-4.25c-3.76,1.74-7.55,4.17-10.3,7.21
				c-8.3,9.19-13.08,20.54-18.53,31.52c-4.07,8.2-3.05,15.59,0.49,23.23c2.37,5.12,5.11,10.4,11.36,11.09
				c6.64,0.73,10.09-4.42,13.29-9.2C126.42,336.29,129.22,319.56,130.41,301.6z"/>
				<path class="st1" d="M489.79,366.36c-5.86,5.2-11.19,10.59-17.19,15.08c-7.05,5.28-15.16,8.59-24.17,8.76
				c-13.4,0.26-23.55-6.72-28.39-19.3c-0.66-1.72-1.26-3.47-2.06-5.66c-2.22,2.55-4.15,4.96-6.29,7.17
				c-8.91,9.2-18.94,16.54-32.15,18.04c-18.49,2.1-31.45-8.17-34.06-26.77c-2.66-18.93,0.85-37.22,6.01-55.25
				c11.25-39.27,27.73-76.22,50.04-110.51c5.56-8.54,13.42-12.54,23.62-11.65c8.83,0.76,11.68,6.16,7.28,13.83
				c-18.5,32.22-33.96,65.8-45.39,101.17c-4.92,15.22-8.57,30.74-9.65,46.75c-0.25,3.64-0.04,7.43,0.71,11
				c0.89,4.23,4.16,6,8.46,5.09c7.67-1.63,13.02-6.87,18.14-12.27c2.64-2.79,4.79-6.04,7.28-8.96c4.64-5.44,5.87-12.1,7.28-18.82
				c2.85-13.55,6.67-26.83,13.75-38.86c2.13-3.62,4.9-7.06,8.03-9.85c4.08-3.64,9.17-5.82,14.56-2.87c5.67,3.1,6.71,8.82,5.86,14.5
				c-0.83,5.58-2.52,11.07-4.26,16.46c-4.76,14.8-9.15,29.66-9.73,45.34c-0.04,1-0.04,2.01,0.07,3c1.23,11.11,8.43,15.27,17.93,9.38
				c13.27-8.23,22.64-19.73,25.83-35.55c5.21-25.82,13.92-50.56,25.29-74.2c8.75-18.2,18.88-35.75,28.89-53.31
				c5.11-8.97,13.53-12.79,23.91-11.74c8.59,0.87,11.35,6.16,7.05,13.63c-18.03,31.33-33.12,64-44.51,98.32
				c-5.71,17.21-10.01,34.76-10.77,52.99c-0.06,1.42-0.08,2.86,0.04,4.28c0.63,7.67,5.54,11.08,12.39,7.57
				c13.12-6.72,23.33-16.69,27.13-31.31c12.13-46.69,28.9-91.47,53.59-133.08c5.75-9.69,14.79-14.02,25.18-12.3
				c7.83,1.29,10.34,6.36,6.37,13.2c-11.96,20.62-22.37,41.97-30.7,64.32c-0.2,0.52-0.34,1.06-0.71,2.22
				c1.41-0.39,2.41-0.59,3.36-0.94c35.08-12.97,71.69,6.23,81.32,42.67c8.89,33.62-9.07,68.9-40.8,80.26
				c-14.13,5.06-28.14,3.04-42.08-0.68c-9.58-2.56-18.58-6.46-26.02-13.37c-4.11,8.85-10.07,12.47-19.69,12.11
				c-8.81-0.33-12.97-3.37-15.99-11.27c-5.96,3.89-11.82,8.18-18.12,11.71c-7.46,4.19-15.73,4.99-24.08,3.41
				c-10.6-2.01-17.52-8.42-21.01-18.56C490.75,369.77,490.29,368.01,489.79,366.36z M673.25,325c0.03-13.18-7.3-23.81-19.24-27.91
				c-18.2-6.25-39.86,5.34-45.91,25.24c-2.38,7.84-3.23,16.16-4.41,24.31c-0.2,1.36,1.08,3.67,2.32,4.36
				c5.83,3.22,11.63,6.86,17.92,8.82C648.3,367.43,673.2,349.62,673.25,325z"/>
				<path class="st1" d="M398.51,423.96c0.47-6.03,2.51-13.03,7.71-18.79c3.85-4.27,8.33-5.26,13.55-3.2c5.58,2.21,7.99,5.5,8,11.32
				c0.02,8.05-2.89,15.04-8.32,20.91c-4.53,4.9-9.57,6.35-14.12,4.4C400.59,436.56,398.35,432.28,398.51,423.96z"/>
			</g>
		</g>
		<g>
			<path class="st1" d="M893.99,20.18c3.97,1.03,7.98,1.95,11.92,3.1c11.1,3.23,20.32,9.48,28.43,17.59
			c71.04,70.96,142.18,141.83,213.13,212.88c27.57,27.61,27.3,68.71-0.35,96.55c-25.77,25.94-51.7,51.72-77.57,77.57
			c-44.96,44.93-89.93,89.85-134.87,134.8c-11.59,11.59-25.18,19.22-41.71,20.46c-28.58,2.15-50.83-8.91-65.32-33.67
			c-20.53-35.08-35.78-72.47-46.8-111.58c-9.06-32.19-14.82-64.94-17.28-98.31C756.08,237.87,777.87,142.75,827.77,54
			c10.56-18.79,26.95-29.76,48.39-33.01c0.82-0.12,1.6-0.53,2.39-0.81C883.7,20.18,888.85,20.18,893.99,20.18z M782.82,287.74
			c0.03,26.88,2.14,53.6,6.73,80.08c10.59,61.06,32.11,117.98,65.05,170.54c18.82,30.03,57.75,33.58,81.73,7.38
			c27.67-30.24,55.3-60.51,82.94-90.78c37.94-41.56,76-83,113.76-124.73c19.96-22.06,17.79-52.97-4.23-72.95
			c-37.77-34.26-75.39-68.68-113.08-103.02c-34.84-31.74-69.57-63.61-104.59-95.16c-22.64-20.4-62.17-13.05-75.97,13.94
			C800.68,140.45,783.13,212.01,782.82,287.74z"/>
			<path class="st1" d="M882.95,154.22c10.31-1.02,20.19-2,30.73-3.05c-1.35,27.39-2.67,54.35-3.99,81.16
			c3.56-4.79,6.84-9.97,10.88-14.47c13.28-14.78,30.51-22.41,49.64-26.23c11.6-2.32,23.29-3.99,35.19-2.64
			c16.24,1.83,31.06,9.91,35.46,25.49c3.69,13.09-0.63,24.11-8.86,33.94c-10.8,12.88-25.12,19.78-41.39,22.73
			c-21.06,3.81-41.99,1.62-62.83-2.06c-5.86-1.03-11.65-2.47-17.46-3.75c-2.36-0.52-3.97-0.46-4.46,2.68
			c-1.28,8.21-2.92,16.36-4.96,24.63c0-9.71,0-19.43,0-29.52c-22.26-5.03-43.19-14.88-66.37-12.42
			c-13.02,1.38-20.84,7.52-19.39,21.67c0.64,6.25,3.19,12.04,7.71,16.27c5.6,5.25,11.98,9.66,17.7,14.18
			c-6.54,0.45-13.26-2.06-19.76-5.53c-17.73-9.46-25.98-30.32-18.39-47.14c5.56-12.32,16.06-18.39,28.56-21.75
			c15.73-4.23,31.4-2.59,47.07,0.36c8.07,1.52,16.13,3.06,24.9,4.73C896.2,206.81,889.63,180.71,882.95,154.22z M920.73,236.71
			c20.32,4.49,40.35,6.9,60.62,5.11c10.12-0.89,19.86-3.88,27.81-10.83c8.54-7.46,7.43-13.83-3.3-17.16
			c-19.81-6.14-39.4-4.54-58.55,2.89C936.8,220.8,927.98,227.36,920.73,236.71z"/>
			<path class="st1" d="M993.35,342.31c-8.07,17.68-16.12,35.36-24.21,53.02c-7.1,15.5-14.38,30.91-21.34,46.48
			c-2.98,6.68-7.82,10.79-14.99,10.77c-7.18-0.02-12-4.19-14.92-10.87c-24.14-55.3-48.38-110.55-72.57-165.82
			c-0.27-0.62-0.38-1.3-0.64-2.2c9.55-3.63,18.93-7.18,28.64-10.87c3.73,11.24,7.39,22.15,10.98,33.08
			c15.28,46.51,30.52,93.03,45.87,139.52c0.56,1.7,2.08,3.08,3.15,4.61c1.53-1.27,3.56-2.24,4.51-3.85
			c17.72-30.27,35.3-60.61,52.91-90.94c0.64-1.1,1.29-2.19,1.93-3.29C992.9,342.07,993.12,342.19,993.35,342.31z"/>
		</g>
	</g>
</svg>
